<mxfile host="app.diagrams.net" modified="2021-03-12T19:14:30.498Z" agent="5.0 (X11)" etag="64AYHCBmj_jO0kst8A_T" compressed="false" version="14.4.7" type="device">
  <diagram name="Page-1" id="e3a06f82-3646-2815-327d-82caf3d4e204">
    <mxGraphModel dx="1185" dy="667" grid="1" gridSize="10" guides="1" tooltips="1" connect="1" arrows="1" fold="1" page="1" pageScale="1.5" pageWidth="827" pageHeight="583" background="#ffffff" math="0" shadow="1">
      <root>
        <mxCell id="0" style=";html=1;" />
        <mxCell id="1" style=";html=1;" parent="0" />
        <mxCell id="F2b25kM4q3_-RmNMOtht-38" value="" style="edgeStyle=orthogonalEdgeStyle;rounded=0;sketch=0;orthogonalLoop=1;jettySize=auto;html=1;strokeColor=#000000;strokeWidth=3;fontSize=14;entryX=0;entryY=0.5;entryDx=0;entryDy=0;" parent="1" source="o8t-AfqVLfgeVHYBPWKt-1" target="F2b25kM4q3_-RmNMOtht-31" edge="1">
          <mxGeometry relative="1" as="geometry">
            <mxPoint x="560" y="150" as="targetPoint" />
            <Array as="points">
              <mxPoint x="590" y="140" />
              <mxPoint x="590" y="86" />
            </Array>
          </mxGeometry>
        </mxCell>
        <mxCell id="F2b25kM4q3_-RmNMOtht-51" value="" style="edgeStyle=orthogonalEdgeStyle;rounded=0;sketch=0;orthogonalLoop=1;jettySize=auto;html=1;strokeColor=#000000;strokeWidth=3;fontSize=14;entryX=0.5;entryY=0;entryDx=0;entryDy=0;" parent="1" source="o8t-AfqVLfgeVHYBPWKt-1" target="6a7d8f32e03d9370-59" edge="1">
          <mxGeometry relative="1" as="geometry" />
        </mxCell>
        <mxCell id="o8t-AfqVLfgeVHYBPWKt-1" value="&lt;font style=&quot;font-size: 22px&quot; color=&quot;#050505&quot;&gt;Client&lt;br&gt;&lt;/font&gt;" style="whiteSpace=wrap;html=1;fontSize=14;verticalAlign=top;sketch=0;strokeColor=#36393d;strokeWidth=2;" parent="1" vertex="1">
          <mxGeometry x="270" y="20" width="290" height="240" as="geometry" />
        </mxCell>
        <mxCell id="6a7d8f32e03d9370-59" value="&lt;font style=&quot;font-size: 22px&quot;&gt;Amazon AWS&lt;/font&gt;" style="whiteSpace=wrap;html=1;fontSize=14;verticalAlign=top;sketch=0;strokeColor=#36393d;strokeWidth=2;" parent="1" vertex="1">
          <mxGeometry x="310.24" y="307" width="210" height="260" as="geometry" />
        </mxCell>
        <mxCell id="vg4Q64sPSbRJCFcJ-0NS-47" value="&lt;font style=&quot;font-size: 22px&quot;&gt;Microsoft Azure&lt;/font&gt;" style="whiteSpace=wrap;html=1;fontSize=14;verticalAlign=top;sketch=0;strokeColor=#36393d;strokeWidth=2;" parent="1" vertex="1">
          <mxGeometry x="540" y="307" width="210" height="260" as="geometry" />
        </mxCell>
        <mxCell id="cS2_gpzCforKgWBa57rc-10" value="" style="edgeStyle=orthogonalEdgeStyle;orthogonalLoop=1;jettySize=auto;html=1;curved=1;sketch=1;" parent="1" edge="1">
          <mxGeometry relative="1" as="geometry">
            <mxPoint x="759" y="530.5" as="sourcePoint" />
          </mxGeometry>
        </mxCell>
        <mxCell id="cS2_gpzCforKgWBa57rc-6" value="&lt;div style=&quot;font-size: 16px&quot;&gt;&lt;font style=&quot;font-size: 16px&quot;&gt;Burst #1&lt;br&gt;&lt;/font&gt;&lt;/div&gt;" style="shape=image;html=1;verticalAlign=top;verticalLabelPosition=bottom;labelBackgroundColor=#ffffff;imageAspect=0;aspect=fixed;image=https://cdn0.iconfinder.com/data/icons/web-development-79/32/development_setting_gear_cogwheel-71-128.png;sketch=1;" parent="1" vertex="1">
          <mxGeometry x="310" y="167.75" width="60.5" height="60.5" as="geometry" />
        </mxCell>
        <mxCell id="cS2_gpzCforKgWBa57rc-23" value="" style="edgeStyle=orthogonalEdgeStyle;orthogonalLoop=1;jettySize=auto;html=1;sketch=0;rounded=0;strokeWidth=3;" parent="1" source="cS2_gpzCforKgWBa57rc-7" target="cS2_gpzCforKgWBa57rc-22" edge="1">
          <mxGeometry relative="1" as="geometry" />
        </mxCell>
        <mxCell id="cS2_gpzCforKgWBa57rc-29" value="" style="edgeStyle=orthogonalEdgeStyle;orthogonalLoop=1;jettySize=auto;html=1;curved=1;sketch=1;" parent="1" edge="1">
          <mxGeometry relative="1" as="geometry">
            <mxPoint x="797.5" y="354.5" as="sourcePoint" />
          </mxGeometry>
        </mxCell>
        <mxCell id="vg4Q64sPSbRJCFcJ-0NS-22" value="" style="edgeStyle=orthogonalEdgeStyle;curved=1;sketch=1;orthogonalLoop=1;jettySize=auto;html=1;" parent="1" edge="1">
          <mxGeometry relative="1" as="geometry">
            <mxPoint x="797.5" y="521" as="sourcePoint" />
          </mxGeometry>
        </mxCell>
        <mxCell id="F2b25kM4q3_-RmNMOtht-15" value="" style="edgeStyle=orthogonalEdgeStyle;rounded=0;orthogonalLoop=1;jettySize=auto;html=1;strokeWidth=3;entryX=0;entryY=0.5;entryDx=0;entryDy=0;exitX=1;exitY=0.5;exitDx=0;exitDy=0;" parent="1" source="6a7d8f32e03d9370-24" target="E6hC4jQGeJp1f0W_XPi9-1" edge="1">
          <mxGeometry relative="1" as="geometry">
            <mxPoint x="820.3399999999999" y="65.5" as="sourcePoint" />
            <mxPoint x="855.06" y="54.25" as="targetPoint" />
          </mxGeometry>
        </mxCell>
        <mxCell id="6a7d8f32e03d9370-24" value="&lt;font style=&quot;font-size: 16px&quot;&gt;Latencies&lt;/font&gt;" style="shape=image;html=1;verticalAlign=top;verticalLabelPosition=bottom;labelBackgroundColor=#ffffff;imageAspect=0;aspect=fixed;image=https://cdn3.iconfinder.com/data/icons/lexter-flat-colorfull-file-formats/56/csv-128.png;fontFamily=Helvetica;fontSize=14;fontColor=#000000;align=center;strokeColor=#000000;fillColor=#66B2FF;gradientColor=#0066CC;sketch=1;" parent="1" vertex="1">
          <mxGeometry x="620" y="154.5" width="70.56" height="67.5" as="geometry" />
        </mxCell>
        <mxCell id="E6hC4jQGeJp1f0W_XPi9-1" value="&lt;font style=&quot;font-size: 16px&quot;&gt;Visualizations&lt;/font&gt;" style="shape=image;html=1;verticalAlign=top;verticalLabelPosition=bottom;labelBackgroundColor=#ffffff;imageAspect=0;image=https://cdn3.iconfinder.com/data/icons/finance-152/64/44-128.png;fontFamily=Helvetica;fontSize=14;fontColor=#000000;align=center;fillColor=#66B2FF;gradientColor=#0066CC;sketch=1;" parent="1" vertex="1">
          <mxGeometry x="732.5" y="157.88" width="63.5" height="60.75" as="geometry" />
        </mxCell>
        <mxCell id="cS2_gpzCforKgWBa57rc-22" value="&lt;font style=&quot;font-size: 16px&quot;&gt;Lambda Function&lt;/font&gt;" style="outlineConnect=0;dashed=0;verticalLabelPosition=bottom;verticalAlign=top;align=center;html=1;shape=mxgraph.aws3.lambda;fillColor=#F58534;gradientColor=none;labelBackgroundColor=#ffffff;sketch=0;" parent="1" vertex="1">
          <mxGeometry x="389.13" y="464" width="52.23" height="63.5" as="geometry" />
        </mxCell>
        <mxCell id="cS2_gpzCforKgWBa57rc-7" value="&lt;font style=&quot;font-size: 16px&quot;&gt;API Gateway&lt;br&gt;&lt;/font&gt;" style="outlineConnect=0;dashed=0;verticalLabelPosition=bottom;verticalAlign=top;align=center;html=1;shape=mxgraph.aws3.api_gateway;fillColor=#D9A741;gradientColor=none;labelBackgroundColor=#ffffff;sketch=0;" parent="1" vertex="1">
          <mxGeometry x="389.13" y="346.5" width="52.23" height="63.5" as="geometry" />
        </mxCell>
        <mxCell id="F2b25kM4q3_-RmNMOtht-42" value="" style="edgeStyle=orthogonalEdgeStyle;rounded=0;sketch=0;orthogonalLoop=1;jettySize=auto;html=1;strokeColor=#000000;strokeWidth=3;fontSize=14;" parent="1" source="vg4Q64sPSbRJCFcJ-0NS-32" edge="1">
          <mxGeometry relative="1" as="geometry">
            <mxPoint x="478.18000000000006" y="467.4999999999999" as="targetPoint" />
          </mxGeometry>
        </mxCell>
        <mxCell id="vg4Q64sPSbRJCFcJ-0NS-53" value="&lt;font style=&quot;font-size: 16px&quot;&gt;Azure &lt;/font&gt;&lt;font style=&quot;font-size: 16px&quot;&gt;Function&lt;/font&gt;" style="aspect=fixed;html=1;points=[];align=center;image;fontSize=12;image=img/lib/azure2/compute/Function_Apps.svg;dashed=0;fontFamily=Helvetica;fontColor=#000000;strokeColor=#000000;fillColor=#F58534;sketch=1;" parent="1" vertex="1">
          <mxGeometry x="618.88" y="467" width="52.23" height="63.5" as="geometry" />
        </mxCell>
        <mxCell id="F2b25kM4q3_-RmNMOtht-45" value="" style="edgeStyle=orthogonalEdgeStyle;rounded=0;sketch=0;orthogonalLoop=1;jettySize=auto;html=1;strokeColor=#000000;strokeWidth=3;fontSize=14;" parent="1" source="vg4Q64sPSbRJCFcJ-0NS-54" target="vg4Q64sPSbRJCFcJ-0NS-53" edge="1">
          <mxGeometry relative="1" as="geometry" />
        </mxCell>
        <mxCell id="vg4Q64sPSbRJCFcJ-0NS-54" value="&lt;font style=&quot;font-size: 16px&quot;&gt;HTTP Triggers&lt;br&gt;&lt;/font&gt;" style="aspect=fixed;html=1;points=[];align=center;image;fontSize=12;image=img/lib/azure2/general/Power.svg;dashed=0;fontFamily=Helvetica;fontColor=#000000;strokeColor=#000000;fillColor=#D9A741;sketch=1;" parent="1" vertex="1">
          <mxGeometry x="623" y="348.25" width="44" height="53.5" as="geometry" />
        </mxCell>
        <mxCell id="F2b25kM4q3_-RmNMOtht-39" value="" style="edgeStyle=orthogonalEdgeStyle;rounded=0;sketch=0;orthogonalLoop=1;jettySize=auto;html=1;strokeColor=#000000;strokeWidth=3;fontSize=14;" parent="1" source="F2b25kM4q3_-RmNMOtht-13" target="cS2_gpzCforKgWBa57rc-6" edge="1">
          <mxGeometry relative="1" as="geometry" />
        </mxCell>
        <mxCell id="F2b25kM4q3_-RmNMOtht-40" value="" style="edgeStyle=orthogonalEdgeStyle;rounded=0;sketch=0;orthogonalLoop=1;jettySize=auto;html=1;strokeColor=#000000;strokeWidth=3;fontSize=14;" parent="1" source="F2b25kM4q3_-RmNMOtht-13" target="F2b25kM4q3_-RmNMOtht-18" edge="1">
          <mxGeometry relative="1" as="geometry" />
        </mxCell>
        <mxCell id="F2b25kM4q3_-RmNMOtht-13" value="&lt;font style=&quot;font-size: 16px&quot;&gt;Coordinator&lt;/font&gt;" style="shape=image;html=1;verticalAlign=top;verticalLabelPosition=bottom;labelBackgroundColor=#ffffff;imageAspect=0;aspect=fixed;image=https://cdn4.iconfinder.com/data/icons/stop-virus-outline-iconset/128/ic_clipboard-128.png;fontFamily=Helvetica;fontSize=14;fontColor=#000000;align=center;strokeColor=#000000;fillColor=#66B2FF;gradientColor=#0066CC;sketch=1;" parent="1" vertex="1">
          <mxGeometry x="376.84999999999997" y="70" width="76.31" height="73" as="geometry" />
        </mxCell>
        <mxCell id="F2b25kM4q3_-RmNMOtht-18" value="&lt;div style=&quot;font-size: 16px&quot;&gt;&lt;font style=&quot;font-size: 16px&quot;&gt;Burst #N&lt;br&gt;&lt;/font&gt;&lt;/div&gt;" style="shape=image;html=1;verticalAlign=top;verticalLabelPosition=bottom;labelBackgroundColor=#ffffff;imageAspect=0;aspect=fixed;image=https://cdn0.iconfinder.com/data/icons/web-development-79/32/development_setting_gear_cogwheel-71-128.png;sketch=1;" parent="1" vertex="1">
          <mxGeometry x="459.50000000000006" y="170" width="60.5" height="60.5" as="geometry" />
        </mxCell>
        <mxCell id="F2b25kM4q3_-RmNMOtht-35" value="" style="edgeStyle=orthogonalEdgeStyle;rounded=0;sketch=0;orthogonalLoop=1;jettySize=auto;html=1;strokeColor=#000000;strokeWidth=3;fontSize=14;entryX=0;entryY=0.5;entryDx=0;entryDy=0;" parent="1" source="F2b25kM4q3_-RmNMOtht-28" target="o8t-AfqVLfgeVHYBPWKt-1" edge="1">
          <mxGeometry relative="1" as="geometry" />
        </mxCell>
        <mxCell id="F2b25kM4q3_-RmNMOtht-28" value="&lt;font style=&quot;font-size: 16px&quot;&gt;Experiment Configuration&lt;/font&gt;" style="dashed=0;outlineConnect=0;html=1;align=center;labelPosition=center;verticalLabelPosition=bottom;verticalAlign=top;shape=mxgraph.weblogos.json;sketch=0;labelBackgroundColor=#ffffff;fontSize=14;" parent="1" vertex="1">
          <mxGeometry x="110" y="162.8" width="59.47" height="64.4" as="geometry" />
        </mxCell>
        <mxCell id="F2b25kM4q3_-RmNMOtht-31" value="&lt;font style=&quot;font-size: 16px&quot;&gt;Logs&lt;/font&gt;" style="shape=image;html=1;verticalAlign=top;verticalLabelPosition=bottom;labelBackgroundColor=#ffffff;imageAspect=0;aspect=fixed;image=https://cdn1.iconfinder.com/data/icons/file-extension-names-vol-8-1/512/12-128.png;fontFamily=Helvetica;fontSize=14;fontColor=#000000;align=center;strokeColor=#000000;fillColor=#66B2FF;gradientColor=#0066CC;sketch=0;" parent="1" vertex="1">
          <mxGeometry x="672.23" y="55.2" width="64.82" height="62" as="geometry" />
        </mxCell>
        <mxCell id="F2b25kM4q3_-RmNMOtht-34" value="" style="edgeStyle=orthogonalEdgeStyle;rounded=0;sketch=0;orthogonalLoop=1;jettySize=auto;html=1;strokeColor=#000000;strokeWidth=3;fontSize=14;" parent="1" source="F2b25kM4q3_-RmNMOtht-33" target="o8t-AfqVLfgeVHYBPWKt-1" edge="1">
          <mxGeometry relative="1" as="geometry" />
        </mxCell>
        <mxCell id="F2b25kM4q3_-RmNMOtht-33" value="&lt;font style=&quot;font-size: 16px&quot;&gt;Vendor Endpoints&lt;/font&gt;" style="dashed=0;outlineConnect=0;html=1;align=center;labelPosition=center;verticalLabelPosition=bottom;verticalAlign=top;shape=mxgraph.weblogos.json;sketch=0;labelBackgroundColor=#ffffff;fontSize=14;" parent="1" vertex="1">
          <mxGeometry x="110" y="52.8" width="59.47" height="64.4" as="geometry" />
        </mxCell>
        <mxCell id="F2b25kM4q3_-RmNMOtht-44" value="" style="edgeStyle=orthogonalEdgeStyle;rounded=0;sketch=0;orthogonalLoop=1;jettySize=auto;html=1;strokeColor=#000000;strokeWidth=3;fontSize=14;entryX=0;entryY=0.5;entryDx=0;entryDy=0;exitX=1;exitY=0.5;exitDx=0;exitDy=0;" parent="1" source="o8t-AfqVLfgeVHYBPWKt-1" target="6a7d8f32e03d9370-24" edge="1">
          <mxGeometry relative="1" as="geometry">
            <mxPoint x="520" y="160" as="sourcePoint" />
            <mxPoint x="597.5799999999999" y="103.5" as="targetPoint" />
          </mxGeometry>
        </mxCell>
        <mxCell id="F2b25kM4q3_-RmNMOtht-50" value="&lt;font style=&quot;font-size: 22px&quot;&gt;EASE vHive&lt;/font&gt;" style="whiteSpace=wrap;html=1;fontSize=14;verticalAlign=top;sketch=0;strokeColor=#36393d;strokeWidth=2;" parent="1" vertex="1">
          <mxGeometry x="80" y="307" width="210" height="260" as="geometry" />
        </mxCell>
        <mxCell id="F2b25kM4q3_-RmNMOtht-47" value="&lt;font style=&quot;font-size: 16px&quot;&gt;Firecracker uVM&lt;/font&gt;&lt;font style=&quot;font-size: 16px&quot;&gt;&lt;font style=&quot;font-size: 16px&quot;&gt; Function&lt;/font&gt; &lt;/font&gt;" style="aspect=fixed;html=1;points=[];align=center;image;fontSize=12;image=data:image/png,iVBORw0KGgoAAAANSUhEUgAAA5wAAARoCAYAAABpFttQAAAgAElEQVR4nOy957dkV3mgf50wBowxYPA4COwfnp9nPtkEkZRQppVarZwlQMbGnvGsMSjnHFpZCOPEeP67W9039+3c/c6HU6fq1Mlh7/3u8DxrPV+0WF6369Q5VY/3W3uvCQAAAAAAAIAF1rT/AAAAAAAAAIgTghMAAAAAAACsQHACAAAAAACAFQhOAAAAAAAAsALBCQAAAAAAAFYgOAEAAAAAAMAKBCcAAAAAAABYgeAEAAAAAAAAKxCcAAAAAAAAYAWCEwAAAAAAAKxAcAIAAAAAAIAVCE4AAAAAAACwAsEJAAAAAAAAViA4AQAAAAAAwAoEJwAAAAAAAFiB4AQAAAAAAAArEJwAAAAAAABgBYITAAAAAAAArEBwAgCA1+zs7s7dW7hb516dx2R375js1Xms3mPH9uvdr3d//3i9x6seX3ii6omqJ1Y8qX0pAAAABkNwAgCAdbZ3dkrurrhT525ZgnPFk1VPVjy1EAAAQAOCEwAARrG1vV1wp+J2UYJTPThPnjwlJ08tPVXraTl16rT2WwsAACKC4AQAgAWbW1uyubVd61bR7bIEZ0zBufD00tMNAgAAtEFwAgAkwsbmVsXN3K2iBCfB2T84T58+s/RM5pmSAACQLgQnAEAkHN3YlI3czdxqZBKcBKfr4Kx6NvNsJgAAxAvBCQAQCEc3NjslOAnOEIPzbIcAABAuBCcAgEccObqx4tHcjQ2Ck+BMNjgzz8nZc5nnCgIAgN8QnAAAjjly5KgcOXq0Epd1EpwEJ8HZHpzNnte+1QEAQAhOAACrzI4crUhwEpwEp5vgPHf+vJwvCQAAbiE4AQAMUxeZBCfBSXD6EZzEJwCAWwhOAAADzGZHOkOT4CQ4CU6/gpP4BACwD8EJADCB9dkRWZ8dITgJToIz8OAkOQEA7EBwAgCMIA9NgpPgJDgJTgAAaIbgBAAYQDk0CU6Ck+AkOAEAoBmCEwCgJ/vHjxOcBCfBSXACAMAACE4AgA7K0UBwEpwEZ1rBmd/nAAAwHIITAKCFtmggOAlOgjP+4Cz/P5cAAGAYBCcAQAN1wVCOBoKT4CQ44wzOpvF5ohMAYBgEJwBADU3BUBcNBCfBSXDGFZxtsUl0AgAMg+AEACjRFgxN0UBwEpwEZxzB2Sc2iU4AgP4QnAAABbqCoS0aCE6Ck+AMOziHxCbRCQDQD4ITAGBOn2BojYZ5JBCcBCfBGV5wjolNohMAoBuCEwBAamJzTHAeX0YCwUlwEpxhBOeU0CQ6AQC6ITgBIHmGBENnNBxfBgLBSXASnH4Hp6nYJDoBAJohOAEgaRpjYUJwFkOB4CQ4CU4/g9N0bBKdAAD1EJwAkCytsTAxOI+XIoHgJDgJTn+C01ZsEp0AAFUITgBIFtvBuYyG1egkOAlOglMvOG3HJsEJALAKwQkASdIZC53B0D84y9FJcBKcBKf74HQRmkQnAEAVghMAkqNXLBgPzmUwEJwEJ8HpNjhdxybRCQCwhOAEgOTQC85CdBKcBCfB6SQ4tWKT4AQAyCA4ASApeseCteDMwiEPAoKT4CQ47QWnZmwSnQAAGQQnACTDoFiwGpz9o5PgJDgJznHBqR2aRCcAQAbBCQDJ4FtwLqPzFMFJcBKchoJTOy4JTgCAVQhOAEiCwbHgKDiz6DzVGJ0EJ8FJcPYPTu2wJDoBAKoQnACQBM6CsyYauoKzLToJToKT4OwXnNpBSXACANRDcAJA9DSFgk/BeaIUBwQnwUlw9g9O7ZgkOgEAmiE4ASBq2kLBt+BcRsMyOglOgpPgbA9O7YgkOgEA2iE4ASBqQgzORXSeOkVwEpwEZ0NwaocjwQkA0A+CEwCipSsUfA7OEydPLqKA4CQ4Cc7V4NSORqITAKA/BCcARMuk4KyJBdfBeeLkyUUIEJwEJ8EZR2wSnACQGgQnAERJn1AIIThPFqIzC0+Ck+BMNzi1Q5HoBAAYDsEJANHRNxRCCc6TpfAkOAnOFINTOxCJTgCAcRCcABAdk0PB0+BcRudpgpPgTCY4taOQ4AQAmAbBCQBRYSQUPA7OLDpPN0YnwUlwxhSc2kFIdAIATIfgBICoSCE4T5481RidBCfBGUtwaocgwQkAYAaCEwCiYUgkhB6cxegshifBSXDGEJzaEUh0AgCYg+AEgGhwG5w1weA4OFfC8/RpgpPgDD44tcOP6AQAMA/BCQBRMDQSYgrOk6dOLaKA4CQ4Qw1O7eDTFgAgVghOAAiexkBIKDjz6DydRyfBSXAGFJzaseeLAAAxQnACQPAQnEvzCCA4Cc5QglM78nwSACBGCE4ACJrWQPA2OE9aC85idGbhSXASnP4Gp3bg+SgAQGwQnAAQNARnNTjzeOgTnQQnwakRnNpR57MAALFBcAJAsHQGQuLBuYzOMwQnwelNcGoHXQgCAMQEwQkAQdIrEAjOeXSeaYxOgpPgdBmc2iEXkgAAsUBwAkCQpBucpwYHZ1t0EpwEp6vg1A640AQAiAWCEwCCo3cgEJwrIVEMA4KT4HQZnNrxFqoAADFAcAJAcBCc44IzNw8DgpPgtB2c2sEWugAAMUBwAkBQDAoEgrMxJPIwIDgJTlvBqR1rsQgAEDoEJwAEw+BAIDibQ2IenWfy6CQ4CU6DwakdabEJABAyBCcABAPBaTY4T50+vRh9JDgJTlPBqR1nMQoAEDIEJwAEQVMcEJzTgrMYncvwJDgJznHBqR1mMQsAECoEJwAEAcHZLzjrI6I9OPOYWEYnwUlwDgtO7RhLQQCAUCE4AcB72uKA4DQXnF3RSXASnHVqh1hKAgCECMEJAF7TFQcEp9ngbItOgpPgJDb1BQAIDYITALyG4HQfnMvoPEtwEpyN7xHt8EpVAIDQIDgBwFv6xAHBaSc4s+g8u5DgJDiJTX8EAAgJghMAvIXg1A3OcngSnASndmghwQkA4UFwAoCX9I0DgtN+cJ4+faYanQRncsGpHVlIdAJAmBCcAOAdQ+KA4HQTnHl0nj17luBMMDi14wqJTgAIF4ITALyD4PQzOE+fPiNnz86jk+BMJji1owoJTgAIG4ITALyiNgwITm+Csxidq+FJcMYYnNpBhUQnAIQPwQkAXkFw+h+cp89krkYnwRlTcGpHFBKcABAPBCcAeENjGBCcXgbnmZXoJDhjCU7tgEKiEwDiguAEAG8gOMMLzrboJDjDC07tcEKCEwDig+AEAC9oDQOC0+vgbIpOgjOs4NSOJiQ6ASBOCE4AUKczDBINzmo8+BucxejMw5PgDCc4tWMJiU4AiBeCEwDUITjjCM5yeBKc/gendiAhwQkA8UNwAoAqvcKA4AwqOJfReY7g9Dg4teMIiU4ASAOCEwBUITjjDM4sOs8to5Pg9Co4taMICU4ASAeCEwDU6B0GBGeQwbkSnQSnN8GpHURIdAJAWhCcAKDCoDAgOIMNzjNnstHac+cyCU7d4NQOISQ6ASA9CE4AUCGl4DwRU3CeGR6cZ86clTNnz5aik+B0GZza8YMEJwCkC8EJAM4ZHAYEZxTBuRqdBKer4NQOHyQ6ASBtCE4AcA7BmW5wNkUnwWknOLWDBwlOAACCEwCcUh8FBGdKwXm2JjoJTvPBqR076IcAANoQnADgFIKT4Dxbis5z584RnIaDUzty0B8BALQhOAHAGc1REEZwHo8pOE/rB2c5PAnO6cGpHTfopwAAmhCcAOCE9ihIPDhrwiGl4GyMToJz0PtGO2rQbwEAtCA4AcAJBCfB2RactdFJcPZ+32jHDPovAIAWBCcAWKc7CghOgrPmd50EZ6/3jXbIYDgCAGhAcAKAdQhOgrNvcFZWOwnO1veNdsBgWAIAaEBwAoBV+kUBwTk6OE/FGZz10Ulw5mqHC4YrAIBrCE4AsEb/KCA4Cc465+O1588TnIX3jXawYPgCALiE4AQAayQXnDXBQHBOC86z8+DMopPg1A4VjEMAAJcQnABghdogIDiTD87+sbkMzmJ0np+HZ4rBqR0pGJcAAK4gOAHACgQnwWk0OOeen0dnasGpHScYnwAAriA4AcA4jStQBCfBOTE4W6MzwuDUjhKMWwAAFxCcAGAcgpPgtBmcjdEZWXBqxwjGLwCACwhOADBK66YuoQRnTSgQnH4FZ210RhSc2iGC6QgAYBuCEwCM0bmLKMFJcBoMzmJ0nj9/Pprg1A4QTE8AAJsQnABgjJCCc+g4LcG5Gpz9YtN+cFZWOwMPTu3wwDQFALAJwQkARijGJsFJcLoOzuboDCM4tYMDEQDAFgQnABhhWnAeIzgJzsnBWR+d/gendmggrs8ITgCwB8EJAJPZ2d31MzgN7lBLcIYRnNXo9Ds4tSMDsSgAgA0ITgCYTHrBWRObBKc3wXnu3PnSZkJ+Bqd2XCCWBQCwAcEJAJPIYpPgJDj9Cs5z51ej07fg1A4LxCYBAExDcALAaJaxqRecxo9EITijDM7a6FQITu2YQOwjAIBJCE4AGA3BGUpwniY466LTcXBqRwRiXwEATEJwAsAoVmPTcnAa3qGW4Ew3OFei02FwagcE4lABAExBcALAKAjOscF5kuBUDs5McRac2uGAOEYAAFMQnAAwmJ2dcmwSnARneMEpUh+dJoNTOxoQpwgAYAKCEwAGQ3CmFJxnIg3O84v3s43g1A4FRBMCAJiA4ASAQezs7BKcBGcUwdkUnVODUzsSEE0KADAVghMAerOITYJTKThPEZyGg7MuOqcEp3YcINoQAGAKBCcA9GZycNbGJsGpHZy9f78ZRHCeHxycxegUkdHBqR0FiLYEAJgCwQkAvViJTYKT4IwsOMvhOTQ4tYMA0bYAAGMhOAGgFwQnwTk8OM8GF5zFtc4+7yftCEB0JQDAWAhOAOikEpsEJ8GZQHCKSOv7STsAEF0LADAGghMAOiE4Cc4kglOkEpwiUvt+0v7ij6ghAMAYCE4AaKVfbBKcPgRnfWwSnFODM4fYRCQ6AWA4BCcANLJdF5sWg7M2NgnORIPznHfBuX+czYEQ12dEJwAMg+AEgEYIToKT4Fxy5OiGHDm6of5lH1FbAIAhEJwAUMv2zi7BSXASnHPWZ0cWwUl0IhKdANAfghMAaiE4CU6CMyMfpS0G55GjR9W/8CNqCgDQF4ITACrksUlwEpxBBud5c8GZX/v8SzbRibgUAKAPBCcAVJganLWxSXASnIEFZzk212fl4GS0FtMWAKAPBCcArFCMTYKT4EwtOHOK1734BbscnKxyYuoCAHRBcALAgnJsEpwEZ0rBmdMUm7lEJ+KqAABtEJwAsIDgJDhTDc6c8jWv+3JdDU6iE9MWAKANghMARERke2eH4CQ4/QrOc26CM6dPbObWBeeRI0QnpisAQBMEJwCICMFJcKYZnDl117vty3XTKifRiakKANAEwQkA89isBmdtbBKcBGckwZnTdL27vmDXRucRohPTFQCgDoITAAhOgjO54MwZG5vrs/ZVzhnRiQkKAFAHwQmQOMvYJDgJzniCc0psTgtOohPTFgCgDMEJkDCrsUlw+hSc1dgMODjP+hOcOVNjM7ctOIlOTFUAgCIEJ0DCEJwEZ0rBmdMWm2aCc3WVk+jE1AQAKEJwAiRKNTYJToIz3uDMMRmbuUQnYlUAgByCEyBRCE6CM5XgzOmKTVvBSXRiigIA5BCcAAmyvV0XmwQnwRlfcOb0ic2xwbk+67/KSXRiSgIAiBCcAElCcLoLzhMxBeeZsIIzx3Zsrs/agpPoxHQFABAhOAGSY3t7h+AkOKMPzpy+sbm/bz84iU5MUQAAghMgIRaxSXASnBEHZ56brmIzd+gqJ9GJqQgAaUNwAiQEwUlwxh6c58+LnJdhsekmODdqVzmJTkxBAEgbghMgEbaKsUlwEpwRBme2UdDw2DQVnOuzcaO1RCemIACkC8EJkAgE57TgPE5weh2c+a60mrG5PuuxytkwWkt0YuwCQLoQnAAJUIlNgjPt4DwdV3AOjs1CcB53HpzNo7VEJ8YuAKQJwQmQAASnx8FZE5sEZ//g9Ck2c6eschKdGLMAkCYEJ0DkbG3vEJwEZ5TBOSU2dYOT6MR0BYD0IDgBIofgJDhDD8722DzhVWzm9g1OohNTEwDSg+AEiJg8NglOgjOm4DQRm/rB2b3KSXRirAJAWhCcAJFSjE2CM9LgPJVecJqKzePH7Qbn+ozoRGwTANKB4ASIFILTcXDWxCbBaSc4Q4jN9dmw4CQ6MTUBIB0IToAIKcdmv+DcJTgJTq+Dc8pZm8XY9Cs4+61yEp0YowCQBgQnQIQQnASnj8HZPzarwRlabOYSnYjNAkAaEJwAkbG1vU1wEpxRBefUszaLsel7cBKdmJoAED8EJ0BkEJwEZ0zBaSQ2lVY3c02vchKdGJMAED8EJ0BEZLGpEZx78QRnQ8QQnO6D0+SOtGEE50bvVU6iE2MSAOKG4ASIiKbYJDgJztCC00ZsagXn+oxVTsQ2ASBuCE6ASGhb3SQ4CU6TwdkvNscHZ2yxuT4buMpJdGKCAkC8EJwAEbCMTYKzT3AO/f0mwekuOG3F5n6AwUl0YmoCQJwQnAAREHZwHiM4CU6rsam9uplra5WT6MRYBIA4ITgBAmc1NglOgjPM4LQZm9qrm7nDgpPoxDQFgPggOAECh+C0fyQKwWk3OEfF5vGwYjPX5mgt0YkxCADxQXACBMzWVjk2CU77wVkTmwTn6OA0FpsNv9sMOziHr3ISnRiDABAXBCdAwKQenMZ3qCU4nQani9j0LTjXZ0QnYpcAEBcEJ0CgbG1tE5wEZ7DBuRqb5nek9TU212fjg5PoxJQEgHggOAECZBGbBCfB2Rmcp70LTlexGU9wjlvlJDoxZAEgHghOgABJKjgN71CrG5wnkw/O1GMzl+hE7BYA4oDgBAiMldgkOAnOgILTZWzGHJzDo1P/34s4VgAIH4ITIDAIToIzxOA8ZzE2QwzO9ZnbVU6iE0MVAMKH4AQIiM1ybBKcBKfV4DxjJDjPnT8v54jNikdHBefGyFXOozLz4N+MOEYACBuCEyAgCM6Ug/NUkMF57tzI2Dw+PjZDCc71GauciH0EgLAhOAECYXNrO+zgrI1NgjPm4Dx37rycO2coNnv+bjOk2FyfTVjlHBudHvybEccIAOFCcAIEgtHgrMQmwZlqcPb+/ebA4Dx37tzk2By6SVCowTkuOsduIER0YpgCQLgQnAABkMcmwUlwhhCc1di0vyNtiLGZ63yVk9FaDFQACBOCEyAACE6CM5TgzGLznEpshhycjNYidgsAYUJwAnhOMTYJToLT5+DUjs39/TCDc32mM1qr/W9GHCMAhAfBCeAx5dj0IjgrsUlwEpzE5lRVVjkZrcVABYCwIDgBPKYzOCuxSXCmGpz1sekmOG3HZmdw7kcQnBsbjNYi9hQAwoLgBPCUutiMOThrY5Pg9D44iU1zTovOsaO1+v9uxDECQDgQnACeQnASnL4HZx6bx8fEZiEWp8YmwcloLaYnAIQDwQngIU2xSXASnL4Ep/HYHPm7zVhiM5fRWsT+AkAYEJwAHkJwEpwhBOdqbLrfJCja4NyYHpyM1mIKAkAYEJwAnrG5tUVwEpxeB6dPsRlbcK7PWOVEHCIA+A/BCeAZoQdnbWwSnNEEpw/Hn8Qcm+uz1VXO0dE58mxOohNDEwD8h+AE8IgsNglOgtPP4PQtNvf399W/7Nrw6MamsdFaNhDCFAQAvyE4ATxhGZsEJ8HpX3D6cvxJ7LGZa2SVk9FaTEgA8BeCE8ATCE6C09fg9DE24w/OTQPROXYDIaITwxMA/IXgBPCA1dgkOAlOf4JzUmwWYpHYHO4iOjmbE7GXAOAnBCeAB/gYnLWxSXAmFZzqZ202xGZywcloLWIvAcBPCE4AZTY3y7FJcBKc+sGpHpuV4NxPLjjXZ/qjtdr/fsShAoB/EJwAyhCcBKdvwVkfm/o70qYWm+uzPDgZrUXsKwD4B8EJoMjm5hbBSXD2iE13wel7bB5LOTgZrUXsJQD4BcEJoAjBSXD6FJzEpp+ai86xo7X6rwHiEAHALwhOACU28tgkOAlOD4IzhNgkOBmtRewrAPgDwQmgBMFJcPoSnC5ic8qOtMvrlmZwrs8Mj9ZyNicmIAD4A8EJoMDG5hbBSXB6EZzEZhhWVjk3pq9yMlqLsQsAfkBwAjgmj02Ck+DUDs5ibBo7/sRSbKYenOszNhBCHCMA6ENwAjiG4EwnOE94HJxWYtPwWZvE5qpNq5yM1iI2CwD6EJwADinGJsFJcGoFZ2ixSXBmrganudFaNhDC2AUAXQhOAIcQnASndnA2x6ZfO9ISm/UaX+VktBYTEAB0ITgBHFGOTYKT4HQdnKHEJsHZbNsqp9uzOYlODEsA0IPgBHAEwUlwagZnqLG5v39c/Yuqb9ZGJ2dzIrYKAHoQnAAOqItNgjOc4DweeHASm3FpfpWT0VpMQwDQgeAEcIB2cG4TnH4GZ01smg5OV7Fp8viT/cI10v6C6qPV4NQdrdV+PRD7CgA6EJwAlmmKTYKT4LQdnMRmvDZGJ6O1iK0CgHsITgDLEJwEp0ZwlmPT2PEnjmKT4GzXziono7UYvwDgHoITwCJtsUlwEpy2gtNabE7+3Wb7WZusbg6zKzqnBOfw6NR/PRD7CgBuITgBLNEVmwQnwTkpOE/VB6fp2DS3SVD/2CQ4++ndKifRiQEJAO4gOAEsYSM4twhOgrMlONtj068dadtik+Dsr7Xo5GxOjFwAcAfBCWCBPrHpV3DuEpxTgrMmNl0HZ0ix2fa7TWJzmPXBaW60llVOjFkAcAPBCWABgpPgdBmcZyOKTYJzmH2Ckw2EEOsFADcQnACG2djcnBicPX+/SXASnPPYPOsoNm3uSEtsjtdedI4/m5PoxFAEAPsQnACGITgJTlfBGVtsHiM4R9kcnIzWInYJAPYhOAEMksUmwUlwugvOybFZiEViM1wZrUUcLwDYheAEMEiawbkXT3A2BJWPwdm+ujkhNof+brMlNut3pK2PTYJzmn1XOV2P1mq/Loh9BAC7EJwAhtjY2PQgOKuxSXDGF5xnz3oSm5XgHHbWZjE2Cc7pdkYnZ3MiNgoA9iA4AQxBcIYRnEPHaX0LzrNnz8nZsz7uSDs8NlndNKvdVU5GazFuAcAeBCeAATY2NglOgtN6cPobm8crsTlklJbgNGN7cGqO1uq/Noh9BAA7EJwAEzmaxybBOSI4jxGcPYOT2MQ+9opORmsRGwUA8xCcABMhOD0MToM71PoQnGfPno02NglOs9pf5WS0FuMWAMxDcAJMIP8SR3ASnLaCM4vNs1GdtUlw2nVIdE4JTkZrMVYBwCwEJ8AECM7UgrMmNi0GJ7GJY/R6lZPoxAAEALMQnAAjKX6BIzjdB6fxI1E8C05jsVmIRd9i89j+vvoXy1h1Ep0jz+ZktBZDEADMQXACjGRqcG4SnARnQ3DWxWY4Z20Smz7YHZzmRmtZ5cQYBQBzEJwAIyh/cSM4LQWn4R1qQwjOsGOz+vo2xeaxYwSnTYcGJxsIIVYFADMQnAAjIDgJzuHBebIzOLtj068dabtisz4491nddKSb6By7gRDRif4LAGYgOAEGUveljeAkOKcGZ2ixOWWUltVNN270Ck7O5kRsEwCmQ3ACDITgJDhNB2dqsUlwupPRWsRpAsB0CE6AAbTGJsFJcI4ITmITbTpolVNptFb7NULsEgCmQXACDIDgJDhNBqfr2NQ8/qR4fbS/PKZk/+BktBaxSQCYBsEJ0JOmL2kEZ4/grI3NtIOT2ERXulvlZLQW4xUAxkNwAvSg7UtacMFZiU2C03VwNsWmseNPPI1NglPH/Pnk92it/uuE2CUAjIPgBOgBwUlwmgpO67E5+XebXWdtEpshymgt4nQBYBwEJ0AHXV/OCE6Cs29w2opNc5sEdcVm9fXrG5sEp675s4rRWsRpAsBwCE6ADghOgtNEcPaLTb92pO2KTYIzLMeO1k4JTkZrMTYBYDgEJ0ALfb6YJRWcldgkOPsEZ4ixaXKUltj0Q1Y5Ec0IAMMgOAFa8Do4K7EZbnDWxmYkwUlsEpy+uLG56T46R57NSXSizwLAMAhOgAb6brBBcBKcTcGpEZs+7UhLbPpn8ZnlcrSWDYQwNgGgPwQnQAMEJ8E5JTjPEJuLa6H9xRCXqqxyMlqLEQoA/SE4AWrIvmQRnATnuOA8c/asnCE2iU1PdR+dYzcQIjrRbwGgHwQnQA0EJ8E5NjjbYlPtrM2W2DR91mb5Gmh/IcSqxeAcFJ2czYm4IgD0g+AEKHH06Ibb4NwiOGMJTi9jsxKcds/aLL/+2l8IsV5GaxHNCADdEJwAJQjO8cFZG5uJBGf/2NTckXZ4bNYH535zcBKbQbh4VgUyWqv9eiE2CQDdEJwABfIvUgQnwTkkOMOIzeOGYpPVzRg8On9eDVvlZLQWsU4AaIfgBChAcBKcY4MztNi0+btNYjMM8+cVo7WI0wSAdghOgDmL2CQ4Cc4BwXnmjPsdaX2PTYIzDPNn1qgNhFRGa/VfM8QmAaAZghNgzuTg3CQ4UwvOM2fOypkzHH9S9zprf/nDfjJai2hGAGiG4AQQkSPF2CQ462OT4CQ2ic3oLD67nI/WcjYnRiYA1ENwQvLkX34IToKzb3Aaj81CLIYemwRneJoYrZ2yysloLcYkAFQhOCF5CE6Cc0hwtsWm2lmbLbFZvyMtsYlLNza3Ro7WsoEQYlkAqEJwQtIUv/gQnARnV3B6GZuV4Bx+1qap2CQ4w3Rjc4vRWkSDAsAqBCckDcFJcPYNzjNnzvSMTb92pB131uY+q5uJWbfK6Xq0lg2EMBYBYBWCE5Kl/KVnNTYJToJzaRabZ4KLTZejtARn2ObPJUZrEc0IAEsITkgWgpPg7BOcxGa/15XgDN/yaG0YZ3MSneinALCE4IQkqfvCQ3ASnMQmsZmy2XNs4mitxiono7XoqQCQQXBCkhCcBGdXcGrFZkjHn+TuHSM4Y4p7kDEAACAASURBVDAPzkxGaxGnCgAZBCckR9MXHYKT4CQ2ic3UXURngKO12q8dYp0AQHBCghCcBGdbcHbFprHjTyKJTYIzLovPr3EbCDFai1gUAAhOSIy2LzkEJ8HpLDYn/26z66xNYhPHy2gtolkBUofghKQgOAlOrdg0t0lQV2xW/42mY5PgjNvFGG1htHbUBkIGzuYcHp36rx9iWYDUITghGbq+4BCc6QbnsNj0a0fartisD859I6ube8eOqX+RQztOH61VXOUkOtFDAVKG4IRkGBac/X+v5HtwbhOcrcEZcmxqjtKyuhm3y9XN1Q2EnEcnZ3NiJAKkDMEJSdDniw3BmV5wEpvjY5PVzbhd/H7Tk9FaVjkxBgFSheCEJCA4Cc5ycBKbxCa2u7LKGeJorQevIWJRgFQhOCF6+n6pITjTCU7N2Az5+JM8NgnONFw8r9RHa8efzUl0om8CpAjBCVFz5OhRheDsjk2CUy84iU1iE/tbHq0tr3IyWos4XIDUIDghaoZ8oSE44w/OPrFp7KxNg7GpfdZmMTYJzrSsrHIyWos4WYDUIDghWoasboYQnFsE56TgdBqbk3+36ddZm6uvO8GZmm2jtWNXOV2P1mq/hohlAVKC4IRoITj7Budu9ME5PDY1NwkaHpuNZ20Sm2jA5XOrebS2/zOTszkR12cEJ6QFwQlRcuTI0UCDs+c4LcHZOzjDis3q7zbHxaapUdrV2CQ403Tl2bWxuRqgjNYijhYgFQhOiBKCk+CMITZ9+d0msYnLZ5vZszndjtbqv46IRQFSgeCE6JjNv4gQnGkHJ7FpNjYJzrRdfX5N3UCI0VrEXIAUIDghOghOl8G552VwasdmLMefEJxYdOX5VlrlZLQWcZwAKUBwQlTkXyjSDM5qbKYYnMQmsYl2XF3dNDtaOyU4Ga3F0AWIHYITooLgTDs4rcbm8XRjk+DE3KYNhMaN1iquchKd6JEAsUNwQjQUv0wQnOkFZ9/YVDtrsyU263ekJTbRP8u/4fRitHbk2ZyM1qJPAsQMwQnRQHCGFpzHjAent7FZCc7hZ22ajs2u408ITqyz+izzZ7SWVU4MWYCYITghCspfJAjOtIJT+3ebU3ekHXfW5r6h1U1iE4dZeZ6FPFrrweuJmAsQKwQnRAHBmW5whh6buqO07bF57Ni++hcw9M+641H0R2vHbiBEdKI/AsQKwQnBU/cFguBMIziJTTO/22yKTYITm2wbrS2vcjJai9hfgBghOCF4CM70gpPYJDZR19rnGqO1iJMFiBGCE4Km6cuD78G5SXBOCk7t2Iz5+JPi/03tL17or5XVzZbR2rGrnK5Ha7VfU8RcgNggOCFoCM70gvM0sWkxNlndxP7WP9+aR2v7P1c5mxPTFiA2CE4IlrYvDgRnBMHZEJunXR5/kmhs7rE7Lfaw8Rm3sbkaoIzWIg4WICYITggWgjOt4HQem5N/t9l11iaxieFbP1pr9mxOt6O1+q8p4vqM4IS4IDghSLq+NBCccQVnfLFZDU7TsTn0+JNjhf+d9hctDMfm59zUDYQYrUUEiAWCE4LEl+DcIDitB+e42PRrR9qu2KwPzn1nZ20eK/3vtL9kYVgO2UCI0VrE/gLEAsEJwdHnywLBGUdwxhCbvozSEptoy+bVTbOjtVOCk9FaDFWAGCA4ISj6flkgOD0KztrY7A5OYtN9bO7tEZw43Nbn3cbU0VpWOREBQofghKAgOCcGZyU2/QzO06eJTRexuRKcxCZOsO03nF6M1o5a5SQ60Q8BQofghGAY8iWB4Aw3OE+fPiOnT+vGZtzHn9THJsGJU2x/5jWfzel6tJYNhDBUAUKG4IRgIDjjD05i0+3xJ8QmmpTRWkR7AoQMwQlBMPQLwtDgPEpwqgfnkNg0dvxJ6rFJcKJBu45H0R+tHbuBENGJfggQKgQnBAHB6UFwVmLTXHCqxObk323qn7VpKjYJTjSlk9FajVVORmvRAwFCheAE7xn+xYDgDCk4XcamuU2Chsdm41mbI2Nz6lmbxCbasPP5x2gt4iQBQoTgBO8hOGuCsxKbYQbn+Nj0a0facbFpanVzWmwSnGjSzbbVzdIq58pzM5DRWu3XFxEgRAhO8JrZ7AjBGWlwxhKbvvxuk9hEX+x+BjaP1vZ99jJaiykLEBoEJ3gNwRlncJ4+fZrY9CA2CU60Yfcq5+pordrZnIzWYqAChAbBCd6yPjtCcEYYnFlsnlaPzbh3pN2vBmdNbBKcaMsxo7WjNhBSGa3Vf30RAUKC4ARvWZ8RnLEFJ7GptCMtsYmObQ7O+hVPRmsRhwkQEgQneEn+QI0+OLfiCc7a2Nx1HJvHic2+o7QEJ9p20Ght4RnqfLR21Cono7WoL0AoEJzgJfnDlOCMIziHxqbaWZstsVm/Iy2xidhk/pxzOVo7ZZWT0VoMTYBQIDjBO4oPU4Iz/OAMJjYrwTn8rE3TsWn6+JOFxwhOtG97cBbcmDpaywZCmK4AIUBwgncUH6QEZ9jBOS02/dqRdtxZm/vNwUlsYgL2W+VktBZxrAAhQHCCV5QfpARnuMEZU2zqjtKajU2CE11a3CCtcwOhjfqzOV2P1rKBEIYmgO8QnOAV5YdoMMG5GU9w1sbmwOAkNv06a5PgRE0ZrUW0K4DvEJzgDXUP0THBeYTgVA1OYpPYRCzavcrZPlobxtmcRCfqCuAzBCd4Q90DlOAMMzh9iM24jz/ZrwZnj9gkOFHD/mO1BkdrNVY5Ga1FRQF8huAEL2h6gBKcYQWnk7M2k4/NmtVNYhM9d1B0bmyuBiijtYi9BPAVghO8oOnhSXCGE5xqx5+kHps9NgnK/zfaX4YwXTe3tgaM1lbP5gxptFb7tcZ0BfAVghPUaXt4Og/ODYJzTHCeivasTWIT0ZSDR2snbSDEaC2mKYCPEJygTtNDczYjOEMIzlOnT8upKGOzGpymY9P28Sf5/2aX4EQPHLbKyWgt4hgBfITgBFXaHpoEp//BOS02/dqRtis264Nz39uzNouxSXCiLxaDc8xo7agNhAyczTk8OvVfa0xXAN8gOEGVtgcmwel3cMYUm76M0po8/oTYRB/tt8ppcrRWcZWT6EQlAXyD4AQ1uh6YBKe/wUlshhObBCf65OJZN2a0tvCsdR6do1Y5Ga1FPQF8guAENboelpOC8yjBaSs4iU23sTn4+JM9VjfRb8vBGdJoLaucGIoAPkFwggp9HpYEp3/B6VNsxn38ycjYZHUTA7D/KmfBjYBHaz14zTFNAXyB4AQV+jwoCU6/gnMRmyeITefHnxCbGJlhjtaOP5uT6EQNAXyB4ATn9H1QEpz+BOepU8Nj09jxJ6nH5ogdaQlO9N1Rq5yF0dryKiejtYj1AvgAwQnO6fuQJDj9CM5Tp07LqVNKsTn5d5tdZ23GG5sEJ/ouo7WI9gXwAYITnDLkIakXnH2/uPgfnNsTg1MjNs1tEtQVm9XgNB2brs/aJDYxJFeefRNHa8eucroerdV+zTFNAbQhOMEpQx6QY2KT4DQXnNNj068dabti0+7qptvYJDj9VS5ea1X773PpsODsN1rb//nN2ZyYjgDaEJzgjKEPSIJTLzhji01fRmltnrVJbPptV2gSneNHa9XO5mS0FgMSQBOCE5wx9OFIcOoEJ7EZdmwSnP45JDZTi87KM7D3aK3Zszndjtbqv+6YngCaEJzghDEPxzCDs884mL/B6VtsxrIjbVtsmjj+pOgewemVY2Iz6egcOlo7aQMhRmsxLQG0IDjBCWMejNODs/+XBt+Dc8tBcBKbYZ61SWz665TYTCk6s+ecuQ2EGK1FrBdAC4ITrDP2wUhwugvOldgcEJzEph/Hn+Sxubu3p/6FBudf7AzEZirBuT5rXuV0PVo7JTgZrcUQBNCA4ATrjH0oEpwugnN8bKqdtdkSmymetblb+N9rf5HB+Rc6Q7GZUnQOX+Ws30Bo3Git4ion0YmOBdCA4ASrTHkophecPX+/aTA4g4vNSnCmfdYmq5t+KpesGVf732Tb5fMu4NHaUaucjNaiewFcQ3CCVaY8EAlOu8F56tQpA7GpuSPt8NisD8795uAkNnHoFzkLsZlCcK7P2lc5u1c6/RmtZZUTfRfANQQnWGPqA5HgtBecWWyeCjg2q7/bHBebpkZpdWOT4PRHW8GZQnSOW+WMZLTWg9cf0xLAJQQnWGPqw5DgtBOcMcamL7/bdHnWZjE2CU4/tBmbKQTn+qxmlTO40dqxGwgRnehWAJcQnGAFEw9DgnNIcFZjsy44ic1wYrPPjrTEpl/aDs4UonPyKmdhtLa8ysloLeKqAK4gOMEKJh6EBKfZ4PQxNuM+/mS/GpyGztosxibB6YcuYjOt4GS0FtG2AK4gOME4ph6EBKe54KzEJmdtuj/+hNiMWoLTnLXBaWC0duwqp+vRWu3XH9MSwAUEJxjH1EOQ4DQTnM5j8zixaeuszXJsEpx+6Co2U4lOI6ucLaO1/Z/xnM2J8QvgAoITjGLyIUhwTg/OKbGpdtZmS2zW70gbf2yyuum3BKd5TY/Wqp3NyWgtBiCAbQhOMIrJByDBOS04g4zNSnAOP2vTdGz6dvwJwemXcumaitr/btv2Cc7u0VqzZ3OaHq2VGz4tcsPvilz/KZHrPily4BMiB34n8/sfF7n2t0Wu+ZjINb8lcvVvZl756+rXBuMTwDYEJxjD9AOQ4JwenNNj068dacedtbkfzVmbBKd/Epz2NDZaO2kDIfOjtXLTZ0Ru/L0sOK+fB+f1n5oH5yeWwfn9j8+DsxCdV/2GyJW/LnLlr4lc8Wvq1wjjEcAmBCcYw/TDj+AcH5wxxqYvo7SaZ20Sm/5JcNqz+iwM9WzOLDrl4GdFDv5+FpzF6Oy1yvmx5SrnSnSuiVyRxvsB7QpgE4ITjGDj4RdrcG5aDk4fjz8hNs3GJsHph1qxmUp09g1O16O1Q2NTDn1e5ObPzYPzszXB+enlKmcxOvNVzvJo7SI4iU40K4AtCE4wgo0HH8E5PDiJTZ3YHHz8yV57cBKbYUhw2nfaKmf9BkLjRmvHrXLKLV8QOfQHpeisWeW8vrzK+Yn6Vc6G0VqiE00IYAuCEyZj68FHcA4LTh9jM+7jT0bG5sjjTwhO/yQ47dsanJ6P1sqtX1wNzkOfX65yFqMzX+UcuoFQzWgt4YlTBbABwQmTsfXQIzj7B6fzszaTj82aUVpiMym1Y5PoHDJaW4jPjfqzOU2P1srtfyhy2x+K3PZFkVu/IHLLH4jc8nmRQ58TuXkenAc/k3nT74ncOA/OGz6Vef0nRa77hMh1vyNy4OOZ3/9tkWs/JnLtb4lc85siV/+GyFW/PvfXRK5cW1H7umGYAtiA4IRJ2HzoEZz9gtOL409Sj00DO9LuEZxBqR2aaQen36O1cscfVYPz1i9kwdk3OhfBWYjORXDWReevZSudBCcaEMA0BCdMwuYDz/fg3PAgOL2Izcm/2+w6azP+2Oy7urm7S3D6onZophSc67NwRmvlzj+eB+d/6V7lLEZnHpy10fk7NdE5D85KdLLKidMFMA3BCaOx/cAjONuDUzM2zW0S1BWb1eA0HZu+n7VJbPqpdmgSnBPP5jQxWlsKTrnzT0Tu+pMsOMvRuVjltDxaeyXRiWYEMAnBCaOx/bAjOJuD01xs+rUjbVds1gfnvqHVTb9jk+D0R7lszSu1Xw8XNj8f/Rmtlbv+NIvOPqucDkdriU4cI4BJCE4YhYuHHcFZH5yxxqYvo7Q+nbVJbPqpdmCmGJzrsx6rnINGa6tncy7+24jolLsvyMxXOTVGa9lACA0LYAqCE0bh4kFHcFaDk9hMMzYJTr/UDkyC0/5obf/N4/Lg/FIWnOVVzpXo/KKj0VpWOdGMAKYgOGEwrh50roLzaCDBSWzqxabG8SfF2CQ4/VI7MFMNzvWZqeis2UBo8d+Hj9bKPV8WuedLy1VOjdFaNhBCSwKYgOCEwbh6yBGcS32NzbiPPyE2sebLlweBmXJ0Dg3OMaO1QzcQyoKzEJ15cI4arf3MtNHalrM5ta8dhimACQhOGITLhxzBmXmyLjYHBCexaej4E1exSXB6rXZYph6c6zNLo7UjNxCS+/9c5L4/E7n3yyL3fimLznsuELn7T7PgvOuPRe78o8w75tF5+xdFbvtC5q1/IHLr50Vu+ZzIoc+K3Pz7Ijd/JvPg74nc9GmRG39X5MZPZV7/ibm/I3LdxzO//7G5vyVy7W+KXPMbIlf/usjVv5ZF51VrC7WvHYYpwFQIThiEywccwZnF5skJsWnsrE2DsZnqWZt7rG5GoXZYEpxHZKtlGsT12Zxy/5/XROcF9dG5CM5CdObBeevns+AsRufBmui84ZPL4Myj88BvZ8F57Tw4K9FJcOI0AaZCcEJvXD/gUg9Ob2Jz8u82OWtz7Cgtwemf2mFJcI4LTlujtXL//1cKzkJ0LoKzFJ131ETnLYVVzkOfra5y3vTp5SrnDZ+srnKWo3MRnKvRqX3tMFwBpkBwQm9cP9xSDk6zsam5SdDw2Gw8a5PYRGW1o5LoXGpulbPgxvDRWnngKzXR+aX20dryKudtX1iucpZHa1tXOT9RXeXsGK3Vvm4YrgBTIDihFxoPt1SDM57YrP5uc1xsmhqlDSs2CU7/1A5KgnNpflSU2bM5h4/WrgSnzdHaxSrntNFa7euGYQswFoITeqHxYEsxOGOOTV9+t+nzWZsEp9/K99a8Vvv1ca3Z0dpCfG7Un81ZF53y4F80rHJ+uWaV809WNxDKR2uLGwjdMmADoRvGjdZqXzcMV4CxEJzQidaDLfrgLP1/4YnN8GLT9PEnxKbfagclwblq+yqnm9HaRXAOHa2tW+V0NFqrfd0wbAHGQHBCJ1oPtZSC0+fYjPv4k/1qcLo6/qQlNglOP9UOSqJz1c0hwWlgtLZulVMe+q/VVc77/7y6gdA9F/TfQOjW8gZCv1+zgdD40Vrt64ZhCzAGghNa0XyopRKcxKZHx58Qm9igdkgSnPVaW+XsOVorD/3X+ugccjanzdHayirnr6tfMwxfgKEQnNCK5gMtheBsjM0BwTkqNo8Tm7bO2uyMTYIzSLVDkuCsN1/ltD1a27SBUCU4H/iK2Q2ELIzWal8zDF+AoRCc0Ij2Ay324DQRm2pnbbbEZv2OtGnEJqub8aodkgRns/ZGa6tnc5ZHa+UH/7/ID+bR+dBfiDz4FZEH8tHaPxO578uZ935J5N4LRO75U5G7/2TuH4vc9Ucid85XOe/4Q5E7vihy+xdEbsuj83Mit3w289Dvixz6jMjNvydy8NOZN/2uyE2fErnxkyI3fELkht/JvP7jItf9tsiBeXB+/zdFvv+b6tcK4xFgCAQnNKL9MIs5OE+eDDg2K8E5/KxN07EZ+vEnuTsEp7dqhyTB2azVVc7Cc71uAyH54V+uRueDX1lG5wOF6Lz3S9XovGsenCvROQ/OuujMg7MYnTfNVznL0Xn9x1ej88BvEZxoVIAhEJxQi/aDbH0WUHBuDgvOkydPycmTJmPTrx1px521uZ/sWZvF2NzZ3VW/77Be7ZAkOts1H501GwjVjNauBOcPalY5K9F5QX10Nq1y3vb5zHJ03lyKzpXg/ER1lfPAxwhONC5AXwhOqEX7IbY+GxecRzwPzthjU3eU1mBsOjxrk9j0X+2AJDi7nRKcY0ZrF8H5o/9WXeUsRucDNkZrPzN6tFb7OmFcAvSF4IQK2g+w3NiCk9gM86xNV7FJcPqrXL4WlNqvl4Z5VGqM1soP/7IUnX9hfrS2zypnPlpbXuW8/uMiBz6mfo0wTgH6QHBCBe2HV25MwUls6sfm4ONP9tqD01xssrrpu9oBSXD20050tp/NebRulXPMaG3XKmc+WlvZQKhttHZ1lVP7+mCcAvSB4IQVtB9cRWMJTt9jM+7jT0bGpoOzNldXN9ksyGe1A5Lg7OfW9rTgHDtaKz/67+5Ha+s2EDr46dYNhLSvD8YrQBcEJ6yg/dAq6jw4N8wHZ2ts2j5rM/nYrBmldRWbg0ZpiU3f1Q5IorO/1kdrN+pHaxfBaWq0thyct3+h/wZCN1Y3EJodOSozD64PxilAFwQnLNB+YBWdzeIJzqmxaez4k9Rj09BZm2Zjk+D0Xe1wJDiHma9ydkfn2LM560dra1c5bY3W1p7N+ZnWDYQWn5MeXCOMU4A2CE5YoP2wKhpDcJofpZ0Qm5N/t9l11mb8sWljk6D8N5za9xs2qx2OBOdwp47W9tpAaB6dK6ucD/93kYf/m8iP/lLkh6XofOgrIg/OVzkf+DOR+7+ced+XRO67QOTePxW5508y7/6jzLv+i8idf5h5xxcyb89/z/k5kVs/K3LL74vc8pnMQ78ncvOnRQ7Og/Pgp0Ru+mTpc1L/+mCcArRBcIKI+BWb67Pwg9OH2DS3SVBXbFaD03RsxnbWJrEZjtrhSHAOt/8qp6XR2h/9ZWYenD+YB2cenQ8WovO+L2XeW4jOu/+4Gpx3frEUnDXReagUnQc/Vf9Z6cE1wjgFaILgBBEhOE0Gp++bBE3dkbYrNuuDc9+/szY9iE2C03+1w5HgHO7W9nYlOnsFp4HR2o2NzX6rnA/+ec0q5wWFVc4+0TkPzpXonAfnPDqbPiu1rxHGKUATBCeoP6DqnBScR/WCM/bY9GWUNuSzNonNsNQOR6JznE5WOdtGa/NVzj6jtfkq5301q5wr0fnFQaO17Z+X+tcI4xSgDoIT1B9OdYYYnCdPniQ2ic3esUlwhqF2NBKc46xb5bQ9Wls5m7McnMXR2nyVcyU6LzA2WtvrM9OD64TxCVAHwZk42g+mJkMLziw2TxKbirE5+PiTvfbgNBebe7WxSXD6r1yxFrTar5+2bkZr68/m7D1a27mB0PDR2v6fmfrXCOMUoAzBmTjaD6UmQwpO32Mz7uNPRsamieNPOmKzfNYmsRme2sFIcE5za8vRKmfhd51HS9GZrXaWo/MrVkZrjwz8vCQ60ZYAZQjOhNF+ILWpF5z9YvNon9gcEJzEpqHjT1zF5qBR2mpsEpxhqB2MBOd07Y7Wtm8gtBKddaO1xQ2EJo7WZp9nR8dFpwfXCeMToAjBmTDaD6M2x8Sm6+A0FZvGztpMPTYN7Ei7Z2h1s+13m8RmOGoHI9E53XyVc+rZnFNGazcKnxumR2tXP8+WO7WzyonaAhQhOBNF+0HUpe/BecK32Jz8u03O2nSxSRDBGZbasUhwTrccnBpnc240fI5MGa1t/kwbucpJdKIFAXIIzkTRfgh16XNwnjh5Uk54EJvmNgkaHpuNZ20Sm8RmRGrHIsFpRvvR2X+0tk158M9FHvwzkQe+LHL/l0Tuv0Dkvgt6f5YtHLXKyWgtmhcgh+BMEO0HUB99DU47senXjrTjYtPUKK2/sSk//4nIz/9O5MO/zfzgxyIf/ljkg78Ref9hkfcf7ozNnZ1d9XsL+6sdiwSnGfO4tDtaWz2bs220tt3559HQ0GSVEz0UQITgTBLth08fpwdn/w/nvsGZQmz68rtNn87alI9+0is25f0fibz3I5F3f9gYmwRnOGqHIsFpVp9Ha9uC03l0enCtMC4BRAjO5NB+8PTVt+AkNonNvrEp7/5A5N0fEJuBqx2KBKdZ61Y5u6Nz7Nmc00ZrzUTn2A2EiE40LwDBmRjaD52++hScIcRm3DvS7leD08HxJyuxmQdnbWw+XIlNeechkXceWonNnV2CMyS1Q5HoNOtWIS6dnc05j87yKiejtZiaAARnQmg/cIboS3ASm9qxqXPW5jI2f1Ifm8XgbIhNeedBkbcfIDYDVTsSCU7zjlvlZLQW0YSQNgRnQmg/bIboQ3B2xuaA4BwVm8eJTVtnbbbG5i/+vjpKm8dmeXVzEZs/rI1NefuBxUZC2vcUDlM7EglO85ZXOcvR2Ss4DYzWjl3ldD1aq329MC4hbQjORNB+0AxVOzhNxqbaWZstsVm/I20asdkWnLWx2TRK+17pd5vF2MyD8637Rd66X/1+wuHKlWvRqP1a+qRPo7X9gnNTb5WT0Vo0LKQLwZkI2g+ZoWoGZxSxWQnO4Wdtmo7NEI4/Gb1J0CI2H6rEphy+T/1+wuFqRyLBaceuVU7bo7U6GwgxWot+COlCcCaA9gNmjFrBaS82/dqRdtxZm/vNwZlybNaN0hZiUw7fq34/4TC1A5HgtKuR0dpeZ3NuVlY5TZzN6Xa0Vv96YVxCmhCcCaD9cBmjRnCmEpu6o7QGY9P08Scf/UTko78T+fnfZhZ/s/nBw5nv/2genIXYfPehzHceFHnngcy37xd5i9gMVe1AJDrtuhKcLkdrJ20gxGgtxiGkCcEZOdoPlrG6Ds4TJ4jNVM/aXAan+dgkOMNUOw4JTrtube84HK316WxORmvRDyE9CM7I0X6ojNVlcJ44cVJOnCA2Q43NKTvS9o7NPDiJzSTUjkOC075t0Tk2OF2P1k4JTkZrUVNID4IzcrQfKmN1FZyhxGbcx5/sV4PTwVmbu3t7sru7l8VmHpxTY5PgjELtOCQ47et2lTOSszmJTjQkpAfBGTHaD5QpugjOXrFp+6zN5GOzZnXTVWyWVzdXYvNviM2E1Y5DgtON06LT7NmczqNz1Cono7VoTkgLgjNitB8mU7QdnKZj09jxJ6nHpqGzNvvE5mJ1sxibnb/b7Bebcvge9XsIx6sdhwSnG7PAdDla2302p+vRWlY5UUtIC4IzUrQfJFO1GZzexubk3212nbUZf2wOGaXd3d0buEnQQ9XgbIhNgjNc5aq1aNV+bX2U0VpWOVFPSAeCM1K0HyJTtRWc6cZmNThNx2YIZ20Sm9ildhQSnG7tWuUcdDZncKO1YzcQIjrRjJAOBGeEaD9ATGgjOO3Gpl870nbFZn1w7vt31qal2FwE59jjT1piU968W/3+wfFqRyHB6dY8LtXO5jQxWssGQhiwkAYEZ4RoPzxMaDo4U4pNX0ZpfTtr01hsmW2DNQAAIABJREFU1hx/QmzGo3YUEpzu7bvKyWgtq5xoXkgDgjMytB8cprQRnMQmsbkIzsUmQX8j8mF+/MmPMt//och7P8hcjNIWYvOd+0Xevk/krXuXHr5H5PDdIm/epX7v4DS1o5DgdO9ilVNltLZ6NufivwUwWqt97TAOIX4IzsjQfmiY0mRwhnLWZgqxOfj4k7324BwTm8vgLMbmw8Nisxichdjc2dlVv3dwmtpRSHDqWBucHozW9gtORmsxbCF+CM6I0H5gmNRUcIYSm3EffzIyNk0cf9Iam6XVzT6xWV7dzGOT1c1o1I5CglPHIauc5qKzZgOhxX9ntBbTEuKG4IwI7YeFSU0Ep+nfbRKbho4/cRWbvVc357GZB+eg2Fyubsobd6rfNzhN7SAkOnU1Plrb62zO5tHaKWdzuh2t1b92GL4QNwRnJGg/KEw7NTi9Pf4k9dg0sCPt3oTVzSw4W363WYzNRXASm6moHYMEp646q5z1K56M1mKKQrwQnJGg/ZAw7ZTgPHHihJ+xOfl3m11nbcYfm1NGafvH5kODY5PgjEPtGCQ4dd3a3vFntFbtbM4NzuZENSFeCM4I0H5A2HBscGax2RGaDmPT3CZBXbFZDU7TsRniWZvV4DQcm6xuRqVcvRa92q+x7y6Dsz06xwan69HaKaucjNaihhAnBGcEaD8cbDgmOO3Gpl870nbFpt3VzTBjc3d3b8DxJ/1jU16/Q/1+QTNqxyDBqa/eKidncyKuzwjOWCE4A0f7wWDLocGZUmz6Mkrr+1mb42PzgUGxSXDGo3YMEpx+aC46x57NyWgtpi3EB8EZONoPBVsOCU5ik9jsis2d3b1lbH7wQ5H3f5D53kOZ7z4o8u4Dme/cL/LOfSJv35v51r0ibxVi8/BdIm/emfkGsRmT2jFIdPrhanC6Hq3tPpvT9WgtGwihayE+CM6A0X4g2LRvcIYUm7HsSNsWm76ctdkcnD1jMw/OjtiU129Xv1fQnNohSHD6YRacjNYyWouaQlwQnAGj/TCwaZ/gJDbdx6Z3Z20aj83762Pz8N3EZuRqRyDB6ZdjorNXcBoYrQ3jbE6iE6cJcUFwBor2g8C2XcHZOzYHBCex6c/xJ71is+co7c7ubhabeXAOic1FcJZi843bCc7I1I5AgtMvq8G5vRqcWw7P5jQxWsvZnBigEA8EZ6BoPwRs2xacNmJT7azNlthM9azNPUOrm3lsLoKzEpsPEpu4UDsCCU7/9HG0Vm0DIUZrUUGIB4IzQLQfAC5sCs6oYrMSnJy1aXKToDw2d3b3VmOzuLrZJzbz4CzEprx+m/o9gmbVjkCC0z+Xwak9Wls9mzOk0Vrt64hhC3FAcAaI9s3vwrrgtB+bmjvSDo/N+uDcbw7OlGOzbpS2KzbfbI5NgjM+5Zq1ZNR+rUOyMzhdjtZO2kCI0VoMU4gDgjNAtG9+F5aDM+7YrP5uc1xsmhqljSc2K6ubTcefEJvJqx2BRKefjl3lNBedNRsIMVqLCQlxQHAGhvaN78picKYWm778bjPEszbLsbmzu9czNruPP8ljU167Vf3+QPNqByDB6af1wen6bM7m0VqtszmHR6f+tcRwhfAhOAND+6Z3ZR6cxGYcsWn7+JOdleDcqwZnU2z2PGuT2Ixb7fgjOP1Wf5XT5Git4ion0YkjhfAhOANC+4Z36Wx2JLjYjPv4k/1qcHp21mZtbL7/kMh7D4q898A8OO/PXAnOe0TeKm0QdPhOkTfzUdp5bL5+q8hrt6jfG2he7fgjOP12NTg9Gq0tbCDkPDpHbiDEaC2OFcKG4AwI7ZvdpYNik7M23R9/4io2B43S7tWsbvaJzUJwlmNzEZzEZsxqxx/B6b+M1rLKibpC2BCcgaB9o7v0uE+xeZzYtHXWpu3YzILzgebYfHtYbBKc8aodfwSn//qxyll/Nmdwo7UeXE8MUwgXgjMQtG9yV/aOzFDO2myJzfodaeOPTdubBK0Ep4nYXATnIfX7A+2oHX8EZxjaic6xZ3P6MFo7/mxOohPHCOFCcAaA9g3uyuhisxKcw8/aNB2bMR9/Mjo2D9/VEJu3EZuJqB1/RGcYNgdn6VxOQ6O1vTYQmkdneZWT0VqMVQgTgjMAtG9uF7qJTb92pB131uY+Z232iM2dnV2jsUlwxq12+BGcYbhdCU5GaxmtRddCmBCcnqN9Y7swxdj0ZZQ2lrM2y7G5CM6+sdmwIy2xmYZy7VqSar/uIVoNzmHR2Ss4DYzWjl3ldD1aq309MUwhPAhOz9G+qW1LbBKbNmJzZ3e3FJs1x58cbj/+ZBGcr96sfp+gPbWjj+AMy0GrnFsOz+ZsGK3tF5ybnM2JQQnhQXB6jPYNbVti08/YHHz8yV57cJqLzfYdaSuxOeGsTWIzHbWjj+AMT99Ha9XO5mS0Fh0KYUFweoz2zWzTEGMz7uNPRsamieNPOmKzz/EnxdisrG7msdm0I21LbBKc8asdfQRneLYHp9ZordmzOd2O1upfUwxPCAuC01O0b2SbDo5N22dtJh+bNaO0rmLTwFmb5djc2d0txeawszbz323KqzeLvHJQ/X5Bu2pHH8EZpt6O1k7aQIjRWgxLCAeC01O0b2Jb2oxNY8efpB6bBnak3TO0utn7d5u7dcFJbGK32tGnrfbrH6rb2zsejdb6dDYno7XoTggHgtNDtG9gWwYRm5N/t9l11mb8sel8k6DduuC8Z+7dIm8VNgg6fIfIm7dnvjGPzddvFXm9EJuv3Szy6kGRVwnOFNQOPm21X/9Q7Q7O9ugcG5yuR2unBCejtehCCAOC00O0b15b+hqb5jYJ6orNanCajs3UztrsFZuL4CzF5iI4ic2U1Q4+bbVf/5D1a5UzkrM5iU4cKIQBwekh2jevDUPcJGjqjrRdsVkfnPuGVjfTjM3tnV0jsSmv3KR+z6B9tWPPB7WvQcjmwelPdHo2WjvybE5Ga3GIEAYEp2do37g2TDE2fRmljf2szXJsZsFZE5t5cJZjcxGcq7FJcKahduz5oPY1CF3/RmurZ3Nqj9ayyom2Bf8hOD1D+6Y1LbFJbLqIzTw4d3Z2S7F5J7GJjWrHng9qX4PQ9W+VM5LRWg+uLYYj+A/B6RHaN6xpiU0/YzOWszbrYnMRnBNiU16+Qf3eQTdqx54Pal+D0C0Gp73oHHs2pw+jtWM3ECI6cZjgNwSnR2jfrCYNMTbjPv4k4dhc2ZH2lvrfbRKbSSoH1vAA0TnVfsFZOpfT5dmc8+gsr3IyWosxCX5DcHqC9o1qUpvHnxCbho4/cRWbg0Zpx8XmSnBOis0bCc7E1A49X9S+DqHrZpWT0VrELsFfCE5P0L5JTRnEWZsGYzPVszb3DK1uTt2Rthiby+AkNrGf2qHni9rXIQbbg3NYdPYKTgOjtWNXOV2P1mpfWwxH8BeC0wO0b1BTBhGbk3+3yVmbvhx/Uo7NLDiHH3+SxybBmZbakeeT2tciBkevcnowWtsvODc5mxODEPyE4PQA7ZvThO5iU3OToOGx2XjWJrFpLzYP3y7y5m2Zb+Srm4cy89h87aDIqzeJvLKMTXn5evX7CN2pHXk+qX0tYjGk0Vq1szkZrUXLgp8QnMpo35gmTCM2q7/bHBebpkZpE4jNlrM2y7G5s7NDbOIgtSPPJ7WvRSz2D06Do7W9zubcrKxymjib0+1orf71xXAE/yA4ldG+Kaeaamz68rvNVM/aLMfmzs5OQ2zeUh+br960EpsEZ3pqR55Pal+LWNze2QljtHbSBkKM1qL/gn8QnIpo35BTJTbjik3bx5/srASnqdjMgnN7Z2c1Nt8gNrFd7cjzTe3rEYuTotPqaK1PZ3MyWov2Bb8gOBXRvhmnGGpsxn38yX41OCM8a7MuNhfBWRebr93cGpvy0nXq9xO6VzvwfFP7esTisOBsj86xwel6tHZKcDJai7YEvyA4FdG+GcdKbPoYm3GftTkqNhfBWRebN0Qdm3LdWq3af5dPNr1Gqap9PWLS31XOSM7mJDqxh+AXBKcS2jfiWEfF5oDgHBWbx4lNW2dt+hCbTb/b3C4GZ5/YLG0SJC9dJ/LiAfV7ytiHK3Fh5bVKRe1rEpN1wWkvOs2ezek8OkeezcloLfYR/IHgVEL7Jhyj7dhUO2uzJTbrd6RNIzZ9Pf6kHJvbO7v1O9L2iM1YgpPAsP96xa72NYlNv0dru8/mdD1ayyon2hD8geBUQPsGHGO0sVkJzuFnbZqOzeSOP5kUm/PgHHD8ibx8ffKxmXpoaMedj2pfk9hcPJ8YrWUDIVQV/IDgVED75huq29j0a0facWdt7nPWpsPYzFY457H5+nxl87WDIq/dJPLqjSKv3JC52CTowNzvq99bkz9IiQ3V1y0mta9JbPYPzmHR2Ss4gxutHbuBENGJ3YIfEJyO0b7xhppybOqO0hqMzYDO2myLzbpR2u2dXdne3pkHJ7FJbLh/7WJS+7rE5vBVztK5nC7P5jQxWssGQuipoA/B6Rjtm26IxKb+7zZTis2+O9KuxOZidbMUm6/d1Bqb8mLYwUls+Pf6xaD2dYnNlWcWo7WM1qKaoA/B6RDtG26IxKbfsTn4+JO99uA0F5t2jz8px+b29k6/2Hz5OmKT4LD++oWu9rWJ0XBGa6tncy7+WwCjtdrXGf0XdCE4HaJ9s/U15NiM+/iTkbFp4viTjth0cdZmXWyuBmcpNhfBuRqb8uK16vfYpA9NgsPb1y90ta9NjBpZ5fRgtLZfcDJai/4KuhCcjtC+0fo6OjZtn7WZfGzWjNK6ik1Pztqsi83t7Z3+sflSFpvywjXq99noD0yiI4jXMFS1r02s+j9aW7OB0OK/M1qL8Qh6EJyO0L7J+ugiNo0df5J6bBo6a9NsbDYEp8XY3N7ZWcZmZZOg60q/2ww7NtdnR0SuX3Oi9r8zhtcwRLWvTayOC06Do7W9zuZsHq2dcjan29Fa/WuNfgt6EJwO0L7B+hhUbE7+3WbXWZvxx2ZYx5+0xWbTjrT1sRlycBIe4b2Ooal9bWK1cpyTl6uc9SuejNZibIIOBKcDtG+uLkOITXObBHXFZjU4TccmZ22OO2uz/CVtsbrZcfyJvHgtq5vEh8prGKLa1yhWbUWnPHVZ5pOXijx5icgTF4s8flHmY98Veew7Io9+O8CzOTc4mxOtCDoQnA7QvrnadB+bfu1I2xWb9cG5799ZmwnG5vbOTo/YLKxuPn+1+v02+gOS8Aj2dQxN7WsUq+ODszk65enLRZ763jI4n7hkNTrz4HzsOyKPfEvkkW+pjdZOWeVktBZNCjoQnJbRvrHaTD02fRmlTemszbbYHDJKu72TfSmTV2/IfOX6zJcPZOabBL10rciL14i8cLXICwRn6vGhHXMhqH2NYtbkKqc8c0UWnHXR+cTF1eh89Nvz6PymyM8u5GxOTFpwD8FpGe2bqklik9h0HZtTjz8pxuZKcBKbxEcAr2Uoal+jmO0Kzr7RKc9eOfcKkWcuF3n6eyJPXzaPzvkq55MXizxxUebj81XOx74t8ug8Oh+5UOSRCxmtxSQF9xCcFtG+oZokNv2PzcHHn+y1B6e52NQ5a7M7Nq+rj81FcF6lft+N/mAkPqJ4LUNR+xrFbPUnA8NHa+X5q0Weu6o+Op+6TOSpS5djtXl0Pv7deXTOg7NXdHafzel6tJYNhNCk4BaC0yLaN1OTIcdm3MefjIxNE8efdMSmibM2TcbmSnASmwRIIK9lCGpfp9idEp3y/DUiz12dRWc5OJ+5fLnKWYzOxSpnKToLwSk/+wajtZic4BaC0xLaN1KTLlY3iU1Dx5+4is1Bo7TjYnPq8Sfl2Nza3ukdm/L8ler33egPRAIkqtcyBLWvU+yOC84sOuWFa5fR2bTK+XQhOIujtYvgbI5O+enXB43WhnE2J9GJzYI7CE5LaN9EdYZw/ImN2Ez1rM09Q6ub2mdt1sXm9vbOMjYXwVmOzauDjs31mT+RpP06xPRahqD2tYrdMdEpL34/C84Xrl2uchajc7HKOXK0dh6c1eg0PFrL2ZzokeAOgtMC2jdQnUHF5uTfbXLWZljHnwyPzSw4u2Mz5OCUG9a8Ufu1iO319F3taxW72fOuf3TKS9eJvHhgGZ29VjkL0flk/9HaLDq/1jlaq7aBEKO1aFhwA8FpAe2bp2wIsWluk6Dhsdl41iax6cVZm71is7QjbR6b8twV6vff6A9BD8IjpgjRfv1CUvtapeC44DywXOXsis6V4Bw+Wrsanc1nc4Y0Wqt9zdFPwQ0Ep2G0b5yyqe9IOy42TY3SJhCbA8/aNBGbW3lwNhx/EkNsrs/8CyTt1yOm19J3ta9XCg5Z5ZSXr29e5VwZrb3C6Ght/Urn1A2EGK1F/wT7EJyG0b5piqYem778bpOzNrPYnDJKW/n/+L/8/cxibL643CRInr9C5Plwg1M7OGKLEO3XLjS1r1cKLp9/7dEpL9+QBefL1y9XOR2O1so/fbV5AyFGazESwT4Ep2G0b5pcYjPO2HRz1qbp2Jz2u826TTRWYvPFa6KKzfWZv4Gk/brE9nr6qvb1SsVewflKITjLq5yORmur0VkdrdU6m3N4dOpfd/RPsA/BaRDtGyY39NiM+/iT/WpwctbmoNjc2t6e/26zOTblucvV78NJH34eREdMIaL9uoWm9vVKxa5VTnntJpFXb8yi85V5dL58nchL8+h88VqRF67Jxmqfv1rk+atEnpsH57OXZz4zX+l8+lKRp+bB+eTFIk9eJPJEYZXzsW9lPnKhyKMXijzyDZGffT3zp18V+elXDY/WKq5yEp1YI9iF4DSI9s2yPiM2/Y5NxbM2A4zNrYbYzIKzJjZfuJLYJEaCez19Vfu6pWJjcO7siLw6D86V6JwHZ210zoOzGJ2L4CxFZz5aW47OR79ZE51fy6Lzn/6682xO59HJ2ZxoSLALwWkI7RtlfTYxNgcE56jYPE5s2jprszM2B43SjotNW8ef1B5+3hGb8uz31O/FSR96HsRGTCGi/XqFqvZ1S8W2VU557eAyOvPgfKVmlbNvdD51aRaci5XOQnA+/p3lKuej38yC89ELC6ucXyuscvo3WssqJ5oQ7EFwGkL7JnEVm2pnbbbEZv2OtGnEZjjHn5iJza3t7dVNgmpik+AkREJ6PX1V+7qlZF10yus3Z8H52sHho7Xl4GwbrR26ylkerd0IeLTWg2uPfgn2IDgNoH2DRB+bleAcftam6dhM7vgThbM262Jza3u7PjafvyKO2LxxLQi1X6cYX1Pf1L5uKVkfnIeW0Wl6tLa4yrnYtfY71eh8NJTR2vFncxKdWBbsQHAaQPPG0IlNv3akHXfW5j5nbQYYm9kKZ3NsyrOXqX9YTfqg8yA0YooR7dcpZLWvXUquTIDkwfnGodXoLK9yNo3WljcQahut7dpAKI/OlQ2EitG5VRmtLa9yMlqLoQl2IDgnonlTEJvao7QGY3PP09isCU7N2Nza3p7vRhtfbK7Pwgok7dcqttfTN7WvXWoWo1PevFXkjVtKwTl0tLYmOJ+93NwGQuXoZLQWIxLMQ3BOROtmIDa1Y9PeWZs+x6br408qsVk+/qQQm6EHp3ZgxBgk2q9R6Gpfv5TcKTwzF8FZjs6V0drra0ZrJ2wg9ER5A6F+o7Xyv/+qdbR27Cqn69Fa7euPfgnmITgnonEjEJvxxqbt4092VoIzrNjc2tqW8lmbscTm+iy8ONJ+vWJ8TX1T+/ql5iI4D99WiM6O0dq+Z3M+d2V1AyGHo7X9gnOTsznRC8E8BOcENG6CGGIz7uNP9qvB2Sc2OWuzMzaz4KyPTXnmUvUPqMkfcB4ERkxBov3axKD2NUzNfJVzEZyHbxV5cx6db9ws8vrBzFdvFHntRpFXi7/nPJD5Uv57zvlu3oupkCtFnis8O5+5LPPpS0WevkTkqXlwPnmRyJPfFXniOyKPf1vk8W+JPFZY5Xz0GyKPzFc5f/bVzJ/Wj9aqnc3JaC0aEMyypv0HhIzrN//k2BwQnMSmoeNPXMVmZGdt1sXm1ta2yAtXiDx/uchz89h87jKRZy8VeeYS9Q+nyR9uHgRGTEGi/drEoPY1TFF56w6Rt27PojMPzjw6X59HZ77KWQzOV65bDc6XWqLz2UJ05sG5Ep3z4OwbnT/9a5F/+qvKKqeJszndjtbqX3/0RzALwTkS1298l7Fp7PiT1GPT0FmbZmOzITh9jc1ycBZj81li0we1X7sYX1Nf1L6GKboIzrdur1nlPLRc5XztpppVzusaVjnno7XFVc7naqLzqYur0ZkH50p0zoOzLTonbSDEaC36IZhjTfsPCBWXb/ggY3Py7za7ztqMPzbDOv7EYWwugvNSkWcuEXnmYvUPpckfah7ERUxRov2axKL2dUxRefvO1VXON0urnG+UVjlXovO6/qO1z1oYrf2n9g2EGK3F0ARzrGn/ASHi8s1ObNbFZjU4TccmZ23qH39SjM2tre2G2Ax/dXN9Fn4gab9+sb2evqh9HVM1i87bq6O1i1XOm5tXOdtGa58Pd7R2SnAyWotTBDOsaf8BIeLqTa4Xm37tSNsVm/XBue/fWZvE5ujY3MyDM4/NiFY312dHRG5aC1rt1y+m19I3ta9nitaucjZtIKQxWlsOzke+vrKB0CI6Qz6bk+jEuWCGNe0/IDRcvcGJTb9+t5nSWZttsTl0lNZUbG5ubVc2CZJnLhZ5+iL1D6PJH2YeREVMYaL9OsSm9vVM1Up0ljcQsjZaW17lHDhau7LK6clo7cizORmtxVyYzpr2HxAaLt7YxCaxqRWbPpy1WReb2QrnZaXYZHXTJ7Vfx9heT1/Uvp6puhKctkdr61Y5G0dryxsIXdi9gZAno7WscuJYYTpr2n9AaNh+UxOb4cTm4ONP9tqD01xs+nXWpq3YjGF1c30WVyDxWsan9jVNWbujtVdWR2vrNhBqGq3tcTZnFKO1HrwPUF+Yzpr2HxAStt/QscRm3MefjIxNE8efdMSmibM2Tcdm/Y60w2IzG6e9NMrYXJ/FFUm8lvGpfU1TVt6+s3u0tnw2Z9tobd+zOZtGa0dvIOTDaO3YDYSITsyEaaxp/wEhYfONbCQ2BwQnsWno+BNXsTlolHZcbKodf9IRm5tb25XYlKe+q/7hY+QDzIOgiCVQtP/dsap9j6SsvHuXyDt3irx9h8jbt2e+VYzOQ5mLlc7CKuer12cuonMenC9dK/Li1ZkvXCXyQh6d81XOfHO2Zy7NnrtPz5+7T81XOZ/8jsgT3xZ5Yj5a+/g3RR6bB+ejX8985Gsij3xV5Gd/LfLT6mhteZWT0VoMQZjGmvYfEAo238SuY9PY8Sepx6aBHWn3DK1uxnLWZl1sZsF58dyLRJ6OIzbXZ3FGEq9lfGrfJym7Ep1vFYLz8K0ih29ZBucbB1ej87WW6HzxmtXgfOFKkeeLu9ZeVo3Opy6aW47OeXAWo/ORwmhtMToZrcXAhfGsaf8BoWDrzRtsbE7+3WbXWZvxx2ZYx58Mj82ho7RNsbkMziw25anvqH/oGPvw8iAmYggU7X9v7GrfJym7CM7iSmdxlbMYnSvBeeNqcL6Sj9bOVzlfuqa6yvl8YQOhleC8pLrK2RSdj32jZZWzfrR27Cqn69Fa7fcC6gvjWdP+A0LA1hs3tNg0t0lQV2wOOGtzZGxy1qafZ232iU2C0395HeNS+z5J3drR2sO3ThutzVc5PRqt7Recm5zNiarCONa0/4AQsPGG1Y1Nv3akHRebplY3iU2fYzMLzjhjc30WdyjxGsaj9n2SuvLu3cNHa/NVzpXR2gP9R2vzVc4xo7WP9R+tVTubk9FaHCmMY037D/AdW29YYtOv322mdNZmW2xqH3/SHZzfVv+wMfah5UFIxBAq2v/GFNS+V1J3JTjfubN+A6Gm0dryKucrpQ2ETI3WPj5ktNbs2ZxuR2v13w+oLwxnTfsP8B0bb1Rik9jUik2fz9psDM4IY3N9lk4o8RqGr/a9gjWrnK2jtQcnjtZe0W+0trLK+a3qBkIrK52l6Jy0gRCjtah4P8Jg1rT/AN8x/SaNJTZj2ZG2LTY5a1M/Nje3thexGV1wHlxLRl6/8NW+X1I3C867VzcQeqtllfON0gZC+WhtcQOhMaO1T08crf3pX1VHa9XO5mS0FkfejzCYNe0/wGdMv0GJTb9i07uzNgOMzfrjT0zHZnyrm+uz9IKJ1y5ste8X7DlaO/ZszrbR2soqZ9No7bdUR2unBCejtTj4foRBrGn/AT5j8o3pepOgUbF5nNi0ddZmZ2wOGqUdF5tqZ22OjM2V1c0nv6X+4WL0g8qDgAg1WrT/Damqfc9gYZWzPFpb3EDozYlnc9ocrY3tbE6iM2lhGGvaf4CvmHxThnb8yeizNltiM9WzNvcMrW76etZmZ2wOOGuz/veb3xZ56lsiT35T/cPF6AeVBwERYrho/+0pq33P4PweGDpaWz6bs220trzK2Thae0l1tLbv2ZyV33J6Mlo78mxORmvTFvqzpv0H+IqpN2MysVkJzuFnbZqOTY4/MXD8SUts2hylzdyKMjbXZ4TTkIDR/jtx2PVCy8+O9+5p3kDI+WhtzdmcTaO1I8/mdD1ayyonDrofoTdr2n+Aj5h6I+rGpuaOtMNjsz4495uDk9iM6qzNttgkOOOX18d/te8ZnN8b790j8t7dme/eJfLunSLvFEZr37o18/AtIocPibw5H63NNxF6fb7K+dr1ma8Wjkp5uRCcL169usr5/OWZ+Srns5cWovOizKfmO4o/OV/lfOKbIo9fmJmvcj46D855dFZWOUMcrfXgfYGK9yT0Yk37D/ARE2/AdGOz+rvNcbFpapQ2gdgceNZmCLG5ubUVbWyuzwgqDFPt+yZVK9cij858lbMuOg/fUo3OPDhfvzFb4SwGZzk6X7pa5MWrqtGZr3LmwVmOzie/0x6djxWj869FfubTaO3YDYSIzpSFfqwsSMKyAAAgAElEQVRp/wG+YeLNR2z6t0kQZ236f/xJMTYXwfnEheofJsY/nDwIB8Qxat87KVp7Ld67ZzU6i8FZjs43D9VHZ/5bzrpVzpevXa5yrkTn5cvofO6y0irnxctVzieLwTkfrS2uchaj82fF6DQ0WssGQuj6PoVO1rT/AN+Y+qYjNuOPTdvHn+ysBGeasbm5tRVlbK7PCE4MV+17JzVbr8ek0dobB4zWtq1yXjZutPYxRmsxLqGbNe0/wDemvOFiis24jz/ZrwYnZ216FZubm1siT3xD/UPEygfTzWuIQap976Rk5/V4/16Lo7XX9hutLa5yFqMzX+UsRufjfUdrq2dzLv5bAKO12u8bVLpfoZM17T/AJ6a82YzF5oDgJDYNHX/iKjY5a7NfcG5mq5sEJ6Jfat87qdj7mnSO1t5aHa2t20CoabS2uIHQi1dVNxDqGq19atho7WKVs2W0tl9wMlqLCvcttLKm/Qf4xNg3WTCxeZzYtHXWZtKxOfGszXJs5mp/eFj7UPIgHBDHqH3vpOCga1Jc5Wwbra1b5WwarR21gdBlhkZrazYQygOU0Vr0XGhnTfsP8IWxbzCN2FQ7a7MlNut3pI0/NsM6/iSc2NyINDi1gwFxqtr3UOwOuh7v39s8WmtyAyGHo7VZXNaP1k45m9PtaK3++wiV7l9oZE37D/CFMW+spGKzEpzDz9o0HZvJHX8S4VmbKcXm+ozgxPDVvodidtQ1WQRnw2hteQOhttHaPmdzGhmtvbA6Wlu3gdDm1A2EGK1Fx/cwNLKm/Qf4wJg3lX5s+rUj7bizNvc5a5PYrMQmwYnor9r3UMyOuiblVc737h6/gVAenaPP5rzMyGhtMTT1z+bc4GxOHHYfQy1r2n+ADwx9MxGbfv5uM6WzNttis3GUNpDYJDgR/VX7HorVSdflg3tF3r8n8727Rd4rrHK+c3vm2/lK5zw4Dx8SOXyzyJsHRd7Io7OwyvnadSKvHhB55fsir1yb+fI8Ol+6SuTFKzNfyFc656ucz10q8uwlmc9cLPLMRSJPz4Pzqe+IPPmtzCe+Od8c7sIsOB/7ushjXxN51O5o7ZRVTkZrsde9DLWsaf8BPjDkjURsEpvasRnb8SepxOb6jODE8NW+h2J10nX58L5CdN5dH51v3yby9q2Zi+icB2ef6Hy5GJyF6MyD84Wa6Hzm4pro/HY1OB//xjI6H/1qITo5mxPDE+pZ0/4DtBnyJiI2w4vNwcef7LUHZzE25Vf/Y+4/iPzH32f++0/m/p3Iv/1t5r/+WORff1yKTc7arIvNmINTOxQQTah9H8WokWvzwb2l6JwH57t3irx7R3WVsxydb9wk8saNmYvonAdncaWz1yrnZdVVzmcuWq5ytkZn3Sono7UYllBlTfsP0Kbvmye22Iz7+JORsdnz+BP5P/+zIzYLwTmPTfmXvxH5l4eNHH9iOjbrd6Q1HZtpj9KuzwhOjEfteyk2jVyXD+7TH60dusrZa7S2+2xO16O1bCCEnfc0VFjT/gM06fvGMRqbA4KT2DR0/Imh2JT/8z+XDonNQnDKvzws8ssfhXfWpoPY3NjcVP+QsPoBdGgNMQq176WYNHZdPrzf3GjtGwNGa8urnC9cvlzlXInOiwaM1n5tMVq78hnBaC0GJKyypv0HaNLnDaMVm8aOP0k9Ng3sSJvF5j82x2bdKG1LbHYGp2+xafGszVRWN9dnBCfGo/a9FJNGr02+yplH53sTR2vLwTl4tPbS9g2EDI3WhnE2J9GZmrDKmvYfoEWfN0vwsTn5d5tdZ23GH5vyn/+rPjZ7/m6zLjbln38o8s8/8CI2h47S2orN2Fc312cEJ8aj9r0Uk0avTWWVs2O09u2Jo7XlDYRevHLcBkLF6CxuIDSPzvJnhZHRWs7mRBf3NyxY0/4DtOh6k4Qam+Y2CeqKzWpwmo5N7bM262Oz/yZBbbEpv3hI5BcPJX3WZvlwb+0PBqsfOh5EAqIpte+nWLRyfbpGa9/tO1pb3kCobbS2YwMhi6O1ahsIMVqLfe5xWLCm/Qdo0fYG8SM2/dqRtis264Nz39DqplJs/uc/ivxn/rvN/5H5q38Q+dXfZ/7HTzLz2Pz3vxX5tx9n/mshNv/lR5m//KHIL3+QBec/PyTyzw8Rm/MvC9ofCtY/dDyIBESTat9TMWjl2nx4v9nR2rrgfPWA2bM5e0Rn8f85WXc2Z0ijtdrvO3R4j8OCNe0/QIO2Nwex6e/vNl2dtekqNuUXD4r84oHa4GyLzaCOP+kRm7Gvbq7PCE6MT+17KgatXJufPyDy8/kq54f3inxwT2Z+VMp7heB89/bVVc63DmXmq5xvFqLz9eszX7tO5LUDIq8Wfsv58tWZL10l8tKVIi/Od6x94XKRF74n8vxlWXQ+d4nIsxfPvUjkme+KPD0Pzqe+lflkHp3fEHn863O/JvJYzWjtpA2EGK1FR/c5iAjBuSKxSWy6jk35xQNJnrWZUmyuzwhOjE/teyoGrV2fn99fjc73765G57u3i7xT+C1nHp2L0drS2ZyL6JyvcpajMw/OleicB2c5OvPR2jw6n/72MjifvHA1Oh8rBmfNBkKM1qLHQsaa9h/gmqY3BLEZZmyaPP5kcGwufrdZF5sP94pN+eh+kY/uSzY2CU7EMNW+p0LX6vUprnJ+cG8pOufB+d6dy1XOleg8tIzOwz1XOV+5VuSVHtGZB+dipbMYnB3R+XhddFZHa7XO5hwenfrvQXR4vwPBuT6LMzbjPv5EOTaLq5vF2Cyvbuax+cu22FwNThuxWX/8ienY7H/WZmqxuT4jODE+te+p0LV+jYaM1r5zW3W0triBkMpobTk4v14zVmtitFZxlZPoTEYgOM3H5oDgJDYNHX9iMjaLwdk3NutGaX/5w8LqZntsys/v1T9rUyE2Nzbi3yxofXZE5JY1xOjUvq9C1/o1+uiB5WhtZZXz7uUq59jR2kVwFlc67Y/W1oVm3QZCzqOTszmx7X6HtIKz7k3gx+pmz9g8bjc20z1r8x+rq5vF2Jz0u81ibD5YG5vy83tFPrxHLzYdnrVZ/oKg/SHg5IPGgzhAtKH2vRWqzq5RebS2uMr5fs0GQr6M1hY3EMqjs7CBUPUzxZ/RWlY5sfG+T5w17T/AJeWLH3xsTv7dJmdt1o7S/uofDG0S9FB1dbMhNuXDe8Yff9ISm0NHaYlNCx8yHoQBog21761QdXaNPnpw3AZCxkZry8HZMlr7TM1obecqZ/3ZnMGN1nrwnkQH933irGn/AS4pXng/YlNzk6DhsTn4rM0QY9PmjrQtsSkf3h35WZvV/6798Hf2IeNBGCDaUPveClVn1+ijB5ejtV0bCHWN1h62MVp7SXW0ts8GQt6O1o4/m5PojN/UWdP+A1ySX3Ris/q7zXGxaWqUViE2/+//Evm/hd9t/mdNbP7qJ5n/8XdZaOax+e8/Fvm3vxH514cz89j8l8ImQb/MVzcfXP5u8xfz2PxoHps/vyfzw7tFPrgr4tisBqf2g9/ph4wHYYBoQ+17K1SdXqePHmzfQMjWaG15A6G20do+Z3M+ubqBUO0qZ2G0trzKyWgtaps6a9p/gCvyC05sVmPTl99tujprMwtO7di8dyU25cO7RD64M+rjT4rjTtoPfmcfMB5EAaItte+vUHV6nYqrnLZHa3ufzXl5vw2EGK3FyEyZNe0/wBXrM2IzpdhsX900FJuL4BwQmx81x2YWnMRmTGoHAaJtte+x0FS5Tnl0fnS/yM/nwfnh/CcdH8xXOd+fj9a+N4/Od28TeedWkbdvyXzrkMhb81XOwzeJvHljZh6cr89XOV87IPLqtZmvXCPyytUiL18l8vKVmS9dIfLi5SIvfk/khctEnr80C87nLxF5br7K+ex3RZ75TubT3xZ5+v+xd95fVhznum5gYJgBhpyjEKCAglHOoGhZVrYkC5BEHiYHcs5pAkkBkSWf9L9ZEmHQ8v31vT9U9e7q6uocqrr39631LHv5Ht9Tx3j37of33fW9BBzi0nnwBeDg88ABOeUMrtYmTTmLrtbq/u8nkfPnv47H0n2AoqaKslnt9Sf/8QpnyvUnD/j/bGTZtIUzE9n8NlQ28f0/qymbUsVJ9wO/0C8XA4SAIPJE92esbGj5c7JvSZel84f1bul0CacsnZ8zzgvV2qGPgUGecg6K0vk3t3DK0nnyLcYJQTpt4ZSl87BQra1JJxNOr3SGV2ujCedd2s1J5PP5r+OxdB+gqCHZLJNsZr9r0yubXDhVsimmm6Jseqq0EWRT9bvNH9dx3LKJ77/KcP1J1rKZfNem+KVPwkkQ1UL3Z6xsaPuzcqWcYtLJhVMlnRe5cNrS6Uo5P3VSTlE67ZRTlk5bOE8pUk5ZOo++5vyeM1bKqa7WatvNSdVaQv781/FYug9Q1OgQzkSy+f9INvO4JChcNhVVWvs2WuXvNrcIwhlDNmvCKcnm5a8E4cxh16Zm2azHdPPfv5FwEtVH92esbGj7s/p5UzbV2guKau3gR4pq7d80V2uz3c1ZbLVW/39PiZw+/3U8lu4DFDV6080Ushn3d5sBsqm+kbY+ZNNTpQ2TzciXBAmyWRPOZLKJy18Cl77IXjY17tqUK026H/aFfrF8YRFEXaD7s1YWtP45/bzJXa39KUa1Vkw57WptLeVMWK2tCWdItfZIeLXWN+W8q/4eomotoe0ZUMdj6T5AUVMXsukRzvi7NrOWTd3rT5S/2/ylK6MbaTcp0s0IsmkLpyybonCWcv2J91+vV9n8928knET9oPuzVhZ0/zl5U87vvClnULU27AKhWtL590KrtZH+8lPbbk6q1hLCM6COx9J9gKKmCr/bTHsjbbJdm/8p7a5NWzYf/PlnQetPQmTzh3DZxMV/VE427WqT7gd94V8sul8uCaIgdH/WyoLuPydc3ewknVGrtVEuEMqiWnsiRrX2UBzpzLZam0Y4qVpL1PNYug9Q1NS7bOqt0mYomzF2bRYrmxviySa/JEiWTVz8vISyqV5/Il9Hr/tBX/gXi+6XS4IoCN2ftbKg+88JX1hStfa76NVa+QKhC/IFQgmqtadSVmsDhbMiuzlJOitFPY+l+wBFDcmm/t9t6pBNJpw6ZDN4/YlHNi/9wyucZVt/QrLp/mLR/WJJEAWh+7NWFnT/OeELy0k5I1Vrv9ZXrfWknBWo1ibczUnV2upQz2PpPkBRQ7JprmzGXn/yZ7BwZiabsXdtfhNp12aQbOLCZ+WUTcX6E7GypPshr+WLRfeLJUEUiO7Pm+no/vNxcW2zdzfnlW/Zd9ePQsr5A6/W2j8BucyrtXYjR6zWnufSOfwxMPQRSzgHPwQG/w4McOE89z7jrJ10CtXa028Dp0TpXM2E8/gbwPHXgWO8Wnv0FcbhlzgvAodeAA69EJxyGlStpZSzfqnnsXQfoKgpo2xWe/1JQtmMcCOtLZuOcPrs2vylHbjdxkSztmtzm8MNe/3JZoZ9SdC1jcDVDQz7d5s/i8K5HvhpHePHtcCPXzN+kGTzMpfNS1w2L37GuPCpUbs2k8jmHySbBFFX6P7MmY7uPx8XVzezvzj9eaNTrbV/z/mTkHL+qJDOS0K19uI/3MIZVTrP/hU4a1drhd9ynnqLS+caRk06X/dK55GXPcKJQxWu1hrw32Eig+dAHY+l+wBFjVG7NuteNhVVWt2yKQtnKtlc7y+bNeGUZfPzmmziwiel3LXpV1PS/YDX8qWi+4WSIApG92fOdHT/+bi4yhs7Nenc4E45RemsCSev1soppyydNeEUpZMLp1I6fVJOWzrllPPYa07KqZDOsPUo+qu1SS8QIumsAvU8lu4DFDVGrz+pd9nMcNemSzh/9dm1GUU2ReGMKptXspFNnP+k1Ls26102//2bYS+XBFEAuj9zpqP7z8eDLZ0/b0xerb2Ytlr7nrdaW0s55WptUMrpSGdwrdZdrZW/t6haS+T+HKjjsXQfoKgxVjZT/24zbNdm9WVTlW56hVOWTZ8qra9sCsKZVjZt4fTI5qfA+U+A8x+XWjZJOA18uSSInNH9mTMd3X8+Hq5ulqq1G6JVay/HqNYORa3Wvhu9WltLOf2rtaHSSdVaQtdzoI7H0n2AosYk2czukqAw2fQKZ9ayadKuTXNkc61aNr//MpJs4vxHhq4/8d+16fc3xLof7tq+VHS/TBKEBnR/7kxF95+LL0VVa2XhHPjAfYFQWLU27AIhSTrV32Hh1dqkKWfR1Vrd/30mUjwL6ngs3QcoaspwSVDaG2nDZFMtnP8xb9dmStl88Oef6WVTVaUtSDYx/JGBshlt/QnJpsEvlwSRM7o/e6ai+8/Fl2tbFBcIbfCmnEHVWjnljFutFS8QMqRaG00479JuTiL+s6COx9J9gKKm6rJpSpVW167N3GWzJpwRZVO8kfZ7nxtpfWQTwx8Cwx+WWjbrWji/tAiiLtH92TMV3X8uvtSEM89qrXyB0IfRLhA6pbhAKEa11j/lVFdrte3mpGptXVHPY+k+QFFDslkfsukIZ96y+Y1aNuX1J2GyyS8JkmUTQ383b9cmyWa0LxTdL5EEoQndnz1T0f3nEogtnWK1Vr5AyLdaq9jN6VutjbCbM6haG2U3pyCd/t9rYrU2292cxVZr9f/3mkjwLKjjsXQfoKgh2dQnm7HXn/wZLJxBssmEU5DNzHZtfqvetZmTbGLoA7NkU6oehf3eRfdDXesXiu4XSILQiO7Pn4no/jMJ5PrWeNVa1W5O32ptwt2ctnS6LhCKWa2NmnIK33NUrSVyfxbU8Vi6D1DkmCab1V5/klA2Y+7a9JdNxfqTm60Z7tpcl2D9yWee9SeObH7kkk0M/i0H2cxv1ybJpvCFovsFkiA0ovvzZxq6/zwicX0LSziv8e/BqxtZtfZnu1rLU86fuHD+uA744WtGTTp5yil+512wq7VcOIc/Zt91Q/y7bvADxoCddHLpPPsucOYdxum3gdNvAaeEau3J1cAJWzpfYxyzk86XgSNxUk71BUJUrSUyfxbU+Vi6D1DkJBFOks2M1p8UIJs14fxVkM3bwq7NW2K6uRW4sYWzGbi+iXFtI3BtA+PqdwxbNn/mv9u8sh64sg74SZDNH/8J/PAVw042L/+DcelzxsXPgItcNi9w2azxITDMZXPob8CQQjg1y2bUv/3V/VDX+oWi+8WRIDSj+zNoGrr/PCJxfau/dLqqtesd6fxhrSCdX3ml074czyOdtnAK0mkL54AgnWeCpHM1E05ROo+J1dqXOHqqtWmEk6q11aXex9J9gCJH267NDGWzXndt/hlVOGXZvO0jmzXhlGVzYzGyeeFjH9nkwjn4PjDwV2N3bQZ98ep+qGv9QtH94kgQmtH9GTQN3X8ekbm+1RHOq1w4r250Us4r3zoNHzvl/HGtk3J+LwrnF96U80JE6aylnIJ0nhaqtbJ02tVaWzqPCSnnkZdChFN9gVCyaq3GlJOksxTU+1i6D1DkaJHN1L/bpF2bkdNNl2y2xZNNMd2MIps14VTJ5hdq2awJpySb5z9UyqZLOA2STUo3A75QdL80EoQB6P4cmoTuP4vI3AhIOX+WLhAypVorp5zHX3NSTi6dwd95BlZrE+7mpGqt+dT7WLoPUPQUIZvZXRIUXzZ9d21WXDYfPPgzgWwqqrRpZFNMN6PI5rCPbNaE872C1594//U4sknCWaKXS4LIEd2fQ5PQ/WcRmetbvdXaWsq5wZtyytXaWsqZc7U2SsopVWvDpVP4HpTuLNBVraWUs1rQkHCW6kbaZLKZVZXWbNl88ODP9LJpC6c22fybSzZx7j3jd22SbEpfKrpfGgnCAHR/Dk1B959DbDzCqbhAKKxaezmPaq0snG+FXyB0LE7KWZFqrQH/nSd8ngU0JJxlkU1Tfrdpyq7NQmSzJpwK2bSFU5ZNWzg9svlJbNnEuXeBs+8Yu2tT/pLV/UDXDb6yCIL4ioSztM+EG9uCq7Xybk7lBUIZVWsHolZrV4dWa8P/0tW0am3SC4RIOk2FhoSTZFOjbKa9kdaWTUc4M5LNK0Gy+XU2sineSDvo/t2mKJs4+zbJZknQ/rJIEAah+/NoArr/DBIhV2tdFwhtyKZaGzXlHHjfe4HQmXeiXyAU67ecOVRr6QIhwn4W0JBw0vqTNDfS/scrnAWtPxFlkwmnSja3xZNNT5U2qWz6rD9JIJs4+3Yxsil9ucaRTRJO/oWi+0WRIAxC9+fRBHT/GSRClXIaUa0N+i3nmtBqbbSUk6q1RE7PApr6E07AK50kmxmtPzFBNpW7Njcn2LW5Lv9dm4GyyYXzzFvAmTcL27UZrz7kfKHqfpibgPYXRYIwCN2fR93o/s8/FTqqtbJwDn7gvUAobrVWuEAo2n0G4dXapBcIFV2t1f3ff0J4FtAAIOFMJpv/j2Qzr12bobLpJ5y3twO3W4Fb2xg3twI3tzBubAZu2OtPNjqyeY3L5tVvnd9s/ryeUUs3v2bYsvnjV8APXwLfc9n8/h/A5c8Zlz4DLn0KXPyE8zFw4SOGLZvDHzBqN9L+lTHwHjDwLnDuHc7bwFkmmzizphDZjPe3uHco3ZS/VHS/JBKEYej+TNLzICE3tiWv1np2c37lTTkvfq5lN2fslDOgWhtNOKlaS5Bw2mPpPoCO0b5rM0A21TfS1odsJkk3HeGUZXOrWjZrwmmabL7nI5tRhTPbXZtx/uZW98PcBLS/IBKEgej+XNIzISE3W+NVa+XdnL7VWkXKeeFTxQVCHybfzRlQrU2Vcgp/YUvVWiLWs4AGQJ0LpxbZ9Ahn/F2bWctm2dafeIUzRDY96WYU2Vyrlk1bOFWyWRNOSTbPfxhPNs+97ZJNnF4NnHrDmF2bJJuKLxTdL4gEYSC6P5f0TEjBTf7zlBv8pynX+T0IdrX26gYmneJle1fWAz8Jwvnj1yzl/J5L52Up5bwoXCB0ngvn8IeMIf7zk0F+Y+3A+85PT84KPz05w6Xz9JvAqTXAqdXAyTcYJ2zp9BfOcOm866nWJrpASEu1Vv/ngCDhtMfSfQBdY+qNtMl2bf6nbnZtxpNNVZX2Oy6cPrJ5pQjZfF8tm2d9ZDNQOLORzbiXBNlfmrof5Kag/eWQIAxE9+eSngkpuCUKpyCd1+x7EDY60mlXa+291aJ0/sCrtbV7D+Rba3nKeSGCdJ6z7zoQk05bOBXSeeL1SNIZqVqb6gIhqtbWKzTOWLoPoGtMlE29VdoMZTOnXZtK4Ywlmxv0yqaYbkaSzTU12cSp14GTr6WQzWzWn4iyScIpfKnofjkkCEPR/dmk50EKxJTzelDK+Z035fxpnZNyytJpV2svKVJOUTprwikmnVLKeUaVcq5xS+fx14ATTDqjf2+GXyBUeLWWdnOWDhpnLN0H0DUkm8Xs2sxTNmvCmVg2v1HLpi2csmyKv9v0yOYn8WXTviQoomy6hbP4XZskmz5fKLpfCgnCYHR/PumZkIJbrcHVWjHl/DlKyqm/WusnnEVXa9OknFStLQ80zli6D6BrSDbzl82s15/IjLiE0zTZ/LtaNuUbaW3ZFG6k9cimLZwnXgVOvJJcNu+k27Upf0nqfpCbAv5pEQThg+7PJz0TUiJXa2XhvLZRSDm/9aackaq1nxVTrU2Uct7zfIcmr9bSBUL1Bo0zlu4D6JqsZLPa60/+4xVOTbs2g9PNKLKpqNImls3P1LIp30ibg2x6hDOFbEb7oiTZDP1C0f1CSBCGo/szSs+EFMgpZ2C1NuQCIR3VWjnlPPGa71/aUrWWyPxZQFMbS/cBdA7JZszfbRYlm1HTzTSy6bf+5MeY60+SyqZi12YU2cTxl4FjLyXetZlINkk4g79QdL8QEoTh6P6M0vMgBbdaHemULxC6vtl7gVAW1dooKWfcaq1wgVDQHQjhSaf/bs6iq7V0gZDZ0LjH0n0AnRNr/Um9y2ZGuzazks2RBw/8d20mlc0f9O7ajCqbOPYicOzFWLs27S86ks0cvlR0vxAShOHo/ozS8yAlNen0STldwpmwWnspYrV20K9aK6ecbwVeIBTv4j2q1hIJngU0rrF0H0DnRJbN1L/bDNu1WX3ZzPJ3myMPHnDh3ALcFHZt3uDCeX2Ds/7k2rfA1W8Ytmz+zKu0V7hs/iQkmz9+CfzwBcOWze8/By5/Blz+lHFJkM2LHwEXPgTOc9k8/wEw/Ddg6H1g6K+MwfcYA+8wbNk8+ybjzBrgzGrgtCCbp14DTnLZPPkKcOJl4PhLwPEXuXC+ABx9Plr1J9HfxHplE30Lgb4F2h/iJqH9RZAgSoLuzyo9E1IgppxZVmsvR63WyilnQLU24gVCQZfvJa3WlmM3J0lnYc8CGtdYug+gc8yQTa9wZi2bZd+1mY9srvWRzS/jy+aFD+PJ5rm31bJZE85osomjzwFHn1N/GSpupM1CNkk4pS8U3S+CBFESdH9W6ZmQEls6xZvha9VaaTfnVUW11m4V2cL5w1eM74VG0aXPHem8yFPOCx8D53nKaTeJhqS91gM85TwnSudbnDfZz1Vq0vk6cPL1BOvFcqrW6kg5qVpbzLOAxjWW7gPonqJvpA2TTbVw/se8XZsaZZP9fnOzWzhNkU1ROKPK5pnVatk8ES6bOPwMcPiZUNlMeiMt+heTbAZ9oeh+CSSIkqD7s0rPg5TUhFOQTls4bwjSaQunLJ12tdaWTvtnLLZwuqSTC+fFT5lw+knnIJfOAf6zFVE4z77NhPM0F05ZOk/4rBlLWK3VdoEQVWuNhMY7lu4D6B5af2L+rk1ZNmvCKcvm9Q3xZLMmnJJs1n63mYFsDr4bIJtr1LJZE85osonDq4DDq3KXTfTO1/4QNw3tL4EEUSJ0f17peZACl3Dyam2YdP7M70+oJZ2icErSeZkL5+V/BKecw2LK+YGQckaQzlOr2T0JXDrD9lon2c1Zpmqt7s9LlaHxjqX7ALqHZLN8sjny4M9oslkTTlk2v4NcXHMAACAASURBVI4vm5c+UcvmcEayeVpONwXZPB4umzj0NHDwaeDgU6llEzsWC7K5kGTT7wtF9wsgQZQM3Z9ZeiakRJVy2tJ5I221Vk45PxdSzgjV2ppwitL5dmC11hHOlNXaVBcIUbW2itB4x9J9AN1Dsvkfr3BGlM28d22OuITzT69wqmTTk24Ksum5JCiFbNqXBMmyWRNOWTbfiiebrnRTks0jz/rKJg48CRx4Ati/Eti/MrJsYudDwI4ljmz2L3LJJnrmaX+Am4b2lz+CKBm6P7P0PEhJkpQzbrVWTDkvSSmnLJ21lDN5tTa5dKov6KNqLfHv30g4VWPpPoAJU7/rTxLKZhbrT0Jk80Fs2VRVaddFu5HWI5ufqWVTvpE2TDblG2mjyKbnkiBbNp+PLZvY9ziw7zFg76OMPSuA3cs5y4BdDwM7lwqyuYRkM84XytcWQRAx0f25pedBSvKo1ooXCF2OeIHQsN8FQgHSecZbrY0inEmqtYkuEMpgN2d86dT/2akaNOqxdB/AhKlP2VRUaYuSzVhV2j+9whlJNiOuPxFlU7wkSJRN1fqTomRTTDc9svkXr2zawqmSzZpwSrJpC6csm30LgJ55JJx+Xyq6X/wIooTo/tzS8yAlsnCK1VpZOIOqtT8pqrWhFwhlX611C6fOaq3GlJOkM9tnAY1yLN0HMGFINrO5kfbPjNJNv99teoQzb9nMc9dmqGy+6CObz/jI5pMBsvmIj2wujSSb6Jmr/QFuGtpf+giipOj+7NLzIAMSV2u/8VZro1wgFFStdV0gFL9a6xXODKq1wh0KhUsn7ebUDo16LN0HMGHy37VZfdnM+5Igt3BuAK5/x7j2LXDNviRoPePndcDPaxlXvgau/BP46SvGj18CP37B+OEfTDS//xz4Xv7d5sfuGu2FD5lonv8AOP83YPh9YJjL5tB7jMF3GANvA+feAs69yTi7Bji7GjjzBhPN068Dp18DTr3KRPPkK8DJl4ETLwEnhEuCjj0PHHsOOPoscOQZzirg8F9YlfbQU4yDTwIHnwAOrAT2c9nc/xiw71Fg7yPA3hXAnuXAnmXA7ocZu5YCux4Cdi5hv9vcsQjo57LZvwDoncch2VR+oeh+4SOIEqP780vPg5R4Us5W727OwGpthN2cWVRr5d2cPtXaqMJZpmotpZwanwc0yrF0H8CEyVc2Y+zaTCibVd21qWTkQbhsXgmSzS/jyeZFP9l83182B95Wy2ZNOGPI5rHnfGTz6ZiyuTxANherZbNnLtAzR/vD20S0v/ARRInR/fml50FKVMIZtJvz2sZoFwhlUa31pJzvKYTTLZ3pU071bs7SVWsN+CxVARr1WLoPYMpkdSNtMtnMKt2svmyOPHigVzZt4Ywsm2ukdDOFbB5Z5S+bB1ZmI5t980k2o3yh6H7hI4iSo/szTM+ClNxudWNL562twE2+JuXGZueSv2sb2E9grvKUs5Z0rnOvLPuR//zlB+HWWvunL5c+Ay59Cly0f/LCf/ZiC6e9qmyI/+RlkEvnwLvAuXcYZ/nPXc441dpQ4SxdtTb5bk6SzpTPAxrfsXQfwJSpl/UnZdq16ZHNEZVsfuMvm7ZwyrJZE07F+pPYsvluPNl0CWdE2TzsI5sHfGRz36PxZbPPK5vonq394W0i2l/0CKIC6P4c0/MgJbJw3pYuEBKl8/pGRzqvitK53iud9m85Zem8/LmPdHLhPC/cs2AL59D7XDgDpPPMGuB0ximnUK2VU06q1lYbGv+xdB/AlCHZNF82Rx48cGTzWpBsfh1PNi/7yOaFv/vI5l8TyKacbtqyyYVTl2zWhNMrm1V6Kcz0C0X3ix5BVADdn2N6HmRAoHSKwimlnGLSWRNOXq1VpZyidNrCaUvnhQDpHPRJOWuX+r0VknJStZaI+Tyg8R1L9wFMmSrIZpV2bapk0yWcOmRzOEg234onm2K6KcumfUlQVNnc5yOb9iVBKtkULwmyZZNfEoTu2TXhrNKLYWZfKLpf8giiIuj+LNOzICVK4YxQrb2aQ7X2/IeKau37kau1kYQzg2pt0pSz6Gqt7s9WWaHxH0v3AUya6smmxl2bOcgmE05JNu0baWXZFG+kdcmmKJyybH4UTzblG2kjyeYrPrL5vFo2xRtpZdm0LwmKKpuqG2n9ZLN7FrDWAtaW/6Uw8y8U/p8LQRDp0P1ZpmdBBkSt1top5/WNwdXan3Ko1taEU5bOt2rSec9XOPOp1kYTzru0m7NE0ASPpfsAJk3lZTOjXZuhshmrShtdNkcePFCvP0kjm571J39H4PqTzGVTsf4kSDblG2lrsqlYf2LLZsT1JyrZrMqLYWZfKLpf7giiYuj+TNOzICUq4bztk3JmUa2VU85Ln3ovEDr/ofsCobBqLU85c5FOoVqrbTcnVWuLeSbQBI6l+wAmTVTZrNddm39mlG7GuZHWK5waZVPXrs2DT6rXnwTJZsxdmy7Z7JpZmZfCzL9QdL/cEUTF0P2ZpmdBSnyFU0e19iNvtVa8QCikWhtZOGNVa7PdzVlstVb/56xM0ASPpfsAJk2Wuzazls16XH8ic3/kgVs2s1p/csFv12aAbPrt2kwim5nt2gySzcWBuzaDZLPsL4aZfqHofrkjiAqi+3NNz4GUBKWcYdXaazGqtfIFQpc/d18glKha61wgdO/e/fyqtakuEKJqbRmgCR5L9wFMmyxkUy2c//EXTpLNeLKZ967N4fdj7tpcnd2uzSDZzGrXZpBsds6ozEthLl8oul/sCKKC6P5c03MgJX7C6VetlXdzXvtOkXIGVGuT7uYMqdbe5cKZnXSatJuTqrW5PhNoQsfSfQDTxuzfbdaBbCqE8/4IF84iZFO5azNINteoZTPurs0jPjfSZi2bqvUn3bMYnTOALn/hLOOLYaZfKLpf6giiwuj+fNNzICVh1Vp5VUrcam3SC4RiVmuTCmfR1do0wknV2hyeCzShY+k+gGljrmzWz65NlXCOjDxwarQ/f82oCeeXDPF3mz9w2fz+U8blT/hvNz9iXPyQC+cHDFs2z/Mq7TCXzSH7kqC3GQNcNs+tYdiyeYbL5unXgNOvAqfs9SdcNk+8CBx/ATgurj95hnFkFXB0FXD4acahp4BDXDYPrmTs57K5/1HGvhXA3uWMPQ8zdtuXBC0Bdi5m7FjI6F8A9M8H+vhvNnvnAD2zGd2zmGiGyGaZXgpz+ULR/UJHEBVG9+ebngMpCUo5b/OU89ZWJps3BeG8sdF9gdBVXq39WZDOK18DPwkp5w9fMOyU87L0F8u2dNZ+LsPvZxi2pfOvwOB7nHeBAZ5ynssj5azIbk6SzuDnAk3oWLoPYNrUm2zmvf5kxCWcyWXTEc4A2fwxpmxe/LuPbP7VRzbf4sK5xiubNeGUZNMWTlk2jz2rls3DGcrmzkVq2eybq5bNrumVeSnM5QtF9wsdQVQc3Z9xegakJEq19paUct7YCFzfIEjnN4J08mrtFZ5yytL5/T/c0nlJEE5ROs8L1VpZOge4cHLptKWy0tXahLs5qVob8GygCR1L9wFMHFNlUy2c//EKZ8l3bapkkwlnHNn8TC2bNeHMQDbPBsnmy9nI5oHHA2RzWTzZ7JuXSjbL8EKY25eJ7hc5gqgTdH/W6TmQgsCUs9VJOUXpvL7RLZ1RUs4f+c9oxJTze5V0BqWcYtLpSOe9++mEMzzpNKdaSylnRs8Fmkhj6T6AiVMe2VSkm0XJZo67NsXfbXqEU/zdpko2xXQztWy+E1825Srt8Rck4ZRk88hfYsrmCn/ZrAlnRNnsnunIZue0SrwQ5vaFovtFjiDqBN2fdXoGpCBMOG9LKWekau26Yqq1knBStZZSzsjPBppIY+k+gIlTWtnMaNemibI5MvKAyeaVuLL5sVo2a8Ipy+Z72cmmJ9181vndpq9sPuEjm4+oZdOTboqyuUAtmz0K2VxnRUb3w13LF0qM/3wIgkiH7s87ff5TEJpyRqjW2sLpks613mrtj/lUa6NLZ9LdnCZUa5NeIETS6Xk+0EQaS/cBTBz1+pPqy6Yp609UsjkyMqKQzS+yk83hINl8M2fZlNLNKLKprNIGyGbtkiCFbJJw0gsnQRiG7s88ffYTEjnlNKhaK10gVEjKKVRr5ZSTqrXlgibaWLoPYOJE2bWZtWzW3fqTmLJ5f2TE50baz9WXBHlkU76RNkQ25Rtpa7L5RgLZfM5HNhU30tZk87GYsrlYLZu9frIpCGfH1FK+CNILJ0FUF92fe/r8pyBNtfb6hmKqtQEp573796laSyln9GcETaSxdB/A1Imfbv6Hdm3mKJtMOLOSTcX6k1DZXJ2/bMo30oqyGWX9SQGyadrLIL1wEkR1oc9+SQkVzoTV2itpq7WycH7gvUBo4F0mmArpjCScGVRrk6acRVdrdX8+TYAm+li6D2Dq6K7S1tOuzSDZ9AhnHrIZe9fmq/nv2tz3SLxdm7ZsKndtzvLeSGvLZseUUr4I0ksnQdQH9LkvIVGEU1mt3ZS8WiunnN8LSWekaq1zgZCdaOqu1kYTzru0m1Pn+wFN5LF0H8DUIdksRjZV6098080kuzaTyKbfrs3Tr6l3bWYtm3F2be5YqN61WZNNxfqTzmlAZ3LZ1PkSSC+dBFF/0Oe+hPzSGs7tbcBtLpw3hWqtLZzXv2Nc+xa49g1wlVdrf5ak8ych5fyB/6X09/wdoVat/ZhhS+fFD5lwnufvB8PvO5cHDvqnnHlXa7Xt5qRqbbJnBU3ksXQfwNQxUTZjrz/5M1g4s5PN7HZtqmSTCSeXzR//Afz4OfCDIJvff8K4bK8/+ZBx8e/AxQ+AC39jnH8fOP9XxjCXzSEum0NvA4PCjbQDa4Bzq9nvNs++zjjzGnDmVeD0K8CplzkvASdfBE68AJx4Hjj+HOdZ4Biv0R5dBRx5mvMUcPhJ4NATwKGVjAOPcR5l7F8B7FvO2PswY89SYLe9/mQxZxGwcyGwYwGwYz7Qzy8I6psL9M5m9MwCumdwpgNd04CuqUDnFKBjcmleALV9meh+aSMIAlhX3DNH9/+dlSGKcPpJ500unTc2uIXTJZ1cOK987axK+1FsQUnSeekTRzgv8pTzwt8l4eRJ55A75UxUrY20m/OuJ+XMYjdnsdVa/d/TWt8RaCKPpfsAJo8ZN9ImlM0s1p+EyGYW60+iyOb9kQde2awJpyybHxUgm6+oZbMmnDFk8+DjAbK5zCubu5f4y6YtnDnLZpEvf7rR/tJGEEQN+qyXjKjCKVZrxZRTls6rXDivSqtSxP3cnpTzcyflvPyJN+X0SKcknEVWa1NdIETV2sLfD2hijaX7ACaPftlUVGmLkk1NuzZVsukIJ//dpko2LyeQzaF3MpLNF/xl8+hfYsrmCrVs7n7IRzYX+Mtmz0y1bJJw0gsoQZQU+qyXiCxSzusbhGqtnHKuE1JOuVobkHKK0lkTTrd0ysKZn3SatJuTqrWxnhs0scbSfQCTxzjZzOBG2j8zSjfzvpFWlE0mnH6y+bFaNm3hlGVz+D21bNZ+t7naK5unfWTTU6XlslkTTkk2ReH0yOYjatmsCeeS6LLZ6yebQrrZ0WLki59JaH9ZIwjCF/qMl4Q40nkrYrVWTDnDqrV2yhmzWnvv/oivdCYVzqKrtWmEk6q1EZ4fNLHG0n0Ak6dqslmW9SeybN6/PyLJ5qdq2bz0Yf6yeTKJbD7lI5uP+cumK91cEi6bfXPUsmkLZ8aymdULn8lof1EjCCIU+lwbTmzh3Oq9QOjGRvcFQld9LhC6EvECoYjV2uJSzors5qwz6aSJN5buA5g+Wckm7dqMI5sjLtlkwplENt/3l80h+Uba1Vw230ggm8/5yObT8WRTdUlQTTYXx5TNGf6y2T5Jy4temdD+kkYQBFEFogpn1Gqt8gIhn2pt2AVCIdXaoJQzXDqz3c1ZuHQm3M1ZL9Vamvhj6T6A6eOSzUzSTZLNuLJ5//5IPNkU001ZNgd9ZFNMN0XZPB1XNlf5y6Z8I22YbIo30oqy6bqRNoFsrrcyQfcDP9cvk4z+MyIIgqh74kinfIHQzc3RLhD6WXGBUFC19nJ4tZYJZpHV2vDdnEVXaynlJOHMaizdBzB9aNdm+l2bQbIZVqV1C6ff+pMw2XzXXzblS4LOvOZdf5KHbMZZfxIqmz430qpks21iZi8Ruh/4JJsEQRAlIG7K6RFOn92cOVdrw4STqrX1m3LSxB9L9wFMH5LNdLIZd/2JSjbvj4zE37WZRDZVuzZPvuS/a7Mo2VTu2gyRzS6FbGaYbmI9CSdBEAQRkUKqtWszrdbachlFOiMJZ+mqtUkvEKq+dNLEH0v3AcowRclmve/a9JPN+yMjwA/i+pMPgcsfApfsG2m5bF7gsnnhr8D594Dhd4Fh4TebQ28Bg28y0RxYAwysBs69AZzjsnmWy+aZV4DTLzNOvQScehE4+QJw8nngxHOM488Cx58Bjq1iHH2aceQp4MiTwGFx/cljjAOPAge5bO5fzthnXxK0FNjDf7O5ezFj1yJg10Jg5wJg53xgxzygfy6jbzajdxbQM4MzHejmstk1BeicDHS2MDomAe0TMn+J0P3QJ+EkCIIoAYlSzgS7Of2qtfJuzgjVWkc477uFs8jdnFlUa+kCIZJNA8bSfYAyTL430pJshsnm/ZERRzYvfxRPNmvCGUc2X/GRzed9ZPMv/rJ56PF4srlnib9s2sIZWTYnu2WThJNkkyAIQhdpU8641VrPbs741do4KSdVa+sj5aRJNpbuA5Rhyrb+JJJsxqrSJpPNJOtPVLJ57/6Iv2xeLEI2X4gnmzXhlGTzwCOOcMqyuechH9lcoJbNvllA70yFbErpZo6yifUknARBEEREfm2Nzi+twC+CdN7azLi5Cbi5kaWcN74DrgvV2mvrgas85fz5a0Yt6eTV2h95tVZctWYL5+WPmWzawnnhAyaaBlZrk14gVHS1Vvd3OgmnOWPpPkAZpmyyWZ4baaPJpiOcgmxe+kAtm+ffU8tmTThXR5dNWzhl2bSFU5ZNV7oZQTb3icK5JJ1sqqq0HZOA9olMNtuac3mB0P3gJ9kkCIIoCXGE81dBOEXpvClVa0XpvLreK51X/glcsau1XwjS+blXOi9/zO6IsKXz4t+DhdOAam004aRqLQmn/rF0H6AsQ7s2i1l/opJNJpz8d5uxZPNtf9k8F1M2TzwXIJtylfZx53ebcWRz92J/2eyfo5ZNv99tFiCbWE/CSRAEQcQgsXT6pJzXv5OSTi6csnSGpZzff+qknIJ0Ou8h5lRrte3mpGqtXhEp+Vi6D1CWIdksQDbvq2Xzvi2csmxeeD+ebLrSzQxkM+ySIFk29y/PUDYDLgmSZXN7U64vELq/AEg2CYIgSkJs4cyqWvuVQjoVKeelMOHMsFobaTfnXU/KeedOiguEtFRr9X/Hk3DqH0v3AcoyJJvJd22mlc3790ck2fxbTNlc4yObwo20smye9JHNqDfSRpFN1420gmy6bqQVZTPCjbSybLZPALaPB76xckP3F0AmXyI5/udDEARBCGit1n6prtbaKadUrRXfR7SnnHfTXiBE1VoSTn1j6T5AWYZ2bRZ3I60sm/ds4fSVzXfjyaa8/iQP2ZRvpE0lmxHXn4iyaQtnWzPw7Sjgm1G5vTzo/gIg4SQIgigRaVLOsGqtnHJeXZf8AqFLH0nCqUs6TdrNWd/VWprkY+k+QJlGl2zmvf5kxCWc5skmE05JNrPatXnqpfx3be59OMGuzQSyKd5Ia8tmWzPw7ehcpVP3FwDJJkEQRMnIslqb5AKhsGptqHAGS2dS4Sy6WptGOOutWkuTbizdByjT0K5NPbJ57/5I8K7NpLKp3LWZQDbj7toMks3YuzZbvOtP2ppZjbZ9ApdNkezFU/eXAAknQRBEyYgrnJ5qrSycG70XCF2NcoGQKJ2fKau1ZqSctJtTNzTpxtJ9gDJNZutPipLNku3aFIVTfrjjopBsXngPOP8ucJ7/bnOYy+bQm8DgGsbAamBAupH2LJfNM68AZ14GTttVWi6bJ58HTj4HnLDXn6xiHPsLcOxp4OhTwNEngSNPAIdXch4HDgk12gMrOMuB/ctYjXbfUmAvvyBozxJgz2Jg9yJg90Jg1wJg13xg5zzGjrlA/2xG3yygbybQOwPonQ70TAO6pwLdUxhdk4GuFqBzEtAxgdHeDLQ1AR0T2T//bgyDpJNkkyAIwhQSCWfEam3Guzm97yRZSWe2uzkLl86EuznLKp006cbSfYAyjUm7NutHNrlwirJ54b3sZPO0KJwRZbMmnJJsHnxELZsu4VwsyeaCmLI5NVw223i6uaHBEU6PdI5GltKp+4uAhJMgCKJkJJVO+QKhW5uT7+aMUK0NFs6iq7XhuzmLrtbWywVCNOnG0n2Aso0Jslme9SfZyKYjnAGyaQtnFrJ54hmFbMrpZhTZlNPNxcllU0w3XbI50Sub2xuZcH7XwKRTFM+cKra6vwhINgmCIEpGEuH8tRX4dRvwi5By3t4M3JLWpNz4DrjxLXBdSDmvrQOu2kknl84rXwI/fcEQq7U/8Grt958of+ZD1dr6qtbSpB9L9wHKNnW1/qTgXZuqKq0jnArZHH5bLZsDb8SXzZPPqWVTWaXlslkTzoiyuWdxgGzOUcimokobJptt45067YaxjnAGpp31J53aX7QIgiCI5NL5iySdtxTSeZ0LpyidV9cCV79m/CysSrGF0yOdQcIZTzojCWcG1dpy7OYsl3TSpB9L9wHKNiSbxctmTThDZXN1drJ51E82VwbI5nL9srm9kf3rG8YKNERLO1NKp+4vBBJOgiCIkpE25XRJJxfOmxuBmxu8Kacona6UU5ZOd7X2vu97ivSucu++RzoL2c2ZRbWWdnOScOY8lu4DlG0ylc0S7doMkk3fKm1Gsnnv/n3hkiCFbMpVWls2a8IZQzaPr8pfNu1LgjyyOSuebNaEU5LNjgnAxnGMuNKZIu3U/YVAskkQBFEyEgtncdVa+V3G5Got7eYk4TR1LN0HKOPUm2wWuf5EJZv37t2PKZuvqWXzlI9sHk8im4/Gk035RlpRNm3hTCub28ex//dNjcCmcQ4bxwo0OGwY4/DdaIFRTDy/tWKj+0sh0hdHgv+7CIIgiJxII51B1Vo75UxZrQ0XTt3VWu9uzjJVa3W/E5BsFjOW7gOUcYJkM/b6kz+DhTM72TR/16afbN67d1+QzTg30nLZ9Kw/eU59I20usqlYf7JjrveSoCiy6bmRVpLNTr6Lc1NjuHRuUIinSzpt8Yz34qD7i4FkkyAIomRkkXLa0nk7bbX2C0+19v7ISPKUs8hqbaoLhKhaS8KZ71i6D1DGyUw2s1h/EiKbWaw/yVo2/XZt+slmTTgz2bWZQDaVuzaXB+zaXBxv12agbPqtP5Fks3UsSzc3j2eopNMlnj7SmTLt1P3FQLJJEARRQrJMOeNWa68qqrVCyll7jzGyWqu4QIiqtSScBo6l+wBlnNAqbVGyWbFdm0E/vk8tm3F3bQbKpnwjLZdN3/UnAbKp3LU5JdquTVE2tzUAHZMc4XRJZ8S0s+LSqf2FiiAIglCTKuXMqFrrc4FQfOEsejenf7VW127O+NKp/x2BhDPfsXQfoKxTiV2bpsqmJJx3791nsjn8JjC0BhhczdefvM449xpw7lXg7Cucl4EzL7ELgk6/CJx+ATj1PHDqOeDks+yCoBPPACdWAcft9SdcNm3hPLISOPI4cPgx4NCjnEeAg3a6uQzY/zCwfylj30PA3iXA3sXAnkXAnoXA7gWMXfMYO+cCO2Yz+mcB/TOBPi6bvdOAnqmcKUD3ZKC7BeiaBHROYHQ0A+1NQPt4oK0RaBsHbB/L6GphQrqlKZp0Rkk7lRXbcPHU/eVAskkQBFFCsqrWyilnULU2wgVCrnceI1POLKu1GlNOA6WTJruxdB+grEPrT5LJZtwqrf3wzV02jz2lls2acKpk8+GYsjlHLZt9onDKsjnRRzYbHdlsbWD/c1uaOZJ0RqrYjs20Yqv7S4JkkyAIomT8qzU5tnT+uhX4hf+W8/Zm4PYm4NZGJpw3v2Nc/wa48Q1wnQvntXVOynn1n8DPonRKwmmsdAbv5ixcOiuym5Mmu7F0H6CsQ7KZz/oTuUpbE05RNgffSCCbz/nI5tMxZXO5v2zuXRxPNvtmxJdNWzhF2bT/Z2vCyaUzatoZu2LL16cEvDjo/pIg2SQIgigZaYSzJp085QySTjvlvL7ekU7xt5w/f+WSzuTCSdXasqecNNmNpfsAZR2SzeJk8+69+0w2B1dnI5snVgXI5sqMZHN+drLZ0ewvm61j2P/81gmMMOlMc6FQzIqt9i8K3S9PBEEQRDxSS2dAynlro5Ny3vjWm3Jek6TzypfAFYVwGptyqndzlq5aa4BoknBmP5buA5R5qrRrM0g241Zps5ZNRzol2awJZ0rZPFqAbNrCqZLNbh/ZrKWbQbLJ/z1bJ/pIZ1jFNt+dnSSbBEEQRGQySTkjVGvtlFOUTvECIalaGyac+Uln0t2cJlRrk+/mNEE6abIdS/cByjxVkU1Tdm2G/U2f+nebecnmo/Fk0xbOPGXTviTIls1to9m/p3UiY9tEYNsEh63NAk2MLeMdNjcKjHPYNFaAC+cmzsYxjA2j3Xw3CvjOUlL4l4TPOQiCIIgSkFnKKUnnrY1e6bwRrVqbLuX0vudkUa2NdIEQl0455aRqLQln0WPpPkCZJ6ps5r1rc8QlnNWUzZpwyrLpEk5BNl2XBKWUTfFGWo9sLlLLpnwjrS2bvT6yqbyRNkQ2t45i/77WFNLpEs9xPuIZUTo3jIKfeJJsEgRBEJFIK5xh1VrxAqGgaq2QcrJ3H6rW1lO1libbsXQfoMxTyK7NENnMYtdm1rKpXn+STjbv3rsf8rtNWzblG2lX+aw/EWRTXn8SKptL/GVTtf4kUDZjrD9pbWDUVAvbTAAAIABJREFUZHOyIJyCdMri6ZLOlGmnLJ0e8dQnndpfkgiCIIhsMKxam1w440lnJOHMoFqbNOUsulpLwlmdsXQfoOyTq2zGqtImk01tuzZjyiYTzgDZVK4/CZJNn12bB1eod23ueyi7XZvdU5Lt2hRlcxtPN7dzatJpSMV2Q3HSqf3FiCAIgsiWTFNOUTo3RavWShcIOe9BGaac9wrczelTrY0mnHfrbjcnTfZj6T5A2SepbJbnRtocZNNn12aocA68wjj3MnDuJeDsi4wzLwBnngdOPwecfhY49Qzj5Crg5F+AE08Dx58Cjj/JOPYEcGwlcPRx4MhjwJFHGYcfAQ6vAA4tBw4tAw4+DBxYynkI2L8E2L8Y2LcI2LsQ2LuAsXsesGcesHsusGs2Y+csYOdMYMcMoH860D+N0TcV6JsC9E4GelqAnklA1wROM9DZBHSOBzoagY5xQPtYRlsDsH000DoK2D6K/ft7JzvC6SedrUHS2ZxtxbbgtFP7CxFBEASRD1kIZ4bVWte7UMmrtdp2c5aoWkuT/Vi6D1D2qfb6k/iyGbdKG1U2a8J57mXgrJ9sPucvmyeeUsvm0cf8ZbMmnIJs7l8cIJtzfGRzur9sdk/0yqYtnH6y2WoBvVOA7ZM5LT7iWUDFdmNy6cR3ycRT+4sQQRAEkT+ZCGc21doR1ztRyguEtFRrs93NWWy1loSzCmPpPkDZp7qyOaKWzfvZyWZs4Uwimyeejimby9WyuW9xfNkU0800stk2hgmnLZutFvv/q42jEs88K7YZXygkQoJJEARB4Dsru5TzX1w4ben8RarW3trAk04h5byxHrjOU85rsnCWuFqb6gKh+qnW0mQ/lu4DVGGMlM2YuzZNl8279+55ZfO0n2yu8pfNYyuzkc09831kc1Z82exqjimbUxltCaQzl4rt2NQVW4IgCILwkHW19lcunLZ03t4oCOd3TDhvfOMIJ5dO512pjNVak3Zzml+tpclnLN0HqMKUQTb9b6QdMW79id+DNXPZPPJodrJpC6dKNnt9ZLN7QnzZtIWznSNKZ008Ta7YBu/sJAiCIIgamaWcUrVWlM5bG5l03hJSTkE6xb+sz044g6UzqXAWXa1NI5ymVmtp8hlL9wGqMLRrM3/ZrAmnLJv2JUF5yqZ4SVBa2bQvCVLJpn1JkCybonDalw+1TwuRzhwqtgXt7CQIgiCIGrlUa2Xh3OiknFK11t0OK2vKWZHdnAVIJ00+Y+k+QBWmHndtFi2b9gM1kmwe95HNIz6y6bqRNoJsqm6kDZXNlviy2TrKm272Twc6pgkIaWf7FIe2yZwWh+2THFonAts5rROB1gmMbc1utjYBW8e72dIoMM5h81iBBodNYxw2jhYYxcRzg0UQBEEQavJIOWNUa8V3I690hgunOdJpWLU24W7OvKu1NPmMpfsAVZl6kk31+pOsZVP9IPWsP7FlU15/IsqmZ/1JiGyq1p/smR99/Ykom/L6k5psKtaftDWob6QVZbN/OtAZUTpr4tmiFk8/6ZTFc2sTsK0pmXRuUoinSzp52qn7hYYgCIIwkyyF81+t3guEftnsvkDoljvllKu02aacRVdrvbs5dVdrTUo5afIbS/cBqjKJZDPW7zaTyaa2XZs5yCZLOKPKpqZdm/aFPlns2hRls9Vi/3u6ZjDh9EinKJ4q6YyQdsaVTpd4jvMRz4jSSWknQRAE4Uem0umTcvpUa73CSdVa7dVaEs7SjaX7AFUZWTbLs/4kB9lMsWsz7OFZk03Vrs3jT6rXnwTJpmrXZlLZjLP+pKMxfNemSjg7JemMmnaqpDNK2qmq2CZNO6liSxAEQSQh85QzSrWWC+cD74VBZlVrk+7mNKFam/QCoXykkya/sXQfoCpDuzZz+N2m4qGZza7NANmMu2vTrrmm3bW5fbT6RlqbnTMZXbZwBknntGQV2+2TzKjYbiTpJAiCICRySTnDq7W2cI4ECmcG1Vrp3amw3ZxcOuWUsx6rtTT5jaX7AFUaks18ZbMmnGGymdWuzTDZjLNrM0g2/dafuIRzFtA9C+iSpDNSxTbNhUI+0rmtOduKLaWdBEEQRBD/1Zot/9oG/IunnL9uZvzCU87bG5hw3vrOed+iam2lq7U0+Y6l+wBVGt27Nqsum0w4VzFOPs048RRw4kng+BPAcfuSIC6bRx8FjjwCHFkBHF7OOPQw4+BS4OBDwIElTrK5byGwj8vmXvtG2rnA7jnA7tnArlmMnTMYO6YDO6YB/Vw2+yYDvS1A7ySgZyK7IKhnAtDdDHSNZ3Q2Ah1jGe0NQPsYoG000DYK2G6psf/3dovSOVMtnWWq2G4i6SQIgiAikrVwqqTzF690ut65MqjWeoUznnTGudk/TbU2acpZdLWWhLMcY+k+QJVGp2xWbf2J+gF5N55sHn00pmzawqmQTVs408pm57h4srndYv+7u2c7wilLZ6y0s6ALhfykky4UIgiCIJKSm3CK0mkL50bg1gaPcOZbrR0xrlobTTjvln43J02+Y+k+QJUmvWyatf7ENNm0/zYuc9ncv0gtm3vmxpfN3knxZHP7qGDh3D2H0a2QzrCKbZq0s7CK7Viq2BIEQRDRKCLllKq1rneqOqnWatvNqbFaS5PvWLoPULWhXZvpq7RBsnnn7j21bB57PEA2l8WUzXnxZFMUzixl0xbOHk5NOkPSziTSmXRnZ6EVW9rZSRAEUfcUXK0Vk80g6SxqN2esau3dONXabHdzFlutJdk0fSzdB6ja0K7NrH+36ZbNO3fuumXzuI9s2sIpy6ZLOCPK5q6ZPrI5JUA2m3xksyG6bG632Fl6EkinaRVb2tlJEARBZEGuwumt1tbe0eqlWpvqAqFyVmtp8h9L9wGqNpn/btNU2cxx12bYj9qZbD7hI5uP+MimnG4ucl8SFEc2VVXa7gkcH9m0hTOWbPLz9ErS2RNWsc3hQiHfim1I2ukrnbSzkyAIgkhIgdVaj3BWslpr0m7O4qu1NPmPpfsAVRvz1p9USzYd4RRlU3EjrS2byiptkGzO8ZfNsEuCPLLZmFw2t1vAzbVA3zwmnH2c3jkOPbMFZjl0z2SIFduu6Q6d0wSmMvHsmAp0THHTPhlob3HTNomxfaLEBIfWZodtTUBrE7BtvMPWRoFxDlvGOojSubkB2DyGsWm0m42jgI0WQRAEUU/8X1d+0vmru1rrumND8d6lq1qbVDiLrtamEc6iqrU0+Y+l+wBVHHNkc0Qtm/f9ZdOU9Scu2RT4487dcNmMs/4kTDaj3kgryqZq/Unb6Gg30orcWAtcTSidtni6pHOGj3SK4qmSzslq6fSIZwzpdInnOLV4RpXOTaNA4kkQBFEnbJvAhPN/O3Ou1rKU0/WeVumUsyK7OWNKJ00xY+k+QBWHZDM/2bTrHcbJZtpdmzKX3wMuvQdcW8vom+cWT1E6XeKpkM60aadKOqOknaJ0ZpZ2jvERT5JOgiCIyrNtIhPOrc35CKeiWut+V0tSrQ0XzvykM9vdnIVLZ8LdnHGqtTTFjKX7AFWcvHZtBslm3Cqt2bLpFU5RNu/cuZtONv12be6alc2uzbSyud0CLr0LnH+PIQpn7hXbackqtmnSziwrtptIOgmCICqLLZtbm4D/6wT+uzUf/msr419bFO9swRcI3c885Sy6Wiu8j/ns5iy6WptnyklTzFi6D1DFyUM2623XZpBs3rlzFzj2KOPoCuDIcsZhLpuHlgKHHgIOLgEOLGbsX8hZAOybD+ydB+ydC+yZA+yZzdg9C9g1g7FzOrBzGrBjKtA/BeifDPS1AH2TgN6JTDR7JwA9zUD3eEZXI9A1DugcC3Q0AB1jgPbRQPsoRpsVncvvAsNcOq+tiy6dYWln7IpthLQzrnS2NmdbsaW0kyAIovq0CunmlvHA/3XkJ5z/vQ34r62Kd7F6uECoItVaEk6jxtJ9gKqOWjbN2rVptGxKf6smyuYftnC6ZHMZF06FbB5YpJbNvXNjyqadbsaQzbYEsikKp41KOqliS9JJEARRD4iyubXJEc7/zVE6/2sbf3+ThdPcam3cd7FyVGuTXiAULp00xY2l+wBVnax3bWYtm+obabOWzah/qxYum/LDLVQ2a8Kpks158WTTFk6PbDblI5uX3vEKZ0061wH983Oo2Bp0oZCfdNKFQgRBEPVH6yRvurllPLB5HPC/7bmmnN52WvRqbfYpp/edrLDdnFlUaw28QIimuLF0H6Cqk6Vsalt/olk2g+obOLJCLZuudFOUzQUBsjnTRzanxJNNWzjTyKYtnMPveIVz+F1+iVAM6UxasU2TdhZVsaW0kyAIovqo0s3NjQUIZ6vwHkfV2ipWa2mKG0v3Aao6tGsz3a7NKA80t2zKVdqEsqmq0tqy2VOAbLqE00c8r61lwilLZ6SKrUE7Owut2NLOToIgiNIhp5s14RwHbBoL/E9bIcJZdLXW+45mZrU26QVCRVdrSTj1j6X7AFUeU2UzbpVWt2z6C6ffJUFBsjnHRzYjXBLkkc3G7GWzzQIuvi0J5zuKlFOQzqpXbGlnJ0EQRP3R1sJks3UisI3L5tbxwJZGYMs4YHPRwmlKtXbEuGptNOE0q1pLU+xYug9Q5aFdm8l3bUb5fUDwjbQRZTPqjbSibNrCKcumfSNtGtm0hXNIJZ3veKVzx3yH/nlubOnsm+OmdzZnFqMmnzMZ3TMEpjt0TROYysSzcyrQOcWhYzKnxaF9kkPbRIkJjO3NblqbgNbxbrY1Coxz2DrWYUuDwBiHzaMFRjHx3GQRBEEQJtLWAmznf1HZOoEJ5zZbOMdx4Wxgwvk/2wsRTqrWusMBbbs5M6rW0hQ7lu4DVHlINtOvPwl6cIXKpmr9ye5Z8def9DR7b6QVZVNcf5JaNt8CLr0NDIu8A5znDL8DnH+XcW0tcH0tsGNBBOmc6yOds7OXzpp4tqjF0086ZfFsbQK2N6WUzgYf6eRpp+6XKoIgCMKLLZxB6ebmBmDTmIKFM121tqjdnLGqtXfjVGvveqq1aXZzFlutJeHUOZbuA1R9srmRdqRc608KkM0/7tzxl828d23mJZu2cA69JQmnkHaeF9JOWzp3LHBLpyyeUaVTFk+XdM7wkU5RPFXSGTXtjCGdLvEcpxbPqNJJaSdBEIRZRE03N40BNo4uVDiNrtYWlXIK73BlrdbSFD+W7gNUfXSvPzF612YK2bQfVji4mHFgIWP/AmD/fGDfPGDfXGDvHGAvl809s4DdXDZ3TQd2TQN2TgV2TAF2TAb6W4D+SVw4uWz2NgM94xndjUD3OKBrLNDZAHSOATpGAx2jGO1Wei5x4RwKEE8x7by+Tkg5F0RMOzVXbKOknaqKbeq0kyq2BEEQRtM2OVq6uUkQzgJlM/sLhMoknSbt5kxXraUpfizdB6j6kGyGrz9JKpu/28J5YJFCNm3hjCObLfFlsz1D2VQJZ5S08/paf+lMnXbGkc5pySq2adLOLCu2m0k6CYIgtNE+JSTdbPSmmxtHaRLOiNKpqNJmvpszQDqTCmfR1do0wpmkWktT/Fi6D1D10SWb6vUnWctm1L8dC5fNaH8z5v0bseiyOZMLp0I2beH0yGaTj2w25CObF99kyMIZJe28vpalnWmkMyztjF2xTXOhkI90bm/OtmJLaSdBEIQZqNLNbc3B6eaGUcAGC/if1swJEs5A6ax0yqm+QChZtVZfyklT/Fi6D1APEyab2nZtapbNeA+oO8q/DXNkc0E82ZTTzSiyaQtnHrJpC+eQSMy08/paYOdCSTqpYksVW4IgCMMR083WkHRzc4OTbm6wtAln0bs585PObHdzFi6dMVNOGj1j6T5APYyRsmnYrs001QulbO71kU1VlbZvEtA3Ua9stlvAhTWScMZMO6+vY+xcqBDPPCu2Bl0o5CeddKEQQRCEmbRP8aabtnBGSTe1CqcpFwgVXa0V3vGk1pquai0Jp9lj6T5APUwu608CZNOsG2m9/3r8h1Lww8gtm3N8ZDPokiCFbNrCKcumfUlQ1rLZbgEX1wCDaxTSGSPtzFI6k1Zsc9nZmXHFltJOgiAI/bRPddLNthZJNn1WocjppkbhpN2c5avW0ugZS/cB6mHqd9emv2wmvSTIXzj9ZDPsRtqIsineSJuHbNoJ56BA0rTTls5di4BdC4GdCyTmM3bMc9M/lzPHTd9sgVmOfPbOZPTMEJju0D3NoWuqwBQ3nZOBzhY3HZMY7RMlJjDamt1sbwLamoDt4x1aGwXGOWwb67C1QWCMw5bRbjaPAjZbBEEQRFZ02LIppJvbpXTTXoUSlG5qFs6iq7Ve4YwnnXEvgUxarTV1NyeNnrF0H6Bepv5kM9v1J0EPGo9sRl5/IsimfCNt4bK5miEKZ5q0syacXDo94jlfLZ416ZzrL529swTxVEnnDLV0usRTJZ2T1dLpEc8JavFUSadLPMepxdMlnQ3+0rllFEg8CYIgMqJdEs6k6WYO0hlHNo2r1krveYXt5syiWptzykmjbyzdB6iXqdv1JznLZk06Y+/atGVTsf6kaNm0hXNQYGiNxJvAMGfoTWD4LR/eBs6/7eznTCKdUdJOl3RmlHbGks6QtNNXOtOmnSSdBEEQqemcBnRMAdonA+0tQBtPN7dPAFqbgW3jGVvHAVu4bG4eA2ziwrnR8qJROKla667Wmrqbk0bfWLoPUC9Tl7Ip/W1XXrL5+x93Ysqm5l2bUYRTKZ1rHPEcChJPsVorSmfSim1I2plEOkPTzpgV2yhpZ2zpDEg7SToJgiCS0TmN1WlF4XTJZhOXzUa3cG4azYXTMlI4qVrr3c1pWrWWRt9Yug9QL1PeXZvZyWa0v+lKdlsZ9s4C9sxg7J4O7J4G7JoK7JwC7JwM7Ghh9E8C+iZwmoHe8YyeRqBnHNA9FuhqALrGAJ082ewcBXRY+XLhDa9wZpF2+klnbhXbWVSxJQiCINR0TQ9PN1ub4qebxginKdXaEX3V2lQXCOVbraXRN5buA9TT1OOuzUSymUQ498z0kU1BOD2y2eQjmw3Fy+aFN4ABTiTpXBM97byxTvpNp590prhQqKiKrXEXCpF0EgRBRMY33ZwYnG7WhNMKRrNwZptylqlaq16BZ1K1lkbvWLoPUE9TT7s27QdHEbJZk05RNuV0M4ps2sJZpGx2WMCF14HBNxz8pDNN2nljHbB7sSSdIRXbXC4UyrhimybtzLJiu4WkkyAIIpC46ebWcXDJ5qaAdNMo4UwnneXdzelfrU10gVAGuzl/J+E0ZizdB6inqRfZTFalSP9wwe5p6ipt/ySgf6KPbDbqlc0OCzj/OjDAEaUzy7Tz+lpHOj3imUHFNiztjF2xTXOhkI90tjVnW7GltJMgCCIatmx2TlULZxbpZkbCmUY2ja/WFnWBUOpqbfYpJ43esXQfoN6meutPvP96/Cux08qmIJye3236yKYtnLJsdo4uVjZl4RzIMe28vpYRWTqpYksVW4IgiJR0zXCnmx1TQtLNxmTppkHCmfsFQsZKZ/BuzsKlk6ecNPrH0n2Aept6kc08b6T1+1usVLJpXxJUuGy+xhh43Useaad9iZBSOut8Z6efdNKFQgRBEMmJkm7aq1DSpJvGCWdE6VRUaTPfzVnn1Voa/WPpPkC9TXVks/hdm5EqE0rZVNxIa4Js2sJ5TsBPOrNMO6+vA/YsAfYsdti9SGAhY9cCgfkOO+c57Jjr0D8H2CHQP5vRN0tiJtA7w40tnb3TgZ5pDt1TBaY4dE3mtDA6W4DOSQ4dEwUmOLQ3u2lrAtrGu9neyBnnpnWsw7YGgTEOW0cLjGLiucUiCIKoT1zppi2cOaWbGUlnVsLpTTkF6az0BUICqX5qlV21lkb/WLoPUG9TuV2bBsnmb7//EU02VetPOgv+3abN8Ktu4VRJZ9Zp53V+a+3eJQHSuUghnQvU0imKp590esRzplc840pnTTwF6exq8ZFOQTyV0tnkI52NKaWTp526X/oIgiCKpnsGo4s3VjqnAB2TgY4WoH0S0DYR2N7MaB0PbGsEto0Dto4FtjQAW8YAm7lwbrKiY5Bw5l6tlQOL3KQz6W5OE6q1JJwmjKX7APU4lZHNO971JzplkwnnJHN3bfoJ5wBn8DU3Q68Dg5yh14GhN9wMr/ZhjZvzb0rwW2tv2tK5JFg606adcaTTFk9ZOl3iqZLOyWrpjJp2qqQzStrpks4Gf+mktJMgiHqiZyYXzulMODtt4RRks20CF84mt3BuaWBsHg1sjimbKYUza9k06wIh77tiFtXaSBcISe+LRVZracwYS/cB6nHS3UibtWxGfYhkvGszZT3Cb6nvb7//AfRP4DQDfU1A33igl8tmz1iguwHoHgN08WSzaxTQaenhvCCcftI5JEpnVPFcEy6eN32kM03FNkraqarYpk07Y1Vsw9JOP+lMm3aSdBIEUSfYwhmUbtrCmWW6aaBw+ldrq76b04xqLY0ZY+k+QD1OputPyiibGfwA3E82HeH0kU1bOE2QzeFXvMJZdNppC6dN1hXbHXOzr9iGpp0xK7ZR0s7Y0hmQdpJ0EgRRZYLSzY4WSTab1MKZNN1MKZ15CWfR1Vrvu2M86YzbiEtarU2acsZ5h6QxYyzdB6jHqc9dm8XIJhPOEsimLZwDNhGlM+u08+Zahks6l2iq2IZcKEQVW4IgCLPpnRU/3Wwdn126afO/rYnIVzhNqdaOKKu1uaecAdXaaMJ5l4SzxGPpPkC9Tphsxq3S6pbN/H+3+Udk4fzt9z8c2extNFM2Oy3gvCicPtJZRNpZk86H1NIZqWKb4kKhoiq2xl0oRNJJEESFEGXTk25OLi7dNFQ4qVrrfo8s4gIhGnPG0n2Aep3yrD/x/uvFy2b0dNMjnLJsdo02QzY7LWD4ZUk4NaadKumMknb6SWceFwplXbFNk3ZmWbHdStJJEETJ6Z2tSDenBaebtcuCMk43Ewpn3rJpRrU22m7O/Kq12e7mDHuvpDFnLN0HqNcph2yau/4kVDhl2bQvCTJJNodfBs5xokhn3mnnzXXh0mnSzk5f6QxJO5NIZ9KdnX7SSWknQRBVInK6OTFCujk6nWwmlM7ihJOqtekuEIperaUxZyzdB6jn0br+pMKy+dvvf+Dfv/1urmx2WsDwS45s+kqnhrTz5jpg30MOonjuXeywZ5HD7oXAnoXA7gVuauI5z83OuQxbNndydsxm9M+SmMnom+HQy5POvulA7zSHnqkCUxy6J3NaGF32P05idE6UmMDoaHbT3sQZ79DWKDDOYftYh9YGgTEO20YLjGLiudUiCIIoD3K6WRNOTemm4cKZbcpZpmptsbs5acwaS/cB6nlKsWuzhLL522+/M+GUZdM04TzLCRXPAtPOG2uZdO5f6iOdS9TS6SeeYtqpkk5bPGXp9IinQjpt8ZSl0yWeU/zFU5ZOj3hOUItnHOkUxdMlnQ0+0kniSRBEieibw2Vzlls2/S4LCko3a8Jp1YFwppPOTHdzBkhnUuEsulpLwmn+WLoPUM9jvGze8a4/KYtsMuE0ZNemiqGXgHOcSNKZd9q52i2dN9a6pTNN2hlVOqOmnSrpTJt2+kpnWNo53kc8faST0k6CIKpC/xygj/8Uoncm0MN/8tA9DeiawuhsATomAe0TgfYJQBv/ecL28UDrOMbWBmDrGGALXxu12coGQ2UzVDoVwllotbYiuzlpzBpL9wHqedTrT7KWzagPg4x3bUa8QSwv2axJp4myKSaconSalHamkc49i7Kt2EZJO+NKZ008Ta7Y8t926n6pJAiCUGELZ+8sSTanctmc7BbONl6l3T4eaG1ksrltLFzCmZVslkA4s63WhgunOdJZTLWWxqyxdB+g3id016Zm2Yz3t07F7dqMIpv//u13M2Vz6EXGuRcd4RQZeNnN4CsMUTwHX/Uy9JqC190MvyGxGjgvYIvn+TXsAqH9Sx2KrNjuKHnFNkraSRVbgiDKSup0szHfdDOmdOoTzojSqajSZptyFl2tFd4/c6jW0pg3lu4D1PuUaddm2j59VNmMLZw+sskSTss8arIZIJ1+4hkmnUrxjCCdKvG8tY6hks48KrYmXSiUecWWLhQiCKIi9M9Nlm62NYekm/UnnN6UM7haW50LhPKt1tKYN5buA9T7mHEjbfiHPv/fbf6R6kbaINBlmcXQC8DZFyTpjJh2RhXPrNLOm2vTS2fSim2aC4X8pDM07YxZsU1zoZCvdAaknSSdBEHoZMe8kHTTFs6o6WZDfunmZgv4v9ZQdMpmtaq1SXdzZl+tpTFvLN0HqPcxRjYFynRJUJhsGi2cUaVTd9p5U5F0GlexDblQiCq2BEEQ6VGmmzOC001bOItON0slnKbs5vS+fxa2m1O6OyRNtZbGvLF0H4AGGmWz3OtPosimccI5+LxbOOOIp8608+Y6YP/DnIwrtrSzkyq2BEGYj5hu9oakm50tkmxqSDcjSqdu2Qyu1lZ9N2f21VoaM8fSfQAa5CObFd+1GVU2jZPOweeBszYJpFNX2nlzXQLpXBKcdvpKZw47O7Ou2Bq1s9OAF1GCIKrNjnnedNMWTlPTzQjCqVsydVZrvcIZTzrjvosmrdbGTTlpzBxL9wFooFc2pQpDGWQz6JIg44Vz6HngTIB0mpx22tJ5cBlw8GHgwFKJhxj7l0gsBvbZLHLYu5CzwGHPfIF5wG6buQ675kjMZuycJTET2DHDTf90zjQ3fVMFpgC9NpMZPS0Ckxy6JwpMcOhqdtPZBHSOd9PRyBnn0D4OaB/LaGuQGOOwfbTAKKB1FNBqEQRBZM/O+U662T8nJN2cHJ5u2sJZRLpZOuE0pVo7Yly1Nppw3tX4Nk8TNJbuA9CwMUU2o32wyyWbRkmnnXC6pLNEaacsnR7xfMhHPBdHl06XeIrSOS+ZdMriWZPO6cHS2RcknS0+0jkxRDqbfKSzUS2dHvEk6SQIokB2zQd2zgN28IZAH/QiAAAgAElEQVRJP78sqG8m0DsD6JnG6J4CdHHZ7JwEdEwEOiYA7c1A23jG9nFA61hgWwOwbQywlQvnFitfSiScVK11V2vjXiBEY+5Yug9Aw0bnrs2ksmnKrs1yCedzwJnnHOksY9p5cx1waFmAdEZJOxflkHbO9hFPhXRGSjunZJ92RpXOqGmnSzpJPAmCyBhZOF2yOZ3L5lRHOLtaJNls4rLZ6BbOraO5cFoknBlXa4vazRmrWns3TrU2+W5OGnPH0n0AGja6ZDNeZeFOBummHtk0QjgHn3OE05bOMqaddspZk86Qim2atLOwim1I2plIOsPSzpgVW0o7CYIokl0LMkg3m/SmmwHSqVsqqVobUq1NcIEQjblj6T4ADZv8ZNPnB9mJ+vHZyGYRlwQZKZ0DzwJnngXOPichC+fzwLkXFLwIDAjiOfCSl8GXFbziZuhVBVw2hwXxHH7dzXlBOm+tA26v90pn2optTTwzqthGSTtjV2ynlKBiOxoknQRBJGbXghTp5sTgdLMmnBYJZ04pZ3mrtel2c9KYO5buA9A4k7tsCsiyafLvNrOSTWOEM6p0KsXzRbd4qqRTKZ5RpPNVRzqHA6TzvCCdt3jSSRXb7Cq2aS4UoootQRBp2b0wPN3sne5ON7tC0s3t4/Slm6UVzojSqajSFlmtTSqcWVdracweS/cBaJwpWjbLcCNtlrJZk85uSw+DgnDGEU+T006ldOZ4oZCvdJp0oVDWFVu6UIggiALxTTdnBaebtnCalm4qhFO3TKaWzkqnnOoLhMJaeTRmj6X7ADTOZC+b9bVr02jhHHiGceaZZNJpctp5ax1waDnHkIptmrTTTzrD0s64FdtUFwr5SWdA2knSSRBEGHK62R+SbnZPiZ9ubi043VRIp26R1FOtDRfO/KQz292cKumkMXss3QegcSa39ScllM0sLgkyTjjPPAOc9pHOMqedt9Z7pTPqhUJGVGyT7uwsQcWW0k6CIKJiy6bfKhS/dLPT8HSz9MKZ7AKh+5mnnEVXa4V3WuGyS79qLY3ZY+k+AI17MpdN6UNa77KpTToHBdk8HSCeZU07b63nlwgFSCft7IxZsaWdnQRBFMTuRe50c+e8kHTTFs6gdLPRnHRTEE7dApk+5azv3Zyqai2N+WPpPgCNe/Jaf5J012YVZVOLcA6sAk6vEkSzgmln7eba5RlUbJckrNjON79ia9TOTgNedAmC0E+UdNNehRKUbrY3h6SbJJzZSKfZ1dq44Unaai2N+WPpPgCNe4yRzZLu2jRSOgdWCcK5yp1wVi3tvLUOOLzCK52pK7aLDdrZ6SedaXZ2+khn0p2dVLElCCIqexYBexYCu7lw7prHZHPHbKB/FtA/E+ibAfRNB3qnAT1TgZ4pQHcL0DUJ6JwIdE4AOpqB9iagfTzQ1gi0jQNaGxjbRgPbRgFbLX2UXjhN2c0p7eW8V+BuTp9qLY35Y+k+AI139O3arB/ZLFQ4z/0FOPUXQTirkHa+qk477Vtrj6xgHF7OsKWzxsOMg0sdbOk8+BBwYInD/sUCixz2LWTYwrmPs3c+Y888ibmM3XMkZjN2zZKYydg5w2HHdIFpDv1THfqmAP088eybzOhtkZjE6JkoMYHR3eymq4kz3qGzUWAco2Mc0DHWob1BYIxD22iBUUw8t1sEQdQbexYxRNncOdctnH0zGC7Z5DfTeoRTkM3tY7lwjmHCuVWzcG61gP8qr3B6U06q1t65S7JZlrF0H4DGO3nJZv5V2j+Mu5HWCOm0hdNPOquWdt72kU6PeCqk0xZPWTpd4rnIXzxl6fSI51wf8ZztI54K6XSJ5zS1eLqk0088J/mI5wS1eEaVTlk8XdLZ4COdJJ4EUXfsXZwu3exuCU43beE0Id2siHB6pTPfaq1XOM2r1tKUYyzdB6DxTpa7NouTTfPWnxglnKclzqySeMbL2We9nOPCec7meTUDL0i86GbwJTVDXDiHbF6ReBUY5oj/fPg1N7J0hqWdKulMm3bGls6QtNNXOkPSzkTSGZZ2jvcRTx/ppLSTIAgZWziD0k1bOKOmm+3jzU03KyOcplRrR4yo1tKUYyzdB6DxDu3aLFA4e6z8GXgaOPV0MulUiactm2dzls7BAOkcEqRzKEA6ReGMm3bGlU5bPLOq2EZJO2NXbKeUoGLLf9up+2WYIIj8CEo3d86RZFNONyeXM93kwlkN6aRqrf3Pacoxlu4D0KiHZLMi0jnwNOO0j3SmFc+zBYhn0rTz9jounY8kl06q2Mar2EZJO6liSxD1zd4l8dPN3mnlTzfrLeUMkM6idnPGqtbejVOtpcuCyjaW7gPQqCfWrs0SyqaOS4K0CWdNNgPEs6pp5+31aunUcaGQr3SadKFQ1hVbulCIIAgBl2wu9Apn5unmaP2CWUHhjCydOqq1RaWc9PvNUo2l+wA06oksm4r1JySbBknnuaeAU085onnqaemf10Ha6ZLOFGlnURXbNGmnn3SGpZ1xK7apLhTyk86wtNOAl2WCIJKz7yFvurl7QXC6WbssKCjdbCpPulkh4XyQMuUsr3RSnbaMY+k+AI3/5L5r84/6WH9ihHDa0lmvaeft9YJwRpXOgAuFjKnYhl0oVOKKLaWdBFEtIqebsyKkmxOD082acFrmUZHfcUZOOUe8Kef9PHZzBkhnUuEMkk6aco2l+wA0/hNVNmnXpqHSefZJxqmn3NRj2nlrHfDLeuDoo2rppJ2dtLOTIIj8kNPN2mVBMdLN7pB0s22cWzZNuiyo0imnj3RWOuWkdLNsY+k+AI3/JNm1GSybGe3a/D2BcBoglIUL57kngZMclXTWW9ppS+exR4Gjjwhw4Ty6Ajiy3OHwMoGHGYeWOhzkwnnoIeDgEjcHFnMWudm/0JHNfQuA/QuAffMd9s4TmOuwZ47D7tnAHs7uWQ62dO6a4bBzusA0NzumMvqnSEwG+lokJjn0ThSY4NDT7NDdxBnv0NXo0DkO6OJ0jgM6xzI6GiTGMNpHS4wC2iyCIMrAgaXA/iWMfYuAvfwv3/bMB3bPA3bPBXbNAXbOYuyYAfRPB/qnAX38L8Z6JwM9LUDPJKB7ItDVDHQ2AZ3jgY5G9hdY7WOBtgagbQywfTTQapnLf1dHOB9ETTkz2s2Zn3TG281JU66xdB+Axn/iymb+v9v8o/Q30hYqnWefcIQzSDzrKe28xfdz+knnkSDpXOaVTlE8faVzsVc6RfFMIp175qilsyaeM3zE00c6PeI5WSGeMaWzJp7j1eIZVzo94jkKaCPxJAijOcAbIfuXAPsWS8IpyOau2Vw4Z0rCOQXoneKWze4JXuFsHweXbG4fpV8q60o4TblAqLhqLU25xtJ9AJrgUd1Gq0c2y7/+JJpwjsqOs08Cp54ATj3p5vRTEk+rOfMXCS6bZ+1/fEbNuWclnnMz8LwPXDYH7X980cvQSwpedjP8igJBPO11KccelcRTkE4x7VRJZ9S0M6p0yuLpks55/tK5O0g6I6adsaSzxUc6J4ZIZ4S0U5ROj3iSdBJEKXEJZ0C6aQtn1HSzq7m86WYFhdObclZ7NydN+cbSfQCa4Cn7+hPdAqlVOmvC+UT24nk2Z/EcFNLOSNIZRTwF6fxFEM6sKra2eMat2KZNO+NUbKOknaqKbdq0s5CKLYknQRhFaLo5LyTdnFrNdJMLZ/WlM99qrVc440lnJOH0kU6a8o2l+wA0wUOyqUE4e0el5+wTjFMyOaWdfuIZJp2+4plz2vnL+mjSGSXt9KvYpkk7C6vYpkk7/aQzLO2MWbGltJMgysfBh5OlmztmZJBulkA4K5tyGlStvXffI51ZpZw05RtL9wFowqeMslmGS4Jylc6zTwAnVzI80klpJ4ZfBX5d71wipBRPH+lMc6GQn3SGXSgUt2Kb5kIhX+kMuVDIiIotv8lW98s2QdQzB5e5ZXP/YrVwZppuNpQn3aywcHpTzupVa2nKOZbuA9CED8lmyYXTVzzDpNNHPKuUdv5iS+djVLHVXbFNc6EQVWwJwhxU6ea+RcHpZk04A9LNmnBWIN2ssHB6pbNa1Vqaco6l+wA04SPKZqxdm3/Qrk1t0nl2pVc4Ke1Ui2dNOB+Ln3YWdaGQr3SadKFQxhXbrkaq2BJE2YiVbs6JkG62BKebtnCWLd3kwllV6TSnWjuSebWWppxj6T4ATfjE27V5J7Ndm/Usm6mE8+xKLpyPq6WT0k63cN5ex37PefzxEOl8xPyKrUk7O/2kM9WFQn7SSTs7CUI7h5Yp0s3F7nQzcBVKxHSzc3z5001KOUtbraUp51i6D0ATbaLJZka7Nn+vr0uCMpfOM48z2TzB/9FPPCntDJDOCBXbpDs7TanYJt3ZWYaKLaWdBFEsh5YL6ebS9OmmLZx+6WZHydPNuhDOdNJp4m5OmvKOpfsANNGmmN9t/lF3N9LmJpwnHnNk80SAdFLaKVRr+X7OE48Dxx9j2MJ53JbPRxhHV0gsZxxZJsHTzsNLHQ49JLDE4eBigUUOBxYy9i+QmM/YN09iLmPvHDd7ZgN7ZwN7ZrnZPZMzw2HXdAEunLumATunOuyYIjCZ0d/ipm8S0D8J6JvopiaezW56mjjjHbobHbrGAd22fI516GwQGOPQMVpgFBPPdosgiKzJIt3snxaSbjZVK92suHBGlk4d1dqEKSdNecfSfQCaaGPyJUG6pdA46bSF06Ze0k4/8YyTdv7ChdNGFE9ZOj3iudxHPGNIp0s8F3nF0086PeI5Vy2etnTK4hlVOmXxdEnnFH/pVImnmHYmkU5ZPF3S2eAjnbZ4GvCCThBV4fByJpyHHgYOLgUOLGHp5v5FwD7e0NjLhXPPXGD3HGAXb1jsnAHsmA7smAb08wZF32SgtwXomcjobga6moCu8UAnbzx0jAXaG4C20YztVjn5n2oL54OUKWfoBUIFSydNecfSfQCa6EOyWRLpPPMYcFLmcTenVvrwBHCac+oJ4PSTbs48peBpL2f/IrHKy7lnvAw8yzjH/3HgOS+Dzyt4wc3Qi16GuWgOi7zs5tf1wdJZE8+40rnMK50u8VySIu2MKZ1756ilsyaeM3zE00c6o6SdcaWzJp7j1eIZVzop7SSIfDiyQpLNh9zCuZf/HECUzd2z1cLZJ8hm7yQunBMk4RRks30Ml81R+sUxhXBWXTojV2sVVdrMd3OmqNbSlHss3QegiT6myWbVLgnKRDjPPAacfgw48ahCOqOK5xOOeJ6KKp4K6YwinirptMXzXIB4KqUzgnjaohkknr+s80qnLZ5UsaWKLUEQjCMrUqSbs9KnmzXhtMpNxYXTm3IK0lmiC4Royj2W7gPQRB+STc3S2WeFc+ZRJpsilHbGTzt/WcfSTpV05lGxjZR2Kiq2adPOOBXbKGmnqmKbNu0spGJL4kkQsTjySHi6aQtnpunmOLhks63E6WYdCadXOvPdzZmHdNKUeyzdB6CJPiSbZRDOR7zCmSrtXFm/aecv64ATK4OlM7RiG5Z2+klnmrSzqIrt9OwrtqFpZ8yKLaWdBJEPfunmgSXB6aYtnEHppi2c9ZBu1pVwmnKBkLSXM2K1lqbcY+k+AE28oV2bhkvnmUeA4z7SSWlnvLTzl/UMlXQmrdimuVDITzrDLhSKW7FNc6GQr3SGXChkRMWWr0/R/SJPEKYTO92cFyHdnBKSbjZWM93kwlk/0qmq1pq/m5Om/GPpPgBNvCHZNFg4T68AzjyCP+7cBU7kLJ71kna6pDMk7aSKrb6KbZoLhahiSxDRsWVTTjcPPuRON/dmkG52N1c/3ayzlNMrnflWa73CGU86STirM5buA9DEG9q1qZ8g4bQrz0w2Ke3MJO2MI51GXijkJ50GXSiUdcW2u5EqtgSRNUcfldLNZcHppi2cQelm/9T6TjfrUjhNqdaOKKu1qpSTpvxj6T4ATfyh9Sf6CRfOFY50UtqZPu38dR2TzlNP8N2lj3v3m554jMmmi0ccjq1wOLocOMY5uszhyMOcpQ6HH3I4tAQ4zDm02OHgIuCQmHguBA4skJjP2D9PYq7DvjkOe4W0c+8shz0zOTMcdk8X4MK5axr/51MZO6dITAZ2tLjp59LZP9FN3wSBZofeJs54h55Gh+5xQA+ne6xDV4PEGEbnaIlRQIdFEESHFS3dtFehBKWbO2cEp5s14QxKN0k4y0yZqrU01RhL9wFo4g/Jpn7UwrncdbFTTTop7QyXTj/xHBLE89d1jlyfXOmIpyydHvGMKZ018VyqFk9ROkXxVEmnRzzn+4hnTOmsiecMH/GMIZ2yeNrSuWNScukUxdMlnePCpdMjnqOADhJPos4R001bODNNN1sipJsN1Uw361A4vdJZdLU22m5OSjerM5buA9DEH5JNM5BlUy2cKyjtzCrt/HU9u7lWJZ2ieCql81G1dIriqZTOtGmnSjojpJ2idLrEUyWdEdJOUTo94qmQTls8Zel0iWdzsrSzOyjtJOkkCA/2zwWOrgCOLAcOL2P1/0O89n9wCXBgEWPfAmDffGDvPGDvXGAPr+jv5sK5awar3e/g6Wb/ZKCP1+p7eYW+pxnoHg908XSzcyzQ0QB0jAHauXC2WdWiji4OcoSzHNVammqMpfsANPGHLgkyB7900yuc9Zh2RhXPGGmnLJ1hFdu0aWcc6QxLO/2kM23aWUTFNk3a6VuxjZB2UsWWqHeO8d+nH+Xppi2ch3iV9uAS4MBiJpv7F7qFc88chks2p6uF0yWbTWrhbOc3SeuWwxylU7cEljflzK9aS1ONsXQfgCbZkGyaAfotxullHuH8485dJjAq8aS0M3na+et6hkc6V3r/M4ojncdWZFuxPbQ4+4ptaNoZs2IbJe2MK5018aSKLUGkpiacQenm4njp5s5p4elm9/j6STfrWjjTSWemuzkV0klTnbF0H4Am2ZBsmkOgcB5fzjixQuIRNycfVXNKEM5TjwGnHndzeqUPT7g586SCp4CzgniefVoBl81zgnieW+Vm4BkFz3oZfE7ieWCIY0vn0AsKXgSGJfH813rg1JPB0hn1QiGq2FLFliBMJCjdPLQ0ON20hTNNutklp5uj9UshCWdx0qkQzkKrtSSclRpL9wFokg3JpjlEEs6sxPNU1uLJpfNskHQ+7UjnuTjSqRBPlXQOStKpFE8unbZ4/usbnnJK0pn3hUIq6TTtQiGVdJp0oVDmFVsST6KCHH88frq5f4Ekm0nSzab6TDe5cNavdBZ3gVAc6aSpzli6D0CTfMJkM7ZwGiBvZUQlmqmk0088bdn0Szt9xbOiaee/1gvSGTHtLKJie/gh/4rtQVMqttOzr9iGpp0xK7aUdhL1iks2pXTTFs5M082JwelmTTit6lO3whlROhVV2mxTTkc6aao1lu4D0CQfX9mkG2nNFk5KO7NLO38NkM6kOzv9KrYm7ez0lc4UFwr5SmfSnZ1FVmxHg6STqAxyunl0hSSbisuCQtPN6THTzXGoq3SzzoXTm3IGV2uLuECIplpj6T4ATfKh9SdmEC6cyzgJpJPSzvC089f1wOmnQqSTKrbGVmzTXChEFVuiakRNN+1VKEHp5u5ZwemmLZyUbpJwKqVTb7WWplpj6T4ATfIh2TSDMOEMlU5KO9OlnXa19sxT7tt4XeLJb/CVb7G1L2Ty3BJsi6d0w7AtnceWuTn6MGepw5GHHGzhPLIEOLzY4dAigYWMgwscbOE8OB84ME9iLmP/HDf7ZnNmudk7kzODsWcGsGe6w+5pAlMddk0R4NK5s8VhBxfOnZOAHRPd9E/gNLvpawL6xrvpbXToEcSzZ6xDd4PAGIeu0QKjmHh2WgRRLo6v9Apn5unmlPjpZpVXoSiEs56l05zdnJRwVm0s3QegSTckm+bLpls4Ke3MJe0Mks7Tknh6pPNxf+lUieex5WrxjCqdh5cESOcir3SK4uknnbJ41qRzdrB07g2Szmk+0jnFK52iePpK5wSFdDallM4GH+m0xdMAiSCIKJx4gsnm8cfTp5u1VSiUblLKmTblfJAi5UwunTTVG0v3AWjSDd1IWw7hjCydlHYmTztF6RTFUyWdkdPOmNJZE8+lavEUpVNMO1XSGTntjCmdNfGcoU47o0pnnLQzjnSK4umSznHh0klpJ1FGTj4BnFjJKv/Hec3/GE83j/Dq/mF+M+2hJcDBxayKf4Cnm/vmMfZy2dwzC9g9E9g9A9jFLwjbORXYMQXo57LZx9PN3magpwnoGQ9028LZAHSOATr4b6Pbrfrif+tbOL3SmW+11iucVKet4li6D0CTbkg2SyScxx5WSCelnZmmnb+uZ+IpS6dHPEtasbXF0+SKrS2esSu2adNOkk6ipIjCeUyQzaPLmXAeloVTkM3987lwzmXCudcWzhlcOAXZ3DGZCWe/LZzNXDi5bHb/f/be80mu5Dzz7YH33rtuNLz3duAGg/EcT88xIIek7krkGHi09x6mG957DMbrXmlX2pVbSldX2v1PNB7ghvjxvR9O5jmZWZnHV+WpqueJeALYCC2jprs6C7/+vSffYUS/G0oScP4XAGc51vZoLVJ6qbD9ApDkAWzaBM5vIhjOBV5bBOBsWUjUskjf1sVKl8htW2roMrnty+V2CLAp/X2l3M5VSlfL7Vpj6Fq53evk9qx3KkJnz3qing1yezcq3aRv32avInCGsZ2mEduktjPKiG2Q7TSN2Ca1nWmN2B7yGbFNYjuN0BnCdmLEFi2GBtrNhf52kwNnqnZzSPnaTQCnAJ12RmuR0kyF7ReAJA9g0zZwfhMaPHOgs0WETgN4BkGnETwDoFMEzw4BPAOhMyx4rg0HnkHQGRY8ReD0g872VemP2AbazogjtokuFDJAZ6DtjDhim+RCIRN0Bl0ohBFbtJTauiqe3aydl4LdHC3bzd/BborACejUQWe00VoAJyKmwvYLQJIHsJkF2AwHndRULUNnVmxnR4nZThc615ihM9SIbdCFQhixxYgtisZo22p/u+kCZwK7eVCxmx+M87ebHDjL2W7CcirAWfjRWqQ0U2H7BSDpBDfSZgU4g8HTCJ2wnenazltv6KHT1oVCOujM2oVC2hHbDF0olPqILcATtVSt3Vwqw6bpsiBfuzk1mt18dwTsJoAzADrTukAoGDqR0k2F7ReApBPApgXg/NoPOM3QSU3VXmE782s7b73BgHNNsO3MwohtXnZ2pjxim6WdnSbohO1Es9wodrO+OthuHp3hbzc5cMJuAjhjAWdI6NSM0kYdrUVKNxW2XwCSTgCbloCTNyJ4BkInbGc6tvPWL6JBZ+KdnSboLPDOzlgjtgG2MxZ0xt3ZWcgR20EE6EQL1rbVuXazeVn6dvPQJAU2YTejAiegMwR0pmw5kdJNhe0XgKQTPLdpETZjQKcEnLCd+bWd/HnOzrV66MSIbfGO2Ca5UAgjtmih277Gs5utK5PbTQ6cSezm71W7Ocg+7GWlAE4FOvO/mxMp3VTYfgFIegFsWgbOCOBJTfPDQydspwY6I4KnFjrzMWKboZ2dRujM0IVCaY/Y4kIhNMttX03Uxs6XVmY3WzhwMthsZHazoZqonv3811Uy4Jzj9PgsouMziY4xu3l0GtGRqc7P5WH283iQTRccYM9ufjCG6P3RRO+PInpvJNF7IxzY/P1Qot8NIfrdYKK/YOO0f16B/nkF0X0Apwyc8S4Q+j6k5URKOxW2XwCSXgCbhetXfsCZFDphO/NjO2/9wvnf7lxL1LlGqGg7V3ltX6l0BVHb8ty2LiNqXSqX286WJUQti702L/LaJHxPmxawCu+BxvleG6qUVjqtn6d0LlHdHLm1DDprZ8kVbWfNDK/Hpwud5vXYVKccOo9NITo62euRSUonOj08Qe6h8USHxsk9yKDz4Bi5B0YLHeX1g5GsI7y+P9zre8OEDvX67hClg53+fpDSx4h+V4Gi6bV9jQKcAmw2L3GAs0kBzroqDzZr5zLgnK0A5zQGnAw2D00iOjRRAc4xDDgF2HyX/XImBzgrUACnD3TmbzcnUtqpsP0CkPQC2CwscPLGBU8HOOeXnu3MN3jGtZ2335Chs2utHjo7V/tDpw48W9nXLAl0uuApQmd1POhUwZNDZ93sZNDJwVOCzinRofPw+FzwdKFzbHzoFMFTgs5hwdCZA56PEf0O4Imm0I61wXazabG/3eTAmardHEYSbP4F7CaAMyp0pjdai5R2Kmy/ACTdADYLD5yJoLN5vtBqfVsWKF0ot3WRoYuJ2lhbFxO1LZHbvtTQZXI7litdoW/nSqWriLpYO1cRda2W273G0LVye9YpXa9v7walDDb7+J8MOm+/YYBOATw7/WxnBOiUwHOxHjy10LlAD5054FlpAE8NdHLwVKFTAs8ZBvDUQCcHTxU6c8BzogE8NdAZynaOyoPtBHSieWrH2vh2s74qud08MBZ2MwFwAjp1wJn+bk6k9FNh+wUg6cY2iJVDVdhMAp4ycPqAZxB0GsFzsQeerVHAc1k88MyBTgE8Oy2CZ58AniJ0Bo3YBtlO04htUttZiBHbpLYzrRHbw37QmcB2GqEzhO3EiC2aRjvWBttNDpwmu1kXx25O8Leb7w6H3YwAnbYBL4tNe7QWKf1U2H4BSLqxDWPlUD/gjAWdTVXhoBO2Mz3beftNoq51MnSGGbFNYjtN0BloOyOO2IaxnVGhM8h2Rh2xDWM7o0KnC54YsUUzUpPdbF2uwKbhsiBfuzldtpuHA+zm+6NgNwGceYTOZKO1SOmnwvYLQNKPbSAr9QYBZ1TwpKYqA3SGtZ1hwRO204VO13Ku88Az7RHbtuUYscWILVqu7VgXzW42LgxhN2f5200OnLCbAM6CAGc6o7VIeaTC9gtA0o9tICv1hgXOWNAJ21k426mDzqxeKKQdsc3YhULaEdsMXSiU+ogtwBM1tHOdwW6uSN9uHpmSgt0EcPoBJ6DTDzqTj9Yi5ZEK2y8AST+2gayUGwU2o4CnBBxTPSUAACAASURBVJxRwBO2Mxl4cujsXh8AnWv00JmlEdsktrNQI7ZJbKcJOgNtZ8QRW9hONEk718t2s311crvJgdNkNw/FsZtDYDcjQKdtsMtqQ1lOH+gEcJZPKmy/ACT92IayUm5c4AwHnZXxoBO2M2XoFMDTNGIbd2dnnBHb5kV5GLGNu7PTBJ0BtjMWdMbd2VnIEdtBBOhEpaZmN+cF2M2pIezmaNlu/h52E8BpCTp9RmuR8kiF7ReA5Ce2waxUmwQ4g8DTA835uc2BzAW51d1cG7ijU9jT2eazp1NnNk17OqWG2dHJ9nR2+ezpVAHTrWZPp9QN+qp7Om+/6e32xIhteYzYJrlQCCO2qK5d6x3g7FxL1MGmItpWErUx2GxdRtTCgLOZrUJpWuj87DYw2KyvdOxm3VyiWvbzWDOL6PgMp8emER1lP1dH2LObhycSHZpAdHCc0wNjiD4YTfTBKKL3RxK9P4LoPTZO++5Qot8PIfod+2XJX1SgQQVwhoDOeJYTKZ9U2H4BSH5iG8xKtWkAZzjorIoHnVrwDAOdiz3obIsCnRrwDAOdWvBcLYOnCp1G8AyCTgN4SsD5hgOd4v8f/r8n2k7xtXQKgCz+d0j/nQw61a9RG4NO9WvMgb9VgM7Wxd73rln53vLvuQie4numsUpopdeGeUIZdNbP8Vo3W+gsubUzWWfIrZnOyoCzhvX4VKfHpgid7PXoJKETvR6ZIHS8A56Hx3k9NFboGLkHR7OOkntgJNGBEU4/4H8O9/r+MKFDvb43ROhgr+8OEvqYA56/r0DLsV3rGXAKsNnOfhHFgbNlKQNOETYXeMDZUOUBZy2zmzXslz3HZxAdm+4BJ7ebHDYPjWfAOVYBzhFORdj8/WAHOP8CwAngTAs4Q0KnYjmR8kmF7ReA5Ce2wawUmxZs+oEnNVc5bWJ/6m6ubalWqnmOs3Whpso4LR+llbokt+o4bccyr+387+pI7XKizhVKNc9x8nFaqQFjtT1rvXYLf1fHanuDxmlZ+Y7OO2847U4bOlfqodMFTxN0LtFDpwqekaCzygCd83KhUwJPE3TONEDndA84I0PnJAN0TsiFTgk8TdA5WgOdAnjGgs4hBujk4JkBAEILCJsbktnNxuoU7OZ42M08AiegMwF0+lhOpHxSYfsFIPmLbUArteYDOLXQ2VSpQGdVPOjUgmcY6AzxLKcKnSbwDAOdWvAM8SynCJ3dPtAZBjxd6HwzFzo5eErQudYAnavN0BnFdorQKdpOE3Ry8JSgszo6dEaxnWGhU7WdEnROiQ6dUWxnWOhUbacEncOCoRO2s7wbxm66wGmwmyJwhrabk2S7eUC1myNhN1OETttAVwyNMlqLlFcqbL8AJH+xDWil1nwBpwqezuVBlbCdtmznnTedkVsddJbriG0o22l5xDaU7dSN2I7EiC2aADb97OZKGTZbVLu5INhuusAZ0m4eGBPCbg6yD3DFVgBnSOAMf4EQUl6psP0CkPzFNqCVWvMNnFrohO0svO2886YHnSp4RoLOINtpGrENYTsLMWLb4AedCW1nWiO2R/ygM4HtNEJnCNuJEdvyafdGou4N0exm8+Jgu1k7x99ucuCE3QRwZrBhd3Mi5ZUK2y8AyW9sQ1optRDAySsBJ2xn4W3n7TfM0Bl3xDaJ7TSN2AbZzqgjtkkuFDJBZ5DtjDpim+RCIRN0Bl0ohBFbVAebJrvZvip9u3lsWnK76QJnBRoDOAGdcaEz13Ii5ZcK2y8AyW9sQ1qptJCwaYRO0XaawBO2Mz3bGQY68zViG3ihEEZsMWKLWgdO0W52rk1uNzlwmuzm0Th2c5gMm7gsKBF02ga5YmnQaC1Sfqmw/QKQ/MY2qJVKrQBn4zwzdMJ2FsZ23n7DWZsirlMJHLG1cKFQ5BHbjF0opIXODF0olPqILcCzqJum3WyoUmDTdFmQj910V6HAbgI4s1O/0Vqk/FJh+wUg+Y1tUCuV2gBOX+iE7SyM7eSrUvi+zjgjtvm4UCjtEdss7ew0QWeWdnaaoBO2s/Tbs0mxmxw4Bdg0rkIJazdnhbCbE/ztJgdO2E0AZ2ag07OcSPmlwvYLQPIf27BWCrUKnLywnXZs5222KqWPQadoQMX/e/6/0y0Arvg6xNfYKbx+9b+xY4X+69MuQCf/2rpfdwabboXvmwid/PvdXC1UeK/wX2A0VTmwyd9n4vuwkYFnwxy59bNZZ8mtm8k6Q27tdK8104hqWWumOj0+Rehkr8cmeT06kegY69EJco+MJzoyTu7hsaxj5B4azTpK7sGRrAw4D44gOjDc6wfDhA71+v4QoYO9vjdI7ruPEb1bgRZLezYz2NwYwm4u97ebDfPTt5sfjILdzDNwAjqjAmcudCLlmQrbLwDJf2zDWrHXFmyGhk7YzvzbzjtJoHOtHjpF8NRCpwY8+ddOC50qeEaBzmo9dIrgqYXOuQbonG2Azplm6Kyd5oGnFjqn6KFTBE8VOo+OzwVPFzrHGqBztBk6deApQecwA3QOMUPne48BPIuhPZuT282mhcntpgucsJu2oNM2xBVbAZwIEYCzLGIb2Iq9toHzq6+/IWqaK7d5nqaVcluqcts6n6hlvvNn63yi1mpNF3ht410ot32Rpotz27FE6VJ9O5cpXU7UJXaFvt0rla6S27Na6Rp9e9cqXSe3bz3R3Tcd2OzbmAuePetDgGdE2xkGOqPYTgk6U7KdUaAzlO2clgfbGQE6A22nAToT205AZ+bby4CzZ6MzUt/FYLOT2c0OdllQ+wqituVErcxutiwmamYj7k1srL2R2c36ec6Ieh27mbaW2c2aGUTHpzvj5kenMOCcRHRkItHhCc7I+CFmNw+OITowmujAKGf0+/3hRO8NI3pvKNG7Q4jeHUz0ewacv6tAk/ZDAGd04JShEynPVNh+AUhhYhvairm2YdMBzjkhoTMEeHLYbPGDTh14hoFODXgmgc7OfECnATyDoPPuGw509m3SQ2emRmyXpD9i21SV8ohtgO2MA53HJqU8YhtgO2NBZ5DtzABcobmw2cthc4MHnF1rvWezJdhcZgBOATYbKmXgrOPAKcDmMfZM89HJMnAeGseAU4TNkTJwvjvE6e8HOc8L2wa1UimAMxF0IuWbCtsvAClMbENbMferr79mzSB05t12VlM825kyeGbFdorQKdlOE3SuL9yIbZsGOkON2C7M/ogtB89SHLGF7cx2+7bo7WZXgN1sXRrCbs7zt5vHpsJuZq0AzgTQCeAs51TYfgFIYWIb2oq5HnDahU4HOOfAdtq2nXffcJoDnRix1UJnoguFCjRim7kLhQCdmWjf1gC7uSZ9u1kzI7nd5MAJu5kX4AR0xgVOPL9Zzqmw/QKQwsU2uBVjZdi0D54ydIYFz8pw4NkSATzL3XbefdODThE80xqx7Vodb8Q2LxcKpT1im48LhWKM2B71g84EttMInXEvFMoAeJVrdXaze72/3WzjwOljNzlwpmk3PxgBu1lA6LQNb8VYpLxTYfsFIIWLbXgrxn711ddOix46YTtTt5133yTq2+y1d5MMoOruTrdsb6dUBqDi7k6+v1M0nzn7O1fIVXd3iuazjQGousNT3N3plu3tlMoAVNzdyfd3iuYzZ3/nXK/i/k4RQKX9nTPluvs72e5OcZXK8alKGYCKuzv5/k7RfLoVdnfyivs7RQCV9neOlntQgM8D/E9ld6dbBp/i7s73FQgV93e+J+zuRAtXP7vZqdrNlSHsZnWA3ZwZwm6Oj2g3B9mHsxKsbXAr1iLlHQBnGcU2vBVjXeA0QmfhwZMaZ2ugE7az4Lbz7psMOrcYoHOTP3TmgOdaPXhGhU4OniJ0SuAZATpzwLNaD55RoFMCz9kG8DRB54xc6MwBzyl68IwCnRJ4jjWApw46R+mhMwc8hxnAE9CZifZt1djNDbLd7AxhN5sC7GbdnBB2c1KA3RwJuwngLIoi5R0AZ5nFNsAVW78UgTNDtpMaZxvAE7YzFnSGBU8VOu+8kQudInj2+tlOHXSGsJ0idIa1nTnQqYLnYgN46qAzhO0UoTMt2ylCp2g7tdAZwnZK0JmS7RShk4OnETpD2E4JOgGeBemJbYLd3JyC3VwQ3W4eDbCbB8fAbgI4i6oIAuAss9gGuGLql1997TYcdBYOPF3ghO20bzs5dJ7YQnRis9e+TUo1N9q6z3muU7rWqe9znrrLhVbIVZ/vbF/mPd+Z84wne86zTXnGs3URUavwfKfbaq/G5zwrNc95zvWqPuPZIFR8xrNe85yn9IzndPn5TrdTvKrPeR5n5c94Ss95jvcqPec5Vq77nOdouYdGER0a6fQg/1NzsdCB4UQHhnkVLxf6YIhX8XKh94XnO9H0m4bdbFnsbzfd3Zs+dpMDJ+xmpsr/fWAb4IqtCALgLLPYhrhiqgic0cDTAnSWtO00gGeg7TSAZz5s5503GHBukcHTBJ26VSq9KnhGhE4XPFfowVOEzo5lwdCZA54LNeAZETpd8JyrB8+o0Gna35kEOl3wHG8AzyjQOUoPnTngGRU6+QVDGQC0UuqJbUQntnoTC+5UAptE6FrrTRvw6QJ3fH2pMy3Qspik56Cbqh3z31jlWf56ZjfrZhHVMnvPTf2xKZ6JPzrRse6HmW0/xOz6wVGOPf+AWfP3mSV/j1nxdwcR/b4CzUMBnABOJF4AnGUW2xBXTNUBZ9ZsJzXNVspgs1kAz+a5clvmaVqZ29YqpfPltlUbukBu+0Kli4g6WEXw7Fgst3OJ0qX6di1TqkBn9wp9exhw9vCuUrqaqJe1ZzVR7xp9+9YS3XtTsJxbAmxnFOhcp4dOCTx10BnCdnb42c4o0LlAD50SeFbGt53qjbb1caBzqh46RfDUQmdI2ymtUjFAZxTbKUHnUDN0wnam15PbFdjcJANn11pmOAXYlJ6XXuqNpzcLsMlHzfloeT0HThE2md08PlUGziNszFuCzdEecB4YwWBzmAyb7z5mHcxKseK/D2wDXLEVQQCcZRjbIFcsNQFnlmxnLnAK4NksgGco6NSAZ96gUwDPSNBpAM8g6DSBJ4fNbhN0CuDZ4wOeRugMYTt1I7ZJbWeUEdswtlM3YpvUdhZixDap7SzEiG1i2wnoTAc2DXazO8Buti9PwW5Oj243D8BuAjiLowhCBOAsy9gGuWJpEHBmxXZS4ywzdMJ2FtZ23nvTqQk6E9nOAo3YJrKdBugMtJ0RR2zrZ6U/Ynt8csojtgG2MxZ0BtnODMBbMTbIbnLgTNNu1s3yt5sucPrYTQ6csJsAzgwXQYgAnGUZ2yBXDA0Dm1mynWboLKDtNIJnmdnOe28SndzqNAl09m4oghHbgAuFMjFiG3ChUDGP2MJ2pgSbGrvZuzHAbq4ItpscOEPbzSnBdvPgqAC7CeDMN2wCOgGcSPQAOMs0toEu640KnLZtJzXO8grbadd28v2cWujEiG2kEdskFwoVasQ2cxcKATpD99TjEe3m6mC72bIwwG7Olu1mTQy7+YFqN4fAbgI4M1kE4QFwlmlsA13WGwc4bdvOYOiE7SyY7XShc1s6tjMKdAbaTsOIbV4uFEp5xLZhjnnEti7uiK2P7Yw1YpvAdhqhM+6FQhmAuqyWw+ZJ1W5uim43W4Ps5rzodvOIajdHw25mCDYBnABOJFoAnGUa20CX9SYBTpu2U4JO2M7C2M4eg+1MGzr9Rmx7/KAzQzs7jdBZpYHOpCO2MXd2mkZsk1woZILOuDs7MWKbEDZ3yHbzxNbkdpMDZ5p28/A4f7vJgRN2E8CZ0SIID4CzjGMb6rLapLBpEzypcWZI6ITtLIjtvPsm0amtQrcQndysdJPTExuVbiDq20DUt15u7zpWYQ+otCN0NVE3ex3SflFh9yjfSSruLuV/71ym2Xu6xKm6M5V/T9Sdq3wXq7SnVXg/iHtepT2wwn5Yd4essl+W751tmOW1cRZRw0yn9TOUTvdaN03oVKe1U4RO9lozyevxiUQ1rMcneD02nnWc3KNjWcfIPTKadZTTw7wjnR4aIXS414PDhA71emCI1w8GEx1g/WCQ0MeI3n+M6P0KlDctu9m21N9uusDpYzc5cIa1m+4qFNhNm7AJ6ARsItFSYfsFIPZiG+yy2jSB0x50hgVP2M7IttMInhrbyVelqNCZA56bDODJoXNDMHRK4MmgMwc8V5rBU4XOHPBcYgDPRXrw1EJntR46JfCcFwyeHDpF8BShMwc8o0DnFD10iuApQqcJPF3oHGuAThU8o0DnMD10iuApQSfA04NN0W5uC7abHDhNdrNFtZvVwXazdkaA3RwPu5mRAjgBnEg6qbD9AhB7sQ12WW3awGkDPKNBJ2xnXm0nX5USGzo36qHTBU8TdK4xQGdY2xkFOgNspwk6k9hOHXSGtZ0SdE7zh84kttMEnUG2U4LOEcHQCdsZrqd3OD213Rt15+PtfRw41zPgXOuNpneyUfQOcaXQUm+kvIWNkTdXC6Pilc5YOB8Bd58zZiPeNWys+/gUZ2z72CRvRPvIOKLDbBT7EBu75mPWH7CR6vfZ+PR7DDjfrUBTbph/L9iGuiwXQcRU2H4BiN3YhrssNl/AWUjo9ICzBG1nLPC0bDu10Bl3xDaE7dSN2Hb7QCcHz7RGbEPZzojQ6YJnhkdsXfDM8ojtoPKEztM7GXA+LgNnnwCb/IKunnUKcLLnniXYZM9ucuBsrnbaVOXYzUa2CkULnAJs8ueE+XPBRzhwirDJ9m4eGC4D53vsGd0MwFkpFsAJ2ETSS4XtF4DYjW24y1rzCZuFBs940AnbmTfb6QedGLHFiG2oEdsQthMjtvHtJgfONO1mwxx/u8mB09dujoTdzCBsAjgBnEj4VNh+AYjd2Aa8rLVQwFkw6Gyaqeksuc2zNZ2T25a5SucRtbKKf2+tlNtWpXS+3PZqQxfI7ViodJG+nYvldgnA2bWEqGupvt3LlC6X27PC0JVye1cpFfZ23nuT6PQ2p4HQmbULhXTQmaELhdIesc3HhUJpj9jiQqEU7OZmf7vJb3b2s5scOMPazdppwXbz8Bh/u+kCp304K8VG+XeDbbjLYhFETYXtF4DYjW3Ay1oLCZyFAk9qnBETOjXgqYPOFgE6W2JCpxE8g6DTAJ466OwSodMAnkHQaQTPIOhk4Hn/TR/oDBixTWI7CzVim8h2GqAz0HZGHLFNZDsN0FkzKeUR29Hpj9geGGIesf2ghKGzf5cHnCa72afazbUh7ObiALs5Nw92c5gMm+/BbgI4s1kEUVNh+wUg9mMb8rJUG8CZb+ikxhle8wmesJ3hbOf9txzw5NAZynZGhM7AC4UyMGLbtrAIRmwDLhQyjdgmsZ2FGrEtB9spwebjucAZ1W62BdjNpqrodvOoajfHynbzIOxmlmETwAnYRMKlwvYLQOzHNuRlqbaAM9/gWTDohO0MZztjQSdGbAu2s7NQI7aZu1CoxKBTtZuntqdgN5fkwW5O8LebHDhhNwGcRVAE0aXC9gtA7Mc25GWltmHTCJ1G8EwAnbCd9m3n/beITm8n6t/uP2KbjwuFTCO2QbbTNGKblwuFUh6xLfSFQrFGbANsZyzo9LGdpTxi27+b6DQDTnH35km+e3OLfvdmN9u9yaGzY4VTcfdmq7B7s5kbzvne7s0Gtnuznu3erJvJ9m9Od3ZvHtfs3jzCdm8eHsuAc7T3/OYHHDj57bSDybksCE27cf/9YBvyslQE0QXAiRARoDNLwJkv25kDnLCdCWxnWPBcaQZPfmttP4PO/m1eT28VyqDz1GavHDhPbSI6udHriQ1C18vtW0fUt1Zu7xpWYW9oz2r5pt1u4bXzG3pzbvJlN/xKNwALQK/eIOyCp3L7cNuC3FuLXfCskivdiiy8z9wblcUVP8ItzNJtzcItzg0zlE53Wj9N6VSiuilKJzutnSS3RrCdNRO8Hh/POs7rsbFCx3g9OtrrkVFER0d51vPISKLDI5QOd3pomNKhTg8OkXtgMNFB1gODhD7mgOcHFcXXgT0ycPKRWg6bfJy2TwOcXWuIOjlsMsPZLozUti5hsLlIhk1+YZALnLMZcDLYrGGGUwROPlIrwSYznAdHycApwqZ7Oy0K4MxWEcQUACdCRADOLAJnPmynFjphO+3ZzntvhYTOrbnQycFThU4JPHXQuc4AnSp4iutdhPUvRuhcroHOpWbo7PCDzgUG6Jxvhs5mH+hUwVNdERQEnTngOVUDnpP14BkFOiXwHKMHTx105oDncAN4DtWDZylB55k9RAO7nfYbbqc9sYWN026Sn9/s0Ty/2blCHqfl61Ba2UhtCx+prXTGaRvZOG0De36zXhypncpGapXbafmFQUfGEh0e7fSQME57gD2/+YEyUoum2iT/frANelkpgpgC4ESICMCZVeDMh+20Ap2FtJ1hwVOFThE8C2k7c6Bzuxk607CdOugMZTtX5sF2irtUA6AzjO0UoTM12xkFOsPYzgl5sJ1RoDOE7ZSgs4jA88wex24O7Hae35SA0+d22l5+YdAaBpwCbOY8v7mIXRgkwmaVHjjF5zdr2fObNez5zeMcOEXYHMNgU31+c6jT9wcTvQ/YzBpsAjgBnEhwAJyIG9vAB9gsnO2kxumwnVmynfffIhp4XA+dSUZsA22nCTrXmEdse9KGzrgjtvMT2E4TdIawnVFGbJPYThN0BtnOqCO2pWQ7w9pNDpxp2s2mSn+7yYHT126Ogd0sUuAEdAI2Ef8AOBE3tqEPwFlY20lN04maZujbPFPpLLktsw2dI7d1rqbzcttWKbe9ymlblff39vlyOwTY7OBdkNvOhUoX5bZrsaZL5HYv1ZTBZo8Anj3Lla4g6hXas4Kod6Xce29GhE6fEduTftAZwnZGHbHl4JnaiG0I2xkVOl3wzPCIrQueEUdsj44u4IjtoOxCZ6Dd3BZgN9cG200OnKHt5sxgu3l0vL/d5MAJu5lp2ARwAjgR/wA4ETe2oQ/AWVjb6QDndEvgqYFOE3hy02mCzg4VOjXgGQY6teAZBjqXetDZ4wOdPQp0quB53wSdGLHFiG0aI7YJLhTK+ojtmScc4OSGM6zd7N0QbDc7lgXYzSrZbtanYDcPjYTdBHAWXRHELwBORIpt8ANwFtZ2ytBpAM8g6DSCJ2xnZNt5n91cO/B4shHbQl8oFAs6s3ShUMojtlm6UMgEnaVyodDZvQF2c3se7OaCFOzmBNjNDDTNf0fYBj7AJpLlADgRKbbBD8BZeNsZCjphOwtnO++/5QOdQbbTMGKbxHYWasQ2ie00QWeg7Yw4YpvIdhqgM9B2ZmDE9uAQ84jtAcvQqbOb/TuT282O5enbzeOTA+zmKNhNAGdRFkGCAuBEpNgGP8CmHduZC52wnVZt5/23iAZ2BENnpnZ2FnDENu7OzoKO2GZpZ2fKI7ZZsZ1p282uVf52kwOnn92snxXNbvJVKL52c7B1MCvF5uPfE7bBD8CJZDUATiQntgEQwGnHdlLjNNhO27aTg+f9t3Khs5hGbAN3dmZ9xDbBhUJZH7EtlZ2dZ/dq7OauYLvJgTO03VxCgXazca6/3eTACbuZqQI4AZtI4QLgRHJiGwABnPZspx46YTut2E4JOkPYzkJdKGSEzgDbaRqxzceFQmmP2GbqQiETdAbYzljQ6WM7bY7YnnvSs5s5sKmzm1sU2FTtJgfONO3mdAU2Y9hNFzjtw1mpNV//nrANfwBOJKsBcCI5sQ2AAE57tpMap3mF7bRvO92ba3ekZzsLNmK7Kg8jtnF3dhqgs6UyDyO2MXd2FnTENubOzqyM2J7bS3T2CaKze4jO7CY6s4toYKfzM9K/nej0NqJTbHXQSfaeP7GRqG8DUd96ot61TntWE3Wz92kXe292LiPqWErUvthp20Ki1gVErez91FJF1Fzp/MKiaa7zHmmYRdQwk6h+BlH9dKK6aUR1U4lqpxDVTiaqmUR0fALRsfFEx8YRHR1LdHQM0RH2fTk8kujQCKKDw5weGEL0wWCiD9gamvcr0JQL4ARwIoUNgBPRxjYEAjbt2U5/6ITtLLjtvP8W0ZkdQh93OvA40cB2r/3biAZY+7fKPb2F6PRmuacYdJ7aKPfkBlYGmydZT6xjZcB5Yi1R3xqvvauFrvIq3mLLobp7uabLiLqWynXBc7HcjkWsC+W2L2AVvtdt84UKv5xorfTKgbN1HlHLXKei7WyeQ9Q822nTLKUznTbOUDrda8M0r/VTiRqmEtVPETrZa90kr7UThU7wWjOedZzc42NZx8g9Ntrp0VFExxh4Hh1FdHSk0yMjhA73eniY0KFeDw3xenAw0SHWg4OEPuaA54GKdHv+SQacexhwMtjs30HU/zjRaQ1wnmC/UOlbT9S7jsHmGqJuATg7BdjsWMKAc5EDnG0MOFuqGHAKsNk4Ww+cEmxONACnAJuHhjPgHOoA5wEGnBmAs1Jrvv9dYRsAAZtIFgPgRLSxDYIATru2U4JO2E67tpOP1krQuUMPnSJ4aqFziwE6NxmgUwFPETp14ClB52oDdPqB57Jc8OTQ2bXEAJ2LgqFTAs8qPXiK0GkEz9kG8JxpAM8o0DlFD50SeE4IBk8XOsfqoTMHPHXQOcIAncP00CmCpwSdKYPn+X3BdrN/e4DdXBdsNzlwhrWbjbOC7ebxCf52kwMn7GZRwyaAE0H0AXAi2tgGwYIBZxlBZ1TbSU3T5DZPd9o03ft784zctsxUOiu3rbM1nSO3ba6m83LbXqm0Krcd8+V2CrDJ/965QNOFRF0CeHYtym33Yk2XyO1Zqumy3PYuV8qg88FbRB++RXRmZzLbGQU6A22nAToT284I0BloO03QGWA7Y0FnCNspQicHTxN0JrGdJugMsp1RobOQtvP8PsFuPiHbzYEgu7kxhN1c7m83XeBM026Ogt0EcBZ1ESRsAJyIMbZhsGDAWWbgGcV2UuNUPXg2ieCpgc4w4KmFzjDgqYHO/khqxAAAIABJREFUMOCpg85OATqN4LlQBk8ddGrBMwx0asAzLegc2J7yiO0G84jtibjQuTLlEdsQtjPqiC0HzyyP2LrgGXHE9tjoAo7YDkoGnYF28/H07WbbwuR2s2Yi7GZGWqh/V9iGQMAmksUAOBFjbMNgwYGzjKAziu2kRs0ILR+ZbYr63Oac3IZ5blMdnW2rzB2NbKvKHaFVDVe7YXyWAwr/u3aElo3NcshRx2eDnts0PrMpjNCK5Ts53a4ierCf6OwuDXSK4IkRW4zYltiIrcluntmV3G52rciD3ZwSYDdHh7CbAE4AZ7aLIFEC4ESMsQ2D1qAT4KmHThN4NongqYHOMOCphc4w4KmBzjDgaXpmk0OnETwXy+Cpg04teIaBTg14qtD5YL8HnWd35mfENnMXCmmgk4Nn5BHbfFwolPKIbZYuFDJBZyEvFDr/lL/d7I9hN3tW+9tNDpx+drNxdjS7eWxcsN08MAR2s8hhs5ygE0GiBMCJ+MY2DFoFzwzAYNFAJ2xnirYzADw/fDsedMYesQ2wnaYR274CjtgmsZ0m6AyynVFHbBPZTgN0BtrODIzYHhpiHrE9GACdLmyqdnO3bDd9V6GEtZtLg+1m8zx/u8mBE3YzU7Xx7wnbMAjYRLIWACfiG9sQaB06AZ65wAnbad92StAZc8Q2yYVCphHboAuFsjBiG3ihUATozNeIbcO0mCO2CS4UKtSIbVjbeeFp2W7yVSi+dnOrDJu6VSii3fRbhRLabs5Ibjc5cMJuAjiLpAgSNQBOxDe2ATAz4JkBGCwa6CxX21lo8PzwbQ84MWKboRHbBBcKZX3EtpA7O9Oym33ro9tN4yqUNO3mCAU2YTdLBTYBnAiSGwAn4hvb4Jcp6AR46qETttOO7fxwvwOd53Z5PbuTdYdcDp5ntsvl0DmwVW7/FlYGnP2biU5vEsqA8/RGolMbvIojtifXORVvsT2xxmvfarkueCrPrfasMHxN+B5T4espfb3FXwSI3yvxlwj8ey2syRHfH+4+V/4eYu+vnJ2wczW/NBHe19L7XvhljPRzI/5MCTtwG6Y6t0U3TJHrguckuXUTWSfIrR1PVDtObs1Yrxw4a8YQHR/t9dgooSOdHh0hdLjXI8OUDnV6eIjSwU4PDVL6GNHBCqKLTxNdeIrognBZ0Lk9RGd3s8uC2M20Aww4+7cRnd5KdIrB5klmN0+sJ+pb5/zSo5fZzZ6VRN3s2c2uZUSd7JcVHQw42xcStVU7ba0iaql0fsHQzH6x0MTsZuNMooYZRPXsFwN1U4jqJhPVMrtZM4Ho+Hii4+OIjo0hOsrs5pGRRIdHEB0eTnRoGNGhoUQHhxAdGOT0gwo0xdr8N4RtKARwIlkKgBMJjG3ws11AZwLoLArbGRI8VdtpAs9C2k4ddLrgaYLOxw3Quc0MnRw8ddB5yg8612ugc60ZOvtW6cGzh62GSQKdEniqv0RQoFMETxN05oDnXA14RoXOGXro5OAZGTonaqBzvBk6a0TbaYLOURroHBEMnSp4HhqsB8+LTzPgZLB5fi/ROWY3z+52bP7ADmY4Bdg8vcUBzlMqcIqwyeymCpwdzIS3s2c325jdlIBzDjOcAmw2TJeBs3YSA04RNsfqgVOCzcEMNh+zDmilVNv/drANhYBNJEsBcCKBsX1oZ6UATxk83V2canN2cs6Uq+7jdCvs4mwJs4/TtJez0tvF2VaZu4/TtJdTBQ7TPk61OTs5FchR93GKezk5JPnt4+wx7OV093Pud6qFzp3JoNMFz80G2ylAp2g7ddAZ2nZGhc7ludApgWcU6AxhOyND5xwDdM4yQ2cU2ymO2MaFTgk8x+htpw46Q9vOkNB56VmiS8+Y7ebZALt5anOw3exZGWA3OXAy2GxOwW4eGwO7WWawCeBEEDkATiQwtg/tLBXQqULntHjQaQTP2R54tkQBTxU6BfDkYBAKOi2CZ48PePYEgOeDt8NDZ6ZGbMPYTs2IbVLbGWXENozt1I3YJradhRixDWE7I4/YhrCd6ogtB8+LzwTbTQ6cUexmb5DdXJzcbrrAabCbR2E3AZylUQSJEwAnEiq2D+6sFeDp1QidsJ2FtZ0P3iY6vzsXOtOynVFGbINspwk6E9vOAozYts/Pw4itj+2MNWKbwHaaRmyDbGfSEdtLzzmGU2c3z+0JsJtbQtjNVXmwm9MC7ObYYLt5cDDsZgnCZqkCJ4LEDYATCRXbB3cWC+hUoTOs7QwLnrCdkWzng7cF6NydDDoDbWfEEdtEFwoZoLN3Zcojtovijdi2+0FnwIVCWRixDbxQyACdiS4UUqDz8gtEl5+X7eY5xW6eUe3m9mC72bfW3266wOlnN+dGs5s1E0LYzWGy3TwAu1lqsFmq0IkgcQPgRELF9qGd5QI8Q0AnbGdhbOdH+/2hM/BCIYzYYsS2wCO2V0TYVO3mE3mwm8uD7WZrlb/d5MAJu5m52v73AIATQfQBcCKhY/vgznIBnSp0wnZas50udO5Jx3ZGGbHN3IVCGujM1IVCMUZsmzTQmcULhUzQqYLnlReci4K43bywL7rdNK5CEWAzsd2cldxucuCE3SwL2Cw14ESQJAFwIqFj++AuhgI8Q0AnbGcu6JjAk8OmyXaK4ClC54P9DDhTgs7YI7abimDENsB2xhqxrTJAZ8wR2yS20wSdsXd2pjhie+UHzjitajfPx7CbJzf6200OnCJsmlahpGo3RwXYTQBnqcImgBNBvAA4kdCxfXAXSwGdKnTCdhbcdj5429nP6ULnnpRHbANsp2nENi87Ows4Yht3Z2chR2wbp8UcsY15oVDcEdurLznA6drNp4LtJgfO0HZzdbDdbF/obzc5cPrazYnR7Ka7CgWwWerAWUrQiSBJAuBEIsX2wV1MLXfwDAWdJW07DeBZKNv5YL8DnRf2eD2/m3WX3HM7nZ7dQXSOg+fjQkXw3CaUAeeZrUQDW5yK0Nm/mah/k9PTG5VucHpqvdJ1Tk+u9cqh8+QaohOrha5ywLNvFVHfSq/u7b2K+XW/Vkvlul/nxXLd7xH/3rG631/+va+W3xvSe0d8f4nvO/Z+VN+37ntaeb83zyRqman5eeE/S8rPWyOznY1TvDZMFjrJa/1EoRO81o1nHSe3diwrA86aMezvo50eH6V0pNNjI5xee5no6ovOrbRBdvPsLn+76V4WlKLddFeh+NnNKf528+ho2E3AZskAJ4IkDYATiRTbB3extdyhE7bTsu18sN+xnVGhUwueiu3UQacRPDcZwHODATyjQOdqPXS64KlermQAT+nrrINOBTxF6OTgaYTOKgN0zvOHThU8OXTmgKf48xQAnRJ4TjKA5wQNeJqgc6weOnPAU4DOqy85sGmym+f2BNjNrSnYzUX+drM5ht08Pg52E7AJ4EQQTQCcSKTYPriLteUOntQ8Tel0fVtmKJ0pt3WWobPlts1RykCzfa789/Z5SiuddvA/q/TtnK+0Wm7XAk0X5rZ7kdLFue1Zoqli6HqXaSpcInRhL9GFJ+Sef0IeuRVHb7lZOsf+dJ/33El0ZofQgIuG+rcK3eL19Galmmc8TzEI5c935jznuUapMm7Lm/OcpzB626OM3nYvE+pz0VCnOn7Lx20ZiGp3dyptqxJaab5kSB29bfa5aKhpJqtul6duj2ecXZ66sVs2elvDK4ze8uc9ea+/4tjNy8xuXnyK6OI+ogvMbp5nwMnfh/x9NsDsZj8bpz3N7Oapjc449gn23uhb4wBnL7ObPSuIupcTdS112snsZsdCovYFRO3VRG3s+9HKvgfN7OvcxL6mjexr2MC+bvVTiOomEdVOJKqdQFQz3vnvPs7+e49x4BxBdGQ40eFhRIeHEh0aQnRoMNFBBpwHKtAEtf25DuBEkPABcCKRY/vwLtaWPXQ2TQ0HnjnQGRY8Z4cDz3YBPLXQOU+GThN45kBnGPDUQGcY8NRCZxjwZMDpC50a8Dy3WwZPFTrP+kDngAKeEnRu9YHOTWboVMGTQ+dJFTwjQqcLnssN4BkFOhfpodMPPAOh0/S8pwCeuouGdOBpumRIB55RoFN93pNDp/jMpwubrzrAeZnZzUsMOC/sY7C5V4ZN/guOAQac/P0kwSazmypwirDZvYwB5xIFOKsZcDLYbJlH1DJXBs7GGU4bmN2sZ18fLXAy2Dw2iujoSD1wHhxEdBCwWU7AWezQiSBpBMCJRI7tg7vYW87gGRo6YTvTtZ0SdO6NB505tnOHwXZqoDO07dxksJ0a6OTgmQOdIniuSt92qhcNdWqgM4rtlKDTBJ5RbWcE6AxlO0PcbquznSJ03nzdAc7Lz0W0mzuC7ebJ9f52kwNnmnazblIIuzlCgU3YzXKETQAnggA4kRixfXCXQsseOmE7C287/aAzaMSWA4BuxDaM7SzEiG1S21mIEdtEttMAnX5rVWKN2CawnaYR21s/JLrxmgebqt3kwJnEbvapdnOlApsx7CYHzih282iQ3RxkHdaKvbY/vwGcCBI9AE4kVmwf3qXScgXPSNAJ25me7fxoP9HFJwXoTGI7TdAZYDujjtiGsZ1RoTMQPKOO2C4xj9h2xoXOquyP2LrgGTBie/N1oivPK3bz6RTs5oY82M05/nbTBU4fu8mBE3YTsPllcQMngqQVACcSK7YP71Jq2UMnbGfhbCe3nHGgM/BCIYzYYsRWA523fkR002A3L8awm6c3+9tNDpy+dpMDZ1U4u9kwLdhuHh/jbzfdy4LsQ1sx1/bnddzaBkcAJ2I7AE4kVmwf3qXYcgTPyNAJ25ncdorQKYFnjAuFUh2xzdiFQjrozNSFQjFGbJv9RmzzcKHQrR8T3fyhbDf5KhRfu7kzmt08sTbYbnYu9rebHDiT2M1jqt0cBrsJ2HRrGx4BnIjNADiR2LF9eJdiyxE6S9p2xgLPAtjOj37pQeelJ4ku7vWqgucFATovcPDc7fTcLqE7c3d5umW7PKU9nmyX58BWpXyPp7LL8/Qmov6NTsX9naeV3Z3q/s6Ta+S6+ztXyVV3eOp2efaoezwF8FR3eUp7VdkeT2kXq/Ae0O53nU/aXZ66PZ66XZ4twntc3eXpVtjl6bvHM+Iuz7oJRLd/7PTK8ww4g+zmHtlunlHt5hbZbp5MwW62VaVgN8fCbgI2Q9U2PAI2EZsBcCKxY/vwLuWWI3jCdhbYdorQeVEDnReDoHOPBjp3BUNnDnhu04BnVOjckAudEnimAZ0CeKrQ2SPaThN0LtZA54J40JkDnnP14BkVOl3wnGYATxN0Ts6Fzts/IbryQjK7ObA9ud10V6EY7GZLDLtZOyG63cQqlLKGzf/4EsCJlHcAnEjs2D68S71lD515t50hwTPHdhrAs6MyD+CZZ9v50S+Z4Xwy13bqoJODpwqdoW1nFOjcqodOETxV6IxiO13oXB0POnNs51K97dRBpwSeC2LYzsp4tlOETgk8ddAZ0nbqoPPuTxlwCnbzMrObl5jddMe52XvKvYhqhzCCzd4T/D3Ax6pPrhfGp9c4Y9K9bDzaHX3mY85srLljIVHHAm+Mua3KG03mY8ju2LFwk687RixckOReiDSWqGaMA5vHRhEdHUF0dDjRkWFER4YSHR5CdHgw0aFBRAcr0Ji1/VmcVm0DJIATsRkAJ5Iotg/wcmi5gWcs6ITtjGc7P9rPoHOfB56pjdiGsJ26EdvEtrMQI7YrzCO2PRkZsU1qO3XQGcZ23vkp0Z2fEF19gejq80RXniO6IgDnxX3McO4VnhHebQDOrcIzvcxuqsDJn8mVbhhepgAnv7iJPzNbJTwTy4DTXSXD/tvd51h1wCnA5nFmN4+NlIHzMBulPTSI6NBj1qGtWGv78zft2oZIwCZiKwBOJFFsH97l0rKHzqyAZynaTn6JkAid+RixTWQ7DdDZvznlEdsEttM0YhtkO6OO2IaynRGhM9B2hoTOuz9zeu0HDnBGsZvndgXbzdMb/e1m74r07WbDlBTsJoATsOnUNkgCOBFbAXAiiWL78C63lh14Nk+R2zJV6TR9W6crnSG3baahs+S2z1Y6R9+OuUrnye2sNLSKqIu1s4qoa77c7mqnXdXe37sX5LZnodJFue1drOkSpx/vJ/r47VzotDZiG3ShUAZGbAMvFCrmEduYFwrd+7kHmzq7yYEzit3sD7Kbq5PbTQ6cadrNw0NgNwGbObUNkgBOxFYAnEji2D7Ay63lB52Tywc8O33As0sETw10hgFPLXQu9qDz0j6hPiO2gbZzd7ZHbPN1oVCqI7YZu1AoaMT27s8du3lVtZvPpmA3N+XBbs7zt5uNU4PtJgdO2E3AZsjaBknAJmIrAE4kcWwf4OXacgLPsoJOW7bz4/1m6AxjO00jtnm5UCjGiO1pP+jMw4VCaY/YJrKdBuhsnZPOiO29N4ju/UIepU1qNwe2+ttNFzj97CbffyrApq/dnBFsN2vH+dtNDpywm4BNTW3DJIATsRUAJ5I4tg/wcm45QWfZgacN2/nx2w50Xn4qGDov7jWP2ErdXYCdnYYR2yQXCpmgM/bOTgN0BtrOONBZVbgR2/tvOMB57UXZbl55LoTd3O1vN0+rdnN9sN3sXupvNzlwJrGbx1W7OUKBTdhNAKe5toESwInYCIATSSW2D/BybzmBZ9lApwieKnSK4BnJdoYATy10Jh2x3YMR21Idsb3/JtH1lxy7ee0HwXbzwt4Au7lNtpu+q1BC2s2O6hTs5njYTcBmKrUNlIBNxEYAnEgqsX2Aoxro/LJ0wdOBzjIBTxu28+O3ia485UDnlaeILu9zeulJpXudXnxC3wt7lO52en6X0J1ez+0QKozYnt3u9cw2orPbiM5slcvBc2Cz3H4Onhvknl7Pus7rqbVC13g9uVooA86Tq4hOrJTbx/9c4ZTbTrfLnKr7UPnNwTmrbdjNw+6txAu873dXde5Nxy58Vnl1V/WINymLNy4rtzG7NzUrtzi7Nz0LN0Dff4vo3pvJ7ebZHdHtZp9iN13gFGFTsJviZUFh7Wb9JH+7yYETdhOwGaG2oRLAidgIgBNJJbYPcNRruUBndm2nATyDoNMInlWFt50f7yf66G09dOaA515/8EwEnTv00MnB0widWwzQuTE+dErgKUCnCp594t99oDMHPJcYwFOFzoXRobOjSgOd80JA52wDdM4k+vBtog/fCm83OXCmaTd7VwbYzQXBdtMFzpB2012F4mc3B1kHuGKq7c/MQtc2VAI4ERsBcCKpxfYhjnqF7cwCeBa57eSXCF15ymtq0LlHA527zNAZxXZGhU4XPNcZwDMF6OxTwTMqdC7WQOcCM3R2GqAziu30g84H+x3gvPES0fUXGXCyVShXOXA+7dQdx2Z28wIDzvO7hHFq8RldPhrNgJPvVD3JYJOPN4vPzLqjyuxr1cVGkDuqhVHjSmek2B0hniWMCU8XbtydQtQwmahhElH9BKK68UR144hq2c20NaOJjo8iOj6S6NgIoqPDiI4OJTrCbqY9zMZpD1WgIWr7s9JWbYMlYBMpdACcSGqxfYCjuQV0qtBpAM8g6DSCZ4nbThU6MWJboiO2YWwnA86Pfkn00X6iGy/LwCnB5jMMONlzwBc5cLLvO4dNbrDPCMbafQZXgE33GVsGnH0cOEXYZF+vrkUecHZWKxco8edW+XOqDDjdFS8ibE5UgHOMUxE2jw2XgfMIB077IFcMtf35aLO24RLAiRQ6AE4ktdg+wFF9y9J2tkxROpWolbVlKlHrNH3bpiudIbd9pqGz5HbMVjpH3865SufJ7ao0tEpu93yl1XJ7FujbKwBn70Ki3kVKFxN98kuiT/YTXXm6gCO2YWynZsQ2qe0sxIhtX1LbmdKIbXulGTr9bOeDXxHdeNUBzusvOc9v8nUoV4XnNy8/44zTcuB0n98UnuE8q7mhtl98hpOP1K5jI7UCcLojtX431PLnNzU31DYbnuFsmKq/obYm4Ibaw8r+TdS3tj8Xbdc2XAI4kUIHwImkGtuHOGpu2UBniw90tgjQaQLPIOg0gmcQdBrAMwg6jeAZBJ0hwbN3oQeevQbw/OSXDDiflm1noUZsk9hOE3QObE55xHa1GTpPxIXOANsZecQ2wYVCrbOJPn6H6KN3iG68QnRdAM6rL7ALg0TYVJ/fFG4wdi8M2kl0RgOc/MKgU3ycdp03UiteGOTCpvAMZyd/hnOBHjZzbqiN8Ayn7sIg0zOcKIDTp7bhErCJFDoATiTV2D7EUf/CdsJ2xrKdn+xn0PlMLnRmbcT27Pbsj9hy8CymEduPf0P00a/zYDd3+NtNDpy+dlN3Q2212W62zAm2m+INtTq7Kd5QC7sJ2IxY24AJ4EQKHQAnkmpsH+JouJYNdMJ2pmc7P9nPRmufkW1nuY3YZu5CId2IbcoXCn3yW6KPOWwqdpMDp6/d3CvbzbOK3RxQ7ebmYLvJb6g12U0OnKnazZA31KKAzRC1DZkATqSQAXAiqcf2IY6GK2wnbGdk22mCzsAR2wDbaRqxzceFQqmP2AbYTtOIbT4uFDJBZ9KdnZ/8lujma57dvPFyCLv5VIDd3Jm+3exanILdnBxt/ybsJmAzZm1DJmATKWQAnEjqsX2Io9FaNtAJ25mO7XSB85n4I7aF3tkZa8Q2wYVCphHbuDs7TdAZaDtjQKe6s/OT3zrjtDdTsJvn90S3myci2k3xsqCwdrNxWsD+zbEh7CaAE7AZrbZBE8CJFDIATiT12D7E0eiF7YTtDG07P/2lATrzNWIbcKEQRmzzN2L76f8V3W5eftrfbp6LYzfXBNjNJcF2kwNnWLtZNyHYbh4ZBrsJ2Ixd26AJ4EQKGQAnkpfYPsjReC0X6HTBE7Yznu38ZL8DnlcN0JnVC4WwszO87fzsvxB9+mdEt1737Ka6e/PaC87uzavPOe8B7e5N8XZatn/zrLJ/c4ABZ/9mZ/fmac3uzRNs9ybfv9m73Nu/2cX2b3YudHZvdsxn+zer5P2bLWz/ZjPfvzndf/9m7Tii2rFENQH7Nw+z/ZtoTm1/pmW9gE2kXALgRPIS24c4Gr+wnbCdoWynC51PK32K6Mo+pU86vfwk0eW9Qp8gusS7x+tF/udupbuILuwiurDT6/kdQh+Xe2476za5Z7cSnd0i98xmoZu8Dmz0KoHnetZ1Xk+vFSpA5+k1RKdWOxWf6zy5iujkSqITKzRdTtS3TOlSr71LhC722rNI6EKi7oVE3Qu8cuDsribqmi+3s4q10gHOW68T3XrNAc6bDDivv0h0ncPm8ww2n1WAk/1SgcPmhT1E53fLwHlmOzOcDPj72SqU08xuSsApwiazmz3LZOAUYdMFzkoFOGcx4BRhc6oMnKLd5LBZM1oGzqMMOI8MIToC2ARsxi+AEymXADiRvMX2QY4ma7lAJ2xnAtv58X6ia884VaEzBzwjQuclE3TuzoVOCTxN0LldA51b40HngAqeInSuiwedWvBcrgHPqNC5KBc6RfBUobOriujzP9fbzeuq3Xw+D3ZzQ3K7yYEzVbs5SrabR2A3AZvJC9hEyiUATiRvsX2Qo8lbVrazZZLT1slKpxC1sbZOIWqbqm/7NKI21vZpRO3T5XbMMHSm3M5ZSmfr2zXHa+ccoq65crvnGVopt6dK6Xy5vdWGLvCe5wwNnfsM0CmCpwqcKdjOKNApgecmPXhqoXO9AToF8BShMwc8o0DnMgN0LjFDZ1jb+fmfB9jNF5PbTQ6cSexmt2o3F/jbzdbZwXazfmJEuznEOthlsbY/t4qpAE6kXALgRPIW2wc5ml7LBTpd8NRBZ6sAnSbwbJ/mgacOOo3gGQSdBvAMgk4jeFYGQGdY8GTQ+ekvDdCZku2MAp2hbKduxDap7SzAiG1i2xkAnZ//hQOct3+Y3G5eVO3mLn+72b8xhN1cEdFuzgu2m41T/O0mB07YTcBmngrgRMohAE4kr7F9kKPptZxspy94wnbmVoXOQo/YXvSDzgS20wSdgbYz4ohtIttpgk4f26kbsf3idw5wcthU7aZ7WZCf3dwn283zQXZza7Dd5MBpsptdi/JgN8fBbgI2C1bAJlIOAXAieY3tgxxNv+UEnV9+9XX52c644PnpfqJrz/pAp8+FQlkZsQ28UCgLI7YBFwqZoDPIdn7xO6LbP5Lt5s1XZbuZc1kQu6HYz25y4EzTbvYsTcFuTpXtZh3sJmDTTgGcSDkEwInkNbYPcjR/BXjCduYApwudz2LEVjtim7ULhRh0fvEu0ee/s2s3/VahuLCZ0G42z/C3mxw4/eymuwrFPuRlpbY/i4q9AE6kHALgRPIe24c5mr8COgtsO8OCpwqdocGzMhl4fvpLPXQmGrHdax6xveg3YpuHC4VSH7Fdm4cR24gXCv3le0Rf/F62mxw4fe3ms7LdvKTYzQsx7OapdQF2c1mw3eTAGdZuuqtQ/OzmCNluYhUKYDPFAjaRcgiAE8l7bB/maP4L8ITtjA6dQTs796ZvO1Pf2WmAzoGN8UZsT/lBZ8ydnX4jtn/5vgOct3/kNMhuXnvB327yVSh+dtMFzpB2k69CSWQ3Z8JuAjYzXQAnUuoBcCJ5j+2DHC1Myw06HfAUd3JOd9o2Xfi7z07ONgs7OTtZ4+zk1O7lXCi3d5HTT98h+vRXAnTaGrHdjRFbvxHb//t9ojs/JrrD7Obt14luv0Z061Wimww2bwh289rzRNeeI7rKgPPKU04vPUl0aa9jNy8yu3lhN9H5XUTndjg9y2DzDFuFMsDsZj8DztPrnP/2k+y/+QSDzT5mN3uZ3exeTNS9iKhroXO7bicDzo4qoo5KovZ5RG1znLbOImqZSdQyg6h5OlHzNKKmqURNU4gaJzmtn0BUP56obhxR3Vii2jFEtaOJakYR1YwkOj6C6BiDzaNDiI4OJjoyqOxr+/Om1ArgREo9AE6kILF9mKOFK8CTQWebD3Ry8GwTwTMMdGrAMwx06sAzFHRqwDOf4fwFAAAgAElEQVQKdF5/juj6s16vPUN0nfXa00IZdF7dJ5eD55W9ci8/wbpHrguhu+Ve3MW60+uFHV7PP050gYPndqEMOM9vIzq3lXWL07P8z81Oz2wiOst6ZhPRmY1OBzYoXe9UBM/+tV5PrxG62uupVUJXOj25QulypyeWKeXgucTr//MBA84fMeBkdvMWs5sqcF5ndvPqs0RXnyG6wuzm5X0ycIqweX4ng83HHeA8y4FzMwNOETbX5gLniZUybPYsEYBzgQCczG62zyNqn8tgc7YCnCJsMrvZMJGoQQDO2jFORdg8PtwBzmMMOI+UN3Da/nwp1QI2kVIPgBMpSGwf5mhhW47Q+eVXX3vjsm3TPOjkbZ+h6czcdsyS2ynAJv87fy5TKhuT5eDZNS+34pgsh8/uKrnquGzPfKKe6tz2LlC6UO5n7zhVofP6swbo5OBpgs4nDdD5RLrQmQOeAnS64GmAzrOb9dCZA55RoHONATpXGaBzhRk6OXi6sOljN2++HGA3nw62my5wpmk3F8t2s1Oxmy5w+tnNydHs5rFhsJuAzbwWwImUegCcSEFi+zBH7RTgGQY6NeCpg85OBTq14Ck8n2mCTh14hoJODXgGQefnv3ag84YGOqPYzqjQedkAnZd250KnCJ5G6NyugU4BPFXolGynCTo3aKBzXTzoDG07lxL91UGivzpAdPcnRHd/HNFuPhfCbu6RYfOcaje3pGA3F8p2s6Mq2G42T/O3mxw4YTcBm5YK4ERKOQBOpGCxfZijdlqu0BkdPEvUdnLTeeM5jNhmYcT2rw45sMnt5h3Vbr4i283rKdjNs9uD7eapNf52kwNnqnZzAuwmYDMzBWwipRwAJ1Kw2D7MUbstZ/D86quvy9t2fvoO0Y3n9dApgqd2xDah7YwCnaFsp27Edqt5xPZMRkZsTy53YFNnN2+/ntxucuBMYjdPqHZzeQp2c7psNxthNwGb2SyAEynlADiRgsX2YY7ab7lDZ3jwLDHb+ek7MnQmtZ2FGrG9sMM8YnveZ8T2rN+IbYDtjDpiG9Z2/vVhor9O224+GWA3H9fYzU0G4BRgsy+h3Wyd5W83GyaGsJvDy95u2v68KLcCOJFSDoATKWhsH+hoNgrw/LrwtrPTsu1MBJ1PZ2PE9oLPiG3QhUI2R2z/+giDzZ8qdvOHwXbz2vOy3bwSZDd3BdvN/g3+drNvRQi7OT+a3eSrUHzt5ijZbh4tX7tp+zOiHAvYREo5AE6koLF9oKPZKaAzLHiWkO2UoBMjttFGbBNcKPTXR4ju/YzB5k+C7eaNF/3tJgfONO2m+/ymn91cINvN9koDcKZpN4dYhz+AZvkUwImUagCcSEFj+zBHs1eApwKfadlOI3hatp2f/VoAzjyP2Abazt2Fu1Ao7RHbsLbzvx5xxmmj2s1rqt18JrrdNK5CSdNuzktuNzlwlrndtP1ZgAI4kdINgBMpeGwf6Gj2CugU+rUfeJaA7eS31t583iuHzhvPEd141ut1ATqvPy332lNE1/Y5vcr/fNLplb1EV1mv7CW68oTXy3uIrrBe3s26S+6lnU4v7nB6aQfRxce9XtiudJvT81uVbiE6t1npJqdnNyrd4PXMeqHrnA6sFbrGaf8aov7VXk+vIupnPb2S6L8edYDTZDeNq1BE2BTs5uUYdvPM1gC7uTrYbnYvSm43G1S7Oc7fbrqXBdkHQcBm+RSwiZRqAJxIwWP7QEezW4CnDJ5fff11adpOvp9ThE4JPJ81gKcOOp/SQ6cInip0XtnjgacKnZcU8JSgc0c86MwBz00G8IwCnWv10MnB87+JsOljN2+9GmA3nw22mxw4w9pNvgpFtJt9qt1c6m83+WVBvnZzqmw364Ps5oiytJu2z33UK4ATKdUAOJGCx/aBjma7gM5c6HThs2O60Bm57ZypdFZuu2ZrOkdu91xN5+W2p1JubxVRDyv/e+98TauJPn+H6PNfEd18IZntFKEzku3cY7adKnRy8FShMwc8txnAUwedIWynBJ0RbOffHCf6m6NE939GdP+nRPd+QnTvx0R3f0h053WiO68R3X6V6PYrRLdeJrr5EtHNF4lu/oDo+vNOr7Gx5qvswqYr+4guP0l0ea/3HOzF3c748YWdROfZuPG57c5o8dmtzijxmU1EAww2+9mI8Gk2DnyK280VRCeWE/UtI+pbStS7hKh3MVHPIqLuhUTdC4i65jvtrCTqmEfUMZeofQ5R+2yitllEbTOJWqc7bZlK1DyFqHkyUdMkosaJRI0TiBrGEzWMI6ofS1Q3mqhuFFHtSKLaEUQ1w4mODyM6PpTo+BCiY4OJjj5W0rV91qP6AjiRUgyAE7ES2wc6mv0CPGOCZxjo1IJnGOjUgKcOOnsF6DSCJ4POmy+Eh85A22mAzqtPmkdsrxigUwTPQozYJrKdCnT+t2NEH/5cgc0f5QLnrVeIbgmweeMFBpzPycB5hT0ne3mv8zysCJwXOHCy51ol2NysACezmyJsnlypB86eRUQ9HDarGWxWKcApwuYMBpvTPOBsmkzUNNGpCJv1Y2TgrBnOgHMo0TEGm8cGWQdCwGZ5FrCJlGIAnIiV2D7Q0eIooNMMnTJ8Fqnt/OwdBzpv/SAXOkON2AbYTtOI7VWfEVsXPFMasQ1lO6NC53rziO3f1BD9zTGD3fxhCnbzieR285RqN1f4283u6hB2cwbsJmCzJArgREoxAE7EWmwf6mjxFOAZDJ5fff1NcdrOHOjEiG3sEdu/rSX62xp/u3k7jt3cJ9vNi6rd3BHCbq6PaDcXBdvN9tkBdnNSsN10gbM87KbtsxwNLmATKcUAOBFrsX2oo8VVQGc46OQtnO0MCZ6q7RTBk99ca4LOQl8oFGvE1vKFQv9dhE3Vbv4o2G5y4AxtN3cH280zm/ztJgfONO1my9QQdnO0DJs1qt0sPeC0fX6j4QvgREoxAE7EWmwf6mhxFuAZDTxdAM267XSh8yXZvIm98YJQYZfn9eeEKrs8rwl7PDlE8V7x2eV5mcPoXnmP5yVxl+dub2/npYD9nRce96ru75R2dwr7O88p+zvPbhb2d26U+7d1RB/+wrOb938awm6+5G83XeBMYDcHFLt5ek10u9ml2s056dvN40NL1m7aPrPR6AVwIqUWACdiNbYPdbQ4C+iMB516+LQAnibb+bkAnC50vpgMOl3wFKDz2tMG6NwXAJ1P6KHz0m4PPGNB53YNdG4ND53/vd4Zpw1jN28pdvOGajeflWHzShy7uTl9u9lZmdxucuAsI7tp+6xG4xWwiZRaAJyI1dg+1NHiLsAzGXh6AJoR2/n5r8NBpwSezxvAUwedz+ihUwTPKz62U4ROETwv7fa3nRJ07vCHztC2k0Hn/2gg+tv6iHbz5fTt5rltAXZzbbDddIEzpN3kq1BEu9ms2s3xAXZzWEnaTdtnM5qsAE6k1ALgRKzG9qGOFn8BnWHAMxg6fQG0kLbz83cc8LzNgPM2660XnXLglJ73ZOB5k4NnwEVD3HZeE5/1fMoznW6F5z2lCtApdbfTS7uE7sx95jPooqHzyvOeHDjV5z3/R6NjNx/8Ithu3nnN325y4PSzm+4qlLB2c0MIu7lMhs0e1W5WhbCb02S72RRkN0eWtN20fSajyQvgREotAE7Eemwf7GhpFOCZju00AmghbacLnS97wKmDzpsG6NTdbntdAU8JOp8Ohs4c8HzCAJ67I0Cnz0VDKnSK4MmB8+8aiT56wwHOBz8n+vBnRB8yu3mP2c27bO/mHXZZ0O2XmTnmpph9ra4LX5er7OvgjhMz2Ly02zO3FxhwuuPAzMCeYaO+AxuIBtg4bT+zm6dWEZ1aSXRyBdHJ5UQnmN3sW0LUt5iodxFRzwKn3cxudlUSdc4j6pxL1DGHqGM2UftMp23TiVoZbLZMIWqZTNTMgLNpAlHjeKKGsUQNY4jqRxPVjyKqG0lUN4KolgFnzVCi44OJjg8iOvZYUdf2GYymW8AmUkoBcCLWY/tQR0ungM70bacRQrtns86R2zPX0HlyeyuVVsn9/B0GnC/rbacInaLtlKDzeX/oDG07o0LnHg10am63DYJOP9v5d03OOO2DNzzYvP9Tovs/IbqvAU4JNl/0YN0dQ37W+xq4lygJFya5wMnGhDlsnmMjwGcF4BzYwMZpBdg8vdoAnMxu9i4i6l3IYLNaAU4RNmcx2JzhAWcrs5vNk2XYbBwnA2fdSKe1w4lqOWwOcYDzWHEDp+2zF02/AE6klALgRKzH9qGOll4Bnvmznf4QmiJ0fvFrp37QGXfE9rofdIawnboR28S2M8KI7d83yXbzQ9Vu/ji63bym2s0n/e3mhTh2c5UMmydUu7kwhN2cJdvN1jTs5mDrwAjQRNUCOJFSCoATyURsH+xo6TUHOr8sH/AstO0MBNG44JkDnQp4RhqxDbCdJuhMbDt3pzNiy/d4/n0L0d81E330Zh7s5tMBdnNXsN3kwBnWbvYtCbabnXP97WbLlGC7yYGzhOym7TMWzW8Bm0gpBcCJZCK2D3a0dFuu0GnbdoaHURN0VirQ+UrKI7bP5WHENuBCoagjtjrb+fcMNnV28/5Pgu0m/1qFtZuXQ9jNc1v87SYHzjTtZtv0EHZzrL/drBlSlHbT9pmKFq4ATqRUAuBEMhHbhzpa2oXtzI7tjAWlX/ya6M4rwdBZ6iO2/9DiASe3mw9+HsJuvuJvN93LgiLYzfOK3Tyr2s11KdjNef52syWO3Rwu280iuyzI9lmKFrYATqRUAuBEMhPbBzta+i1X6CwW22kEzs9+Q/SZDjpDjNhm7kKh3fFs5z+0OeO0LmwmtZvPy3Yz57KgMHZza/p2s3t+gN2cEWw3OXCWkN20fXaidgrYREolAE4kM7F9sKPlUdjO4rSdEnSGsZ0m6Lz5gnnENvbOzpRHbFXw/Mc2on9oJfrorWh2kwNnqnbzcX+7yYHT124ujWY3+SoUX7s50d9uusBZfHbT9pmJ2iuAEymVADiRTMX24Y6WT8sVOovZdtLnvyb67B2iOy8Lfcnr7ReF/sDprReEPu/15nNebzxLdJP1xjNyrz9NdP0ppfuIru0juvak3Kt7ia7tJbr6RG6vPEF0ZY/cy7uJruwmurxL6E6nl3YSXdpB9E/tRP/YTvTxW3q7eV+1mz/0t5sucPrZzSf87eY51W5uCmE3V8h2s1e1m9XR7WZzkN0cLcNmbXHZTdtnJGq/gE2kVALgRDIV24c7Wl6F7Sw+20mf/5ro7isJoPMFPXSK4KlC542nNeC5Tw+eHDp14BkaOnd50PmPbUQfv63YzV/IdvNegN10V6H42M2r+/zt5oUdst08l4bdXJTcbnLgLCG7aftcRLNVACdSCgFwIpmK7YMdLc+WK3QWo+2kz39jgM6XDdCZlu2MAJ3XnjRD51UNdJrA85/anX78FjOcbxB99AtvFcqHyjjtvR8S3X2N6O6rbOz4ZeHZ1h9448TuyLBgN68yWOZQzF8Df45UXM1yfgvRuc1EZzc6PbOe6Mw6ooG1RANriPpXE/WvIjq9kujUCqJTy4lOLiU6sYToxGKivkVEfQuJehcQ9VYT9cwn6qki6p5H1DWXqHMOUedsos5ZRB0ziTpmELVPJ2qbRtQ2xWnLJKKWiUTNE4iaxxM1jSNqGkvUOIaocTRRwyii+hFEdcOJ6oYR1Q0lqh1CVDuYqGYQ0fHHiI5XZK62z0I0ewVwIqUQACeSudg+3NHyLGxn8dhOCToT2U4DdN58LvqI7XWfEds4tvOfOhzY/ORtBpzCKpQHP3dg88OfOrB5n8Pm6w5w3uHAyZ9pFWHzuVzgvLZPuOhIfL6UjfVy4BRh89wmBpwbZODsX+309Eqi0xw2lxmAU4TNSg84u0TgFGFzKlHrFKLWyTJwNo1zKsJmw0gHOOsZcNYOcVoziKgme7Bp+/xDs1vAJlIKAXAimYvtwx0t75YrdBab7YwHnS9mf8T2yh6i/9npAOcn+z3gTNNu3ng2wG7uDrabHDjD2s2TS4PtZve8ALs5teTspu3zDs1+AZxIKQTAiWQytg94tLwL21kctpM+/7UDnlrotDFim9KFQn/okmFTtZsPfhZsN++8HNFu7g1hN7cG2M016dvNjhkp2M2hmbObts84tLgK2ESKPQBOJJOxfbij6H98Wb7QWUy207Gcr3rQWegR2xt+I7YxbOf/7HIMZ47dfCOE3XwtwG4+J9vNa2nYzfWy3Twdx25W+tvN9hh2s36EbDdrsmM3bZ9raPEVwIkUewCcSCZj+3BHUV7YzmzbTsdyBkFngO2MOmKb5EIhP+j8Q0/6dvPWD5LbTQ6cadrN3uoAuzkz2G5y4AxtNwcBNNGirA42/+PLryz/Sw1BwgfAiWQ2tg94FBVbrtBZDLZThs5Xi3PE9g89RH/oJvr0l8F280PFbt57PbndvKzazR3+dpMDp5/dPLUsmt3smhPCbk7yt5scODNkN22fXWjxF3YTKfYAOJFMx/Yhj6Jiy9l2hgdPS9D5xW/00FksOzv/uZfo03eIPvml04/3e/s3Hwj7Nz/k+zd/6uzfvGvav/myt3/zhrJ/8xrfv/kU0RV1/+Zux3Ly3ZsXHic6v53t3twq7948I+ze7F/r7N7k+zdPsv2bJ9T9m4uJehcS9VT77N+c4+zfbAu7f3O8vH+zju3frBX2b9YMJWf/ZuFq+7xCS6eATaTYA+BEMh3bhzyK6grozKbtpL/8DdG9V4W+4vTuK0R3X1b6ktM7Lyr9AdHtF+SKtvPWc15vCrbz5jNebzzN+pRXDp3X9xFdf9Lrtb1Ef+gj+kMv0ae/MgDnG0QfMtj88GcMNn/iAOc9Bpx3XnMqweaLCnA+y4CTwebVfURXniS6rADnxV0ybJ7fxoBziwycA+uJBjhsrvFg89QqolMcOJcx4OSwuYioZ4EMnJ2VDDgF2GyfRdSuAU4RNpsmMOAcpwDnSKI6DpvDGGwOAWiiRV0AJ1LMAXAimY/tQx5FdYXtzJ7tpC9+Q/TFrxXoFMFTgc47LxnAk9nOJNDpgudTBvBkwPnPJ4j+uY/os3eccdqckVp1/yYbqxVhU7WbfKz2JhupvcFGaq+zZzivCStR+DOcfKSWP8N5MeCG2jN8pFZ9hpPB5qkVRCfZc5wn2HOcfYuFG2rZWG03G6vtYs9x8ouD2mcy4GQrUVrZc5wt7DnOZn5L7XiiRjZW2zCaqH4UUT0DzjrhOc6awXmv7TMJLe0CNpFiDoATyXxsH/Io6ldAZ7Zspztae/+1cLYzCnRK4PmcATx10Gmwnf9y0gHOz94h+uxXMnB+/Ha4G2rvCjfUcti8xZ7hVIHzxrMybF59kgHnEzJw+t1Qe1ZzQ60Imzrg7OOwuUh4hlMBzk4BNjuY3WyfIQNny2SnImw2jXOAs4ED50gGnMOJasVLgwCaaHEXFwUhxRwAJ1IUsX3Qo2hQAZ7ZsZ1m6HzVPGJ7x2/ENqHtNEHnv5x0Xudn7zjjtEnt5h3Fbt76gb/d5MDpazc1N9T62c3Tq4LtZm+A3eTAmXG7afvMQcuvCFKsAXAiRRPbBz2KBhXQmR3bSV/8huj+60T3DNCZ1HaaoDPQdjLg/JeTRP9ySrabn6h2880QdvN12W7eVuzmTdVuPh3Cbio31J5T7KZ4Q21qdnNucrvZMKogdtP2OYOWZxGkmAPgRIoqtg98FA1TgKd92/nw0SN6+OgRff/wYU7jQeeLsUZsv/vu+5zS/3vax27uD2E3f+xvN/lKFHGUNrHd3CzbzZz9m2Hs5gLZbnZVynazI47dHCvbzXrVbqYDnLbPFLS8iyDFHgAnUnSxffCjaJgCOu3bTj/o/P77cP0uVL83VPi/4bD5r/0OcH7+m2R2855qN19Jbjc5cKZqN5f4282uecF2kwNnWLtZNzw1u2n7HEFRBCmFADiRoovtwx9FoxTgadd2pgGd4cDTBJ0eeMqwqdhN97IgH7t5/yey3byr2M1bcezmHn+76V4WlMRuLpLtZs/8EHZzur/ddIEzP3bT9rmBorwIUgoBcCJFGdsfACgapYBOu7bTFzoLaDvpXweIPv+tYDffCbabD37ubzfdVSg+dpMDZ2i7uT3Ybg6s9bebJ5bmwW5OlGGzMV27afucQFG1CFIqAXAiRRvbHwQoGrUAT3u20xc4CwCd9K8DjuFMxW7+MITdfN7fbnLgTNNunlqR3G5y4Cyg3bR9LqCorghSSgFwIkUd2x8IKBq1gE47tjPQcqY+YvtQhs3/L8BuGlehCLAp2s07IezmddVu7otuN8+pdnNd+nazc7a/3eTA6Ws3R0Sym7bPART1K4KUWgCcSEnE9ocDikYtwLPwtjMUdKZsO+nfBpx+8VtvP+jnwmVBnzLY/ORNpx//guijnxN99DOiBz8l+vAnRB/+mOj+j4ju/5Do3utEd191bte9w27Vvc1u0L3Fbs29+RzRDbaG5Trb+XntSaJre4muPuEA55U9RJd3EV3eSXSJ2c2L7LKgC8xunt9MdG6D07PriM6sJTqzhmhgNdHAKqL+lU5PryA6vZzo1FKik0uITi4mOrGI6MRCor5qor75RL3ziXqqiLrnEXXPJeqaQ9Q1m6hzFlHnTKKOGUQd04napxG1TXHaOomodSJRywSilvFEzeOImscSNY0hahzltGEEUcNwovphRHVDieqGENUOJqodpK3tn3sU9SuClGoAnEjJxPYHBYpGLaCz8LbzUcrQGQSe9G9niP7yz2Tg/Owdos9E2HyL6OM3iT5+g+gjBpwPfkb04CdORdi895oMnLdfdCrB5rMOcF5nwHmNAefVJxhwMrt5mdnNSzuILnHgFGFzE4PN9TJw9q/ygNOFzWUecJ5YzGBzgQebvVVEPZV64BRhs30qA87JMnA2jyNqYrDZNJoB50gHOOs5cA5hwAnIRIuvCFLKAXAiJRXbHxgoGqcAz8LazkdhgDMF6KR/O+P0iz8LsJtvyXbzQRp285kQdnNXgN3cGN1unlDsZq9qN+elYDdHB9pN2z/TKBqlCFLqAXAiJRnbHx4oGrWAzsLZztCjtQlGbOnfzjrldvNzxW5+9svkdpMDZ5p288LWFOzmItlu9qRgN5vHyXazQbGb9UOt/wyjaNQiSLkEwImUbGx/kKBonAI8C2M78wWd3+fA5p8po7SC3fz07Rh281V/u3nz2Vy7eVWxm1d2p283Ty31t5scOP3sJgfO0HZzhPWfVxSNWwQppwA4kZKP7Q8VFI1aQGdhbGdk6AwJnvTv5xzY1NrNX4Wwmz+NaDdfiG43L6t2c1uw3RSBU2c3Typ2sy+M3Zzhbzc5cDK7+eVXX9OXGfgZRdG4RZByDIATKYvY/oBB0TgFeOYfPB8++mM04AyATvr3cx5wcrv5xW+C7ebHv/C3mxw407Sbl3YE282z6wLs5rI82M1JEmzK7w37P5coGrcIUq4BcCJlE9sfNCgap4DO/ELnw0d/TA06JdgMYzc/UezmR6rd/FF0u3lDsZvuZUEp2s3+lcntJgdOjd30fV9k4GcSRaMWQco9AE6k7GL7gwdF4xTgmT/wjA2dD0XYPO/Uhc2wdvMN2W4+SMNuPiXbzauq3dwZwm6ul+1mfwy72avazTlau/nV1873Nfi9YP/nEEWjFkEQACdSxrH9IYSiUQvoLAR0Rnym8+FDon+/4JTDpmo3P1ft5tv+dpMDp5/d5MAZ1m66q1B87Ob5zSnYzepAu5nz9Q/7PsjAzyCKhi2CIF4AnEhZx/YHEorGKcAzP+DpAWc06KT/pcAmB84vfuPA5ucMNlW7+Qmzmx/9jAEng80Pmd28/zrR/deI7r1KdPdlp3deJLrzA6LbzG7eYnbzJgPOG08RXWeweY3ZzavMbl5hwHl5B9Gl7UQXtxFd3Ep0YQvRhc1E55ndPMeA8+wapwOriAZWOu1ndvM0B87FDDgXEp2o9sZpe6uIeiuJeuYFfN3D2s2vrf/coWjYIggiB8CJIATwRIuvgM70oVO2nOHAk/7XBaL/rQLnb71VKKLd/IwDpzBK+7FiNx9w4GR2896rRPdeYcD5kgOctzlwPseAU4TNfQpw7mHAKcLm4wbgFGGT2c0zq4nOMODsX0nUL8DmKWY3TzrjtF9/843TKF/3sN/3DPzMoWhQEQTRB8CJICy2P6hQNE4BnumCZxTopP990amv3XxHtpufhrCbH6p285X07eal7QpsbopkN7/+5ltNI8Im7CZaQkUQxBwAJ4Iosf2hhaJRC+gsPHQaYTMtu3n/ddlu3lHt5vMh7OYT0ezm+Q2S3fzm2+/o62++pW++/Za+0QKmApv5spu4LAjNcBEECQ6AE0E0sf0BhqJxCvBMDzz10OmB53/+6U8a2BTs5he/DmE3fx7Rbr4YbDevPxlgNx3g/Pbb7+iboDLY/PqbkMAJu4mWWREECRcAJ4L4xPaHGYpGLaAzDHjGuUTI63/+6U/0n3/6Ez169EdtHz56xPpH1kf08CHrI+9/5+HDR0QfqXbzh75287vvH9J333/v9Duh339P3wr/729z+p3Xb78zAOe3AmjKdtMfOOPZTaxCQYu1CIJEC4ATQQJi+4MNReMU4JncduosZzBsqsApw+bDhzJwGsd2v/f6nVQGm98/lGBTBM5c2Pw+BGzCbqJomCIIEj0ATgQJGdsfcigatYDO5LbzEQPHMLAp2009cH4vAedD88VEQcCpsZtm4IxgN7+V7WYwcMawm6GB0/7PEIryIggSPwBOBIkQ2x94KBqnAM9ktpNDZxBsasdpfeymETi/NwFnsN30Bc5vIxjOiHYzPHCGt5tYhYJmpQiCJAuAE0FixPaHH4pGbQ50flk+4JmG7fxTluymApz27GY+x2nt/8ygKIIg6QTAiSAxY/uDEEXjtFyhUwueEWznH//P/4lvNx+mYTcf5t9ufvNtdLsZCThhN9HiKYIg6QXAiSAJY5gj9rIAAA2RSURBVPtDEUWjFrYzuu0MAs6gy4Kyaze/g91EUaEIgqQfACeCpBTbH5IoGrXlCp1a8AywncHAmWG7GQY4YTfRMi+CIPkLgBNBUoztD0wUjVrYznC20w84o61CKZTdjLIKRdy/CbuJll8RBMlvAJwIkofY/vBE0agtV+jUgqcGOv2BMwW7GQichbGb33ybD7v5DewmmskiCFKYADgRJE+x/UGKolEL22kGTxNwRrObj2A3A2r7ZwAtnyIIUrgAOBEkz7H9oYqiUVuu0KkFz0DgVOzmo3zYze/zYDe/lewmvywIdhMt9SIIUvgAOBGkALH9AYuiUQvbKVcHnMVvN7+D3UTLqgiC2AmAE0EKGNsftigateUKnSp4/vGPOuD0sZuP8mA3vythu4nLgtA8FkEQuwFwIoiF2P7wRdEohe3MBc74dtO8CgV2E0XTLYIg2QiAE0EsxfYHMYpGbblC55da4HzkC5zFaDf9gTOe3cQqFNRWEQTJTgCcCGI5tj+UUTRKy9V2PjICZzp28/sQdlMEzjB2M9BwxrCb4YETdhO1UwRBshcAJ4JkILY/oFE0assNOkXgDGs3v8+D3TQDZwS7+a1sN+2O09p/L6OlUwRBshkAJ4JkKLY/rFE0SsvJduqBkz3L6WM3jcCZwG76AmdYu8nA07bdxCoUNI0iCJLtADgRJIOx/eGNolFaDtDJgbNgdjPSZUGwm2h5FkGQ4giAE0EyGtsf5CgapaVuO3OBU7GbD9Owmw/zbze/+Ta63YwEnLCbaGGKIEjxBMCJIBmP7Q91FI3SUoXOR3+MugolS3ZTd0Mt7CZanEUQpPgC4ESQIojtD3gUjdJStJ0OcGbYboYBTthNtIiLIEjxBsCJIEUU2x/4KBqlpQSducCZBbuZO05bHHYTq1DQaEUQpLgD4ESQIoztD38UjdJSAE/v+c0EdjMQOAtjN7/5Nh928xvYTTT1IghSGgFwIkiRxvY/BFA0SosdOmXg9LObj2A3YTf///buJbltZAsC6P632iGAkrwA9cCmTUoEUACqcOtzTkTGm8s9uBnJh5IMAfqhcELjoo8CkT1ptXh+3pfN74Uz27r5XmDdnJ/WzftTKNZNqTlAfxRO6ET0kSCSmhZL5+ersrm6bi5/LOjadfNm3ZQmAvRL4YSORB8MInvSUvF8ehbloXBmXzdv5dfN9cJ5bN30FIqcCdA3hRM6FH08iKSmldL59yu1F6ybj4XTuik9BxiDwgkdiz4mRFJTe/F8VTirXzdn66bUGWAsCid0LvqwEElNzaXz89ev0+vme4F1c3PhPLBuphfO9HXTx4LkHmA8CicMIvrIEElNjcXz8/PXy3XzvcC6uVw4j6+bsT+njf9vSuIDjEvhhMFEHx0iKamtdH7cC+eLdXOxcJ5YN1cLZ+q6+ad4JpfNXYXTuilpAVA4YUDRB4hIamopno+FM9u6uespFOumtBeAry+FE4YWfYyIpKSG0vnx8JPac+vmR/l1c5qtmxIagEcKJxB+nIikJLJ4Pr7BWee6+er9TeumXBuAVxRO4OvrS+mUNhJVOvP8fzdPrpsphXN6/FltiXVzsm7KywAsUTiBJ9FHi0hKri6en6tPoZRcN3/+nLaNdfMt/L8RuSYAWxRO4KXoI0ZkK1eWzo/PX2nr5p6nULKtm7N1Uy4PQCqFE1gVfdSIbOWK4vm9cFo3rZujBmAvhRPYFH3giGyldOm8F87a1837Uyih66aPBXUbgCMUTiBZ9LEjspVSxfOxcL4vLZxh6+bNuilFA3CGwgnsFn38iKylROn89w5nhnXzVn7dXC+cx9ZNT6GMF4AcFE7gkOhDSGQrOYvnvXDmWjcfC6d1U2oMQC4KJ3BK9FEkspZcpfP3O5x5183lwrlj3Zyf183twnlg3UwunPH/3nI+ALkpnEAW0UeSyFrOFs/Vwvm+VDi3183VwjnvWDh3rpvphTN93fQUStsBKEXhBLKKPppElnKmdF73FErJdbPkz2nj/33lWABKUziB7KIPKJG1HCmei4Vzcd38qHPd3FU4rZu9B+AKCidQTPQxJbKUvaXz49O6ad3sJwBXUjiB4qKPK5GlpBbPl4Wz1LqZ8nXaabZuyu4ARFA4gctEH1sir/KjdP73s3j+Lpwl1809T6E8vr9p3ZTtAERSOIFLRR9eIktZK537C+c16+Y0l1g3J+tmRwGIpnACIaKPMJFXWVo7P1Z+TjvuuvkW/u8lywGohcIJhIo+ykRe5Xvp3F04s6+b89O6ef9YkHVTvgegNgonUIXoI03ke54LZw3r5s26KYsBqJXCCVQj+mATeZXdhfP2/qNwdrdu+lhQVQGomcIJVCf6eBP5ng/rpnWzwgC0QOEEqhV9zIncU+O6uV44j62bnkJpIwAtUTiB6kUfdyLfy+Z7wrr5WDhT1s3NhdO6OXwAWqRwAs2IPvZk3BxdN5cL5451c35eN2MLZ/y/xYgBaJnCCTQl+vCTMXNm3VwtnKnr5p/iuadsphfO9HXTUyjXB6B1CifQpOgjUMZK3o8FWTdlOwC9UDiBpkUfhTJG1gtnwXVzmvevm7sKp3WztgD0RuEEuhB9JErfuXbdfPWFWutm7wHolcIJdCX6aJQ+k33dTCmc1s0hAtA7hRPoUvQRKX0lz7r58+e0baybnkIpEYBRKJxAt6IPSuknkevmNJdYNyfrZmAARqJwAt2LPi6l/Vg3JUcARqRwAsOIPjal3bwsnNnXzflp3bw/hWLdbD8AI1M4geFEH5/SXq5bN2/WzY4CgMIJDCz6GJV2srhu3sqvm+uF89i66SmUsgHgH4UTGF70cSr1Z23dfCyc1s2xA8BPCifAH9HHqtSbS9bN2brZagBYpnACfBN9vEp9ybVubi6cB9bN9MKZvm76WFBaANimcAK8EH3ISl1ZWzeXC+fxdTP257Txf+8WAkAahRNgRfRRK3Vka91cLZyp6+af4plcNncVTutmrgCwj8IJkCD6yJXY7H8KxbrZWwA4RuEE2CH66JWYFF03p9m6WXEAOEfhBDgg+giWa5N/3Xz1/qZ1s6YAkIfCCXBC9FEs1+TQuplSOKfHn9WWWDcn6+bOAJCXwgmQQfSRLGWTvm7+/DltG+vmW/jfODoAlKFwAmQUfTRLmeRdN2frZkUBoCyFE6CA6CNa8sa62V8AuIbCCVBQ9FEteVJq3bw/hRK6bg72sSAArqVwAlwg+siWc8m7bt6smwEBIIbCCXCh6KNbjqX0urleOI+tm55C+R0AYimcAAGij3DZl8fCad1sIwDUQeEECBR9lEta1n9Ou2PdnJ/Xze3CeWDdTC6c8X/XEgGgLgonQLDoA122s2fdTFo4d66b6YUzfd3s8SkUAOqjcAJUIvpYl+XErJslf04b/zfNGQDqpXACVCb6eJef2fxYUKl1c1fhHG/dBKB+CidApaKPefkX62ZdAaAdCidA5aKPezlTOB+/SmvdPBsA2qNwAjQi+tgfOeeeQnl8f9O6eSQAtEvhBGhM9PE/YnKtm9NcYt2cul03AWifwgnQsOhCMEr6WDffwv+OKQGgLwonQAeiS0LvOfyxoOn5Y0HWTUUTYDQKJ0BHoktDrzm2bt6sm4omwPAUToAORZeI3tL8ulnhx4IAGIPCCdCx6FLRS6ybiiYAxyicAAOILhmtJ8e6uV44j62bLT2FAsCYFE6AgUSXjlZj3VQ0AThG4QQYUHQJaS271s35ed3cLpwH1s3kwqloAhBL4QQYWHSRayXfy2bSwrlz3UwvnOnrZsRTKADwSOEEILzQ1Z5y62bJn9MqmgDEUzgB+Cu62NWa5HVzmvevm7sKZ33rJgCsUTgB+CG64NWWtI8FjbVuAkAKhROAVdFlr4YkFc5B1k0A2EPhBCBJdOkLLZyJ62avT6EAwFEKJwC7RJe/Kgvn9PjRoBLr5hSybgLAWQonAIdEl8CrC+dI6yYA5KJwAnBKdBmMK5zz07p5/1hQy+smAOSmcAKQRXQpLJnldfPWxboJAKUonABkFV0Orymcy+vmeuEsuG4eeAoFAEpTOAEoJrooliuc7a6bAHAlhROA4qILY97COT/9b+l1M61wKpoA1EnhBOAy0cUx+8J5YN1ML5zp6+bax4IAIJLCCcDlogvk8cL5et2M/TmtoglAvRROAEJFl8lTC+eesrmrcB5bNwGgNgonAFWILpXbhbPedRMAaqVwAlCV6HK5uXBOczXrJgDUTuEEoErRJfN14ZwPfywo57oJAK1QOAGoXjWFc3r8WW2JdXNaLJsA0CKFE4BmxBbOmHUTAFqmcALQnJDCefG6CQA9UDgBaNo1hfO6dRMAeqJwAtCFooVzen4KJfe6CQC9UjgB6ErZn9TmXTcBoHcKJwDdylk4H9fN9cK5vm4CwEgUTgC6l+cntefWTQAYkcIJwFCOFM635ML5vG4CwOgUTgCGlvqV2pR1EwB4pnACAABQhMIJAABAEQonAAAARSicAAAAFKFwAgAAUITCCQAAQBEKJwAAAEUonAAAABShcAIAAFCEwgkAAEARCicAAABFKJwAAAAUoXACAABQhMIJAABAEQonAAAARSicAAAAFKFwAgAAUITCCQAAQBEKJwAAAEUonAAAABShcAIAAFCEwgkAAEAR/wN2xCN/5Yp2CAAAAABJRU5ErkJggg==;dashed=0;fontFamily=Helvetica;fontColor=#000000;strokeColor=#000000;fillColor=#F58534;sketch=1;" parent="1" vertex="1">
          <mxGeometry x="154.99" y="456.5" width="60.48" height="74" as="geometry" />
        </mxCell>
        <mxCell id="F2b25kM4q3_-RmNMOtht-52" value="" style="shape=image;html=1;verticalAlign=top;verticalLabelPosition=bottom;labelBackgroundColor=#ffffff;imageAspect=0;image=https://cdn1.iconfinder.com/data/icons/heroicons-solid/20/dots-horizontal-128.png;dashed=0;fontFamily=Helvetica;fontSize=12;fontColor=#000000;align=center;strokeColor=#000000;fillColor=#D9A741;sketch=1;" parent="1" vertex="1">
          <mxGeometry x="385" y="172" width="60" height="60" as="geometry" />
        </mxCell>
        <mxCell id="F2b25kM4q3_-RmNMOtht-54" value="" style="edgeStyle=orthogonalEdgeStyle;rounded=0;sketch=0;orthogonalLoop=1;jettySize=auto;html=1;strokeColor=#000000;strokeWidth=3;fontSize=14;dashed=1;exitX=0.75;exitY=1;exitDx=0;exitDy=0;entryX=0.5;entryY=0;entryDx=0;entryDy=0;" parent="1" target="vg4Q64sPSbRJCFcJ-0NS-47" edge="1">
          <mxGeometry relative="1" as="geometry">
            <mxPoint x="520" y="260" as="sourcePoint" />
            <mxPoint x="632" y="307" as="targetPoint" />
            <Array as="points">
              <mxPoint x="520" y="280" />
              <mxPoint x="645" y="280" />
            </Array>
          </mxGeometry>
        </mxCell>
        <mxCell id="F2b25kM4q3_-RmNMOtht-55" value="" style="edgeStyle=orthogonalEdgeStyle;rounded=0;sketch=0;orthogonalLoop=1;jettySize=auto;html=1;strokeColor=#000000;strokeWidth=3;fontSize=14;dashed=1;entryX=0.5;entryY=0;entryDx=0;entryDy=0;exitX=0.25;exitY=1;exitDx=0;exitDy=0;" parent="1" source="o8t-AfqVLfgeVHYBPWKt-1" target="F2b25kM4q3_-RmNMOtht-50" edge="1">
          <mxGeometry relative="1" as="geometry">
            <mxPoint x="425" y="280" as="sourcePoint" />
            <mxPoint x="426.0999999999999" y="350" as="targetPoint" />
            <Array as="points">
              <mxPoint x="343" y="280" />
              <mxPoint x="185" y="280" />
            </Array>
          </mxGeometry>
        </mxCell>
        <mxCell id="LwSUsYu_gNU5PUAmVf1H-1" value="" style="edgeStyle=orthogonalEdgeStyle;rounded=0;sketch=0;jumpStyle=gap;orthogonalLoop=1;jettySize=auto;html=1;strokeColor=#000000;strokeWidth=3;fontSize=14;" parent="1" source="F2b25kM4q3_-RmNMOtht-62" target="F2b25kM4q3_-RmNMOtht-47" edge="1">
          <mxGeometry relative="1" as="geometry" />
        </mxCell>
        <mxCell id="F2b25kM4q3_-RmNMOtht-62" value="&lt;font style=&quot;font-size: 16px&quot;&gt;K8s Load Balancer&lt;/font&gt;" style="html=1;dashed=0;whitespace=wrap;fillColor=#2875E2;strokeColor=#ffffff;points=[[0.005,0.63,0],[0.1,0.2,0],[0.9,0.2,0],[0.5,0,0],[0.995,0.63,0],[0.72,0.99,0],[0.5,1,0],[0.28,0.99,0]];shape=mxgraph.kubernetes.icon;prIcon=ep;fontFamily=Helvetica;fontSize=14;fontColor=#000000;align=center;sketch=0;labelPosition=center;verticalLabelPosition=bottom;verticalAlign=top;labelBackgroundColor=#ffffff;" parent="1" vertex="1">
          <mxGeometry x="150.62" y="341.5" width="68.75" height="66" as="geometry" />
        </mxCell>
      </root>
    </mxGraphModel>
  </diagram>
</mxfile>
